%TF.GenerationSoftware,KiCad,Pcbnew,10.0.4-10.0.4~ubuntu22.04.1*%
%TF.CreationDate,2026-08-12T15:32:20+02:00*%
%TF.ProjectId,patch,70617463-682e-46b6-9963-61645f706362,rev?*%
%TF.SameCoordinates,Original*%
%TF.FileFunction,Other,User*%
%FSLAX46Y46*%
G04 Gerber Fmt 4.6, Leading zero omitted, Abs format (unit mm)*
G04 Created by KiCad (PCBNEW 10.0.4-10.0.4~ubuntu22.04.1) date 2026-08-12 15:32:20*
%MOMM*%
%LPD*%
G01*
G04 APERTURE LIST*
%ADD10C,0.000000*%
G04 APERTURE END LIST*
D10*
G36*
X92497111Y-40350023D02*
G01*
X92497111Y-40350023D01*
G75*
G02*
X94787991Y-42640901I-11J-2290877D01*
G01*
X94787991Y-54681858D01*
G75*
G02*
X92497111Y-56972736I-2290891J58D01*
G01*
X80141880Y-56972736D01*
G75*
G02*
X77851000Y-54681858I0J2290886D01*
G01*
X77851000Y-42640901D01*
G75*
G02*
X80141880Y-40350023I2290900J1D01*
G01*
X92497111Y-40350023D01*
G37*
G36*
X73842881Y-59566491D02*
G01*
X74058475Y-59578456D01*
X74273480Y-59598379D01*
X74487602Y-59626233D01*
X74700548Y-59661981D01*
X74912028Y-59705572D01*
X75121753Y-59756949D01*
X75329436Y-59816040D01*
X75534794Y-59882764D01*
X75737546Y-59957032D01*
X75937415Y-60038741D01*
X76134129Y-60127779D01*
X76327418Y-60224026D01*
X76517018Y-60327349D01*
X76702671Y-60437607D01*
X76884123Y-60554651D01*
X77061127Y-60678319D01*
X77233439Y-60808443D01*
X77400826Y-60944846D01*
X77563058Y-61087341D01*
X77719914Y-61235733D01*
X77871179Y-61389820D01*
X78016648Y-61549392D01*
X78156120Y-61714229D01*
X78289407Y-61884108D01*
X78416325Y-62058796D01*
X78536701Y-62238054D01*
X78650372Y-62421638D01*
X78757181Y-62609297D01*
X78856983Y-62800774D01*
X78949641Y-62995809D01*
X79035029Y-63194134D01*
X79113031Y-63395479D01*
X79183539Y-63599569D01*
X79246457Y-63806124D01*
X79301700Y-64014864D01*
X79349193Y-64225502D01*
X79388869Y-64437752D01*
X79420675Y-64651322D01*
X79444568Y-64865922D01*
X79460515Y-65081259D01*
X79468493Y-65297037D01*
X79468493Y-65512963D01*
X79460515Y-65728741D01*
X79444568Y-65944078D01*
X79420675Y-66158678D01*
X79388869Y-66372248D01*
X79349193Y-66584498D01*
X79301700Y-66795136D01*
X79246457Y-67003876D01*
X79183539Y-67210431D01*
X79113031Y-67414521D01*
X79035029Y-67615866D01*
X78949641Y-67814191D01*
X78856983Y-68009226D01*
X78757181Y-68200703D01*
X78650372Y-68388362D01*
X78536701Y-68571946D01*
X78416325Y-68751204D01*
X78289407Y-68925892D01*
X78156120Y-69095771D01*
X78016648Y-69260608D01*
X77871179Y-69420180D01*
X77719914Y-69574267D01*
X77563058Y-69722659D01*
X77400826Y-69865154D01*
X77233439Y-70001557D01*
X77061127Y-70131681D01*
X76884123Y-70255349D01*
X76702671Y-70372393D01*
X76517018Y-70482651D01*
X76327418Y-70585974D01*
X76134129Y-70682221D01*
X75937415Y-70771259D01*
X75737546Y-70852968D01*
X75534794Y-70927236D01*
X75329436Y-70993960D01*
X75121753Y-71053051D01*
X74912028Y-71104428D01*
X74700548Y-71148019D01*
X74487602Y-71183767D01*
X74273480Y-71211621D01*
X74058475Y-71231544D01*
X73842881Y-71243509D01*
X73626992Y-71247499D01*
X73411103Y-71243509D01*
X73195509Y-71231544D01*
X72980504Y-71211621D01*
X72766382Y-71183767D01*
X72553436Y-71148019D01*
X72341956Y-71104428D01*
X72132231Y-71053051D01*
X71924548Y-70993960D01*
X71719190Y-70927236D01*
X71516438Y-70852968D01*
X71316569Y-70771259D01*
X71119855Y-70682221D01*
X70926566Y-70585974D01*
X70736966Y-70482651D01*
X70551313Y-70372393D01*
X70369861Y-70255349D01*
X70192857Y-70131681D01*
X70020545Y-70001557D01*
X69853158Y-69865154D01*
X69690926Y-69722659D01*
X69534070Y-69574267D01*
X69382805Y-69420180D01*
X69237336Y-69260608D01*
X69097864Y-69095771D01*
X68964577Y-68925892D01*
X68837659Y-68751204D01*
X68717283Y-68571946D01*
X68603612Y-68388362D01*
X68496803Y-68200703D01*
X68397001Y-68009226D01*
X68304343Y-67814191D01*
X68218955Y-67615866D01*
X68140953Y-67414521D01*
X68070445Y-67210431D01*
X68007527Y-67003876D01*
X67952284Y-66795136D01*
X67904791Y-66584498D01*
X67865115Y-66372248D01*
X67833309Y-66158678D01*
X67809416Y-65944078D01*
X67793469Y-65728741D01*
X67785491Y-65512963D01*
X67784992Y-65405000D01*
X67785491Y-65297037D01*
X67786360Y-65273522D01*
X71316100Y-65273522D01*
X71316602Y-65340043D01*
X71324635Y-65472841D01*
X71340672Y-65604913D01*
X71364653Y-65735775D01*
X71396492Y-65864951D01*
X71436072Y-65991968D01*
X71483249Y-66116364D01*
X71537851Y-66237685D01*
X71599679Y-66355487D01*
X71668506Y-66469341D01*
X71744082Y-66578832D01*
X71826131Y-66683560D01*
X71914354Y-66783143D01*
X72008429Y-66877218D01*
X72108012Y-66965441D01*
X72212740Y-67047490D01*
X72322231Y-67123066D01*
X72436085Y-67191893D01*
X72553887Y-67253721D01*
X72675208Y-67308323D01*
X72799604Y-67355500D01*
X72926621Y-67395080D01*
X73055797Y-67426919D01*
X73186659Y-67450900D01*
X73318731Y-67466937D01*
X73451529Y-67474970D01*
X73584571Y-67474970D01*
X73717369Y-67466937D01*
X73849441Y-67450900D01*
X73980303Y-67426919D01*
X74109479Y-67395080D01*
X74236496Y-67355500D01*
X74360892Y-67308323D01*
X74482213Y-67253721D01*
X74600015Y-67191893D01*
X74713869Y-67123066D01*
X74823360Y-67047490D01*
X74928088Y-66965441D01*
X75027671Y-66877218D01*
X75121746Y-66783143D01*
X75209969Y-66683560D01*
X75292018Y-66578832D01*
X75367594Y-66469341D01*
X75436421Y-66355487D01*
X75498249Y-66237685D01*
X75552851Y-66116364D01*
X75600028Y-65991968D01*
X75639608Y-65864951D01*
X75671447Y-65735775D01*
X75695428Y-65604913D01*
X75711465Y-65472841D01*
X75719498Y-65340043D01*
X75719498Y-65207001D01*
X75711465Y-65074203D01*
X75695428Y-64942131D01*
X75671447Y-64811269D01*
X75639608Y-64682093D01*
X75600028Y-64555076D01*
X75552851Y-64430680D01*
X75498249Y-64309359D01*
X75436421Y-64191557D01*
X75367594Y-64077703D01*
X75292018Y-63968212D01*
X75209969Y-63863484D01*
X75121746Y-63763901D01*
X75027671Y-63669826D01*
X74928088Y-63581603D01*
X74823360Y-63499554D01*
X74713869Y-63423978D01*
X74600015Y-63355151D01*
X74482213Y-63293323D01*
X74360892Y-63238721D01*
X74236496Y-63191544D01*
X74109479Y-63151964D01*
X73980303Y-63120125D01*
X73849441Y-63096144D01*
X73717369Y-63080107D01*
X73584571Y-63072074D01*
X73451529Y-63072074D01*
X73318731Y-63080107D01*
X73186659Y-63096144D01*
X73055797Y-63120125D01*
X72926621Y-63151964D01*
X72799604Y-63191544D01*
X72675208Y-63238721D01*
X72553887Y-63293323D01*
X72436085Y-63355151D01*
X72322231Y-63423978D01*
X72212740Y-63499554D01*
X72108012Y-63581603D01*
X72008429Y-63669826D01*
X71914354Y-63763901D01*
X71826131Y-63863484D01*
X71744082Y-63968212D01*
X71668506Y-64077703D01*
X71599679Y-64191557D01*
X71537851Y-64309359D01*
X71483249Y-64430680D01*
X71436072Y-64555076D01*
X71396492Y-64682093D01*
X71364653Y-64811269D01*
X71340672Y-64942131D01*
X71324635Y-65074203D01*
X71316602Y-65207001D01*
X71316100Y-65273522D01*
X67786360Y-65273522D01*
X67793469Y-65081259D01*
X67809416Y-64865922D01*
X67833309Y-64651322D01*
X67865115Y-64437752D01*
X67904791Y-64225502D01*
X67952284Y-64014864D01*
X68007527Y-63806124D01*
X68070445Y-63599569D01*
X68140953Y-63395479D01*
X68218955Y-63194134D01*
X68304343Y-62995809D01*
X68397001Y-62800774D01*
X68496803Y-62609297D01*
X68603612Y-62421638D01*
X68717283Y-62238054D01*
X68837659Y-62058796D01*
X68964577Y-61884108D01*
X69097864Y-61714229D01*
X69237336Y-61549392D01*
X69382805Y-61389820D01*
X69534070Y-61235733D01*
X69690926Y-61087341D01*
X69853158Y-60944846D01*
X70020545Y-60808443D01*
X70192857Y-60678319D01*
X70369861Y-60554651D01*
X70551313Y-60437607D01*
X70736966Y-60327349D01*
X70926566Y-60224026D01*
X71119855Y-60127779D01*
X71316569Y-60038741D01*
X71516438Y-59957032D01*
X71719190Y-59882764D01*
X71924548Y-59816040D01*
X72132231Y-59756949D01*
X72341956Y-59705572D01*
X72553436Y-59661981D01*
X72766382Y-59626233D01*
X72980504Y-59598379D01*
X73195509Y-59578456D01*
X73411103Y-59566491D01*
X73626992Y-59562501D01*
X73842881Y-59566491D01*
G37*
G36*
X142709889Y-59566491D02*
G01*
X142925483Y-59578456D01*
X143140488Y-59598379D01*
X143354610Y-59626233D01*
X143567556Y-59661981D01*
X143779036Y-59705572D01*
X143988761Y-59756949D01*
X144196444Y-59816040D01*
X144401802Y-59882764D01*
X144604554Y-59957032D01*
X144804423Y-60038741D01*
X145001137Y-60127779D01*
X145194426Y-60224026D01*
X145384026Y-60327349D01*
X145569679Y-60437607D01*
X145751131Y-60554651D01*
X145928135Y-60678319D01*
X146100447Y-60808443D01*
X146267834Y-60944846D01*
X146430066Y-61087341D01*
X146586922Y-61235733D01*
X146738187Y-61389820D01*
X146883656Y-61549392D01*
X147023128Y-61714229D01*
X147156415Y-61884108D01*
X147283333Y-62058796D01*
X147403709Y-62238054D01*
X147517380Y-62421638D01*
X147624189Y-62609297D01*
X147723991Y-62800774D01*
X147816649Y-62995809D01*
X147902037Y-63194134D01*
X147980039Y-63395479D01*
X148050547Y-63599569D01*
X148113465Y-63806124D01*
X148168708Y-64014864D01*
X148216201Y-64225502D01*
X148255877Y-64437752D01*
X148287683Y-64651322D01*
X148311576Y-64865922D01*
X148327523Y-65081259D01*
X148335501Y-65297037D01*
X148335501Y-65512963D01*
X148327523Y-65728741D01*
X148311576Y-65944078D01*
X148287683Y-66158678D01*
X148255877Y-66372248D01*
X148216201Y-66584498D01*
X148168708Y-66795136D01*
X148113465Y-67003876D01*
X148050547Y-67210431D01*
X147980039Y-67414521D01*
X147902037Y-67615866D01*
X147816649Y-67814191D01*
X147723991Y-68009226D01*
X147624189Y-68200703D01*
X147517380Y-68388362D01*
X147403709Y-68571946D01*
X147283333Y-68751204D01*
X147156415Y-68925892D01*
X147023128Y-69095771D01*
X146883656Y-69260608D01*
X146738187Y-69420180D01*
X146586922Y-69574267D01*
X146430066Y-69722659D01*
X146267834Y-69865154D01*
X146100447Y-70001557D01*
X145928135Y-70131681D01*
X145751131Y-70255349D01*
X145569679Y-70372393D01*
X145384026Y-70482651D01*
X145194426Y-70585974D01*
X145001137Y-70682221D01*
X144804423Y-70771259D01*
X144604554Y-70852968D01*
X144401802Y-70927236D01*
X144196444Y-70993960D01*
X143988761Y-71053051D01*
X143779036Y-71104428D01*
X143567556Y-71148019D01*
X143354610Y-71183767D01*
X143140488Y-71211621D01*
X142925483Y-71231544D01*
X142709889Y-71243509D01*
X142494000Y-71247499D01*
X142278111Y-71243509D01*
X142062517Y-71231544D01*
X141847512Y-71211621D01*
X141633390Y-71183767D01*
X141420444Y-71148019D01*
X141208964Y-71104428D01*
X140999239Y-71053051D01*
X140791556Y-70993960D01*
X140586198Y-70927236D01*
X140383446Y-70852968D01*
X140183577Y-70771259D01*
X139986863Y-70682221D01*
X139793574Y-70585974D01*
X139603974Y-70482651D01*
X139418321Y-70372393D01*
X139236869Y-70255349D01*
X139059865Y-70131681D01*
X138887553Y-70001557D01*
X138720166Y-69865154D01*
X138557934Y-69722659D01*
X138401078Y-69574267D01*
X138249813Y-69420180D01*
X138104344Y-69260608D01*
X137964872Y-69095771D01*
X137831585Y-68925892D01*
X137704667Y-68751204D01*
X137584291Y-68571946D01*
X137470620Y-68388362D01*
X137363811Y-68200703D01*
X137264009Y-68009226D01*
X137171351Y-67814191D01*
X137085963Y-67615866D01*
X137007961Y-67414521D01*
X136937453Y-67210431D01*
X136874535Y-67003876D01*
X136819292Y-66795136D01*
X136771799Y-66584498D01*
X136732123Y-66372248D01*
X136700317Y-66158678D01*
X136676424Y-65944078D01*
X136660477Y-65728741D01*
X136652499Y-65512963D01*
X136652208Y-65450000D01*
X140018202Y-65450000D01*
X140018700Y-65516604D01*
X140026666Y-65649573D01*
X140042571Y-65781827D01*
X140066356Y-65912894D01*
X140097936Y-66042304D01*
X140137200Y-66169593D01*
X140184006Y-66294307D01*
X140238186Y-66415998D01*
X140299547Y-66534231D01*
X140367869Y-66648582D01*
X140442908Y-66758644D01*
X140524394Y-66864020D01*
X140612036Y-66964335D01*
X140705521Y-67059229D01*
X140804513Y-67148362D01*
X140908659Y-67231415D01*
X141017585Y-67308092D01*
X141130902Y-67378117D01*
X141248204Y-67441240D01*
X141369071Y-67497234D01*
X141493070Y-67545900D01*
X141619758Y-67587064D01*
X141748681Y-67620577D01*
X141879377Y-67646320D01*
X142011379Y-67664201D01*
X142144214Y-67674156D01*
X142277407Y-67676148D01*
X142410480Y-67670172D01*
X142542958Y-67656248D01*
X142674365Y-67634426D01*
X142804233Y-67604785D01*
X142932096Y-67567430D01*
X143057495Y-67522495D01*
X143179983Y-67470141D01*
X143299121Y-67410556D01*
X143414482Y-67343952D01*
X143525653Y-67270568D01*
X143632237Y-67190668D01*
X143733852Y-67104536D01*
X143830133Y-67012481D01*
X143920737Y-66914833D01*
X144005340Y-66811941D01*
X144083637Y-66704174D01*
X144155349Y-66591918D01*
X144220220Y-66475573D01*
X144278016Y-66355557D01*
X144328532Y-66232300D01*
X144371586Y-66106242D01*
X144407024Y-65977835D01*
X144434719Y-65847539D01*
X144454573Y-65715819D01*
X144466514Y-65583148D01*
X144470499Y-65450000D01*
X144466514Y-65316852D01*
X144454573Y-65184181D01*
X144434719Y-65052461D01*
X144407024Y-64922165D01*
X144371586Y-64793758D01*
X144328532Y-64667700D01*
X144278016Y-64544443D01*
X144220220Y-64424427D01*
X144155349Y-64308082D01*
X144083637Y-64195826D01*
X144005340Y-64088059D01*
X143920737Y-63985167D01*
X143830133Y-63887519D01*
X143733852Y-63795464D01*
X143632237Y-63709332D01*
X143525653Y-63629432D01*
X143414482Y-63556048D01*
X143299121Y-63489444D01*
X143179983Y-63429859D01*
X143057495Y-63377505D01*
X142932096Y-63332570D01*
X142804233Y-63295215D01*
X142674365Y-63265574D01*
X142542958Y-63243752D01*
X142410480Y-63229828D01*
X142277407Y-63223852D01*
X142144214Y-63225844D01*
X142011379Y-63235799D01*
X141879377Y-63253680D01*
X141748681Y-63279423D01*
X141619758Y-63312936D01*
X141493070Y-63354100D01*
X141369071Y-63402766D01*
X141248204Y-63458760D01*
X141130902Y-63521883D01*
X141017585Y-63591908D01*
X140908659Y-63668585D01*
X140804513Y-63751638D01*
X140705521Y-63840771D01*
X140612036Y-63935665D01*
X140524394Y-64035980D01*
X140442908Y-64141356D01*
X140367869Y-64251418D01*
X140299547Y-64365769D01*
X140238186Y-64484002D01*
X140184006Y-64605693D01*
X140137200Y-64730407D01*
X140097936Y-64857696D01*
X140066356Y-64987106D01*
X140042571Y-65118173D01*
X140026666Y-65250427D01*
X140018700Y-65383396D01*
X140018202Y-65450000D01*
X136652208Y-65450000D01*
X136652000Y-65405000D01*
X136652499Y-65297037D01*
X136660477Y-65081259D01*
X136676424Y-64865922D01*
X136700317Y-64651322D01*
X136732123Y-64437752D01*
X136771799Y-64225502D01*
X136819292Y-64014864D01*
X136874535Y-63806124D01*
X136937453Y-63599569D01*
X137007961Y-63395479D01*
X137085963Y-63194134D01*
X137171351Y-62995809D01*
X137264009Y-62800774D01*
X137363811Y-62609297D01*
X137470620Y-62421638D01*
X137584291Y-62238054D01*
X137704667Y-62058796D01*
X137831585Y-61884108D01*
X137964872Y-61714229D01*
X138104344Y-61549392D01*
X138249813Y-61389820D01*
X138401078Y-61235733D01*
X138557934Y-61087341D01*
X138720166Y-60944846D01*
X138887553Y-60808443D01*
X139059865Y-60678319D01*
X139236869Y-60554651D01*
X139418321Y-60437607D01*
X139603974Y-60327349D01*
X139793574Y-60224026D01*
X139986863Y-60127779D01*
X140183577Y-60038741D01*
X140383446Y-59957032D01*
X140586198Y-59882764D01*
X140791556Y-59816040D01*
X140999239Y-59756949D01*
X141208964Y-59705572D01*
X141420444Y-59661981D01*
X141633390Y-59626233D01*
X141847512Y-59598379D01*
X142062517Y-59578456D01*
X142278111Y-59566491D01*
X142494000Y-59562501D01*
X142709889Y-59566491D01*
G37*
G36*
X117983000Y-38368477D02*
G01*
X117982514Y-38468895D01*
X117974450Y-38669568D01*
X117958334Y-38869755D01*
X117934194Y-39069134D01*
X117902066Y-39267382D01*
X117862003Y-39464181D01*
X117814071Y-39659212D01*
X117758345Y-39852161D01*
X117694916Y-40042717D01*
X117623887Y-40230572D01*
X117545371Y-40415424D01*
X117459496Y-40596973D01*
X117366400Y-40774928D01*
X117266234Y-40949000D01*
X117159158Y-41118911D01*
X117045345Y-41284384D01*
X116924980Y-41445154D01*
X116798256Y-41600960D01*
X116732189Y-41676585D01*
X116078000Y-42418000D01*
X102997000Y-42418000D01*
X102556466Y-41977466D01*
X102487363Y-41907724D01*
X102354075Y-41763535D01*
X102226551Y-41614224D01*
X102104987Y-41460022D01*
X101989572Y-41301166D01*
X101880482Y-41137902D01*
X101777886Y-40970480D01*
X101681942Y-40799159D01*
X101592798Y-40624203D01*
X101510592Y-40445883D01*
X101435450Y-40264472D01*
X101367489Y-40080252D01*
X101306812Y-39893505D01*
X101253515Y-39704520D01*
X101207677Y-39513588D01*
X101204974Y-39500000D01*
X101812679Y-39500000D01*
X101813187Y-39524595D01*
X101821283Y-39573113D01*
X101837255Y-39619637D01*
X101860666Y-39662898D01*
X101890879Y-39701715D01*
X101927069Y-39735030D01*
X101968248Y-39761934D01*
X102013295Y-39781693D01*
X102060979Y-39793768D01*
X102110000Y-39797831D01*
X102159021Y-39793768D01*
X102206705Y-39781693D01*
X102251752Y-39761934D01*
X102292931Y-39735030D01*
X102329121Y-39701715D01*
X102359334Y-39662898D01*
X102382745Y-39619637D01*
X102398717Y-39573113D01*
X102406813Y-39524595D01*
X102406813Y-39500000D01*
X102815358Y-39500000D01*
X102815866Y-39524595D01*
X102823962Y-39573113D01*
X102839934Y-39619637D01*
X102863345Y-39662898D01*
X102893558Y-39701715D01*
X102929748Y-39735030D01*
X102970927Y-39761934D01*
X103015974Y-39781693D01*
X103063658Y-39793768D01*
X103112679Y-39797831D01*
X103161700Y-39793768D01*
X103209384Y-39781693D01*
X103254431Y-39761934D01*
X103295610Y-39735030D01*
X103331800Y-39701715D01*
X103362013Y-39662898D01*
X103385424Y-39619637D01*
X103401396Y-39573113D01*
X103409492Y-39524595D01*
X103409492Y-39500000D01*
X103815358Y-39500000D01*
X103815866Y-39524595D01*
X103823962Y-39573113D01*
X103839934Y-39619637D01*
X103863345Y-39662898D01*
X103893558Y-39701715D01*
X103929748Y-39735030D01*
X103970927Y-39761934D01*
X104015974Y-39781693D01*
X104063658Y-39793768D01*
X104112679Y-39797831D01*
X104161700Y-39793768D01*
X104209384Y-39781693D01*
X104254431Y-39761934D01*
X104295610Y-39735030D01*
X104331800Y-39701715D01*
X104362013Y-39662898D01*
X104385424Y-39619637D01*
X104401396Y-39573113D01*
X104409492Y-39524595D01*
X104409492Y-39500000D01*
X104815358Y-39500000D01*
X104815866Y-39524595D01*
X104823962Y-39573113D01*
X104839934Y-39619637D01*
X104863345Y-39662898D01*
X104893558Y-39701715D01*
X104929748Y-39735030D01*
X104970927Y-39761934D01*
X105015974Y-39781693D01*
X105063658Y-39793768D01*
X105112679Y-39797831D01*
X105161700Y-39793768D01*
X105209384Y-39781693D01*
X105254431Y-39761934D01*
X105295610Y-39735030D01*
X105331800Y-39701715D01*
X105362013Y-39662898D01*
X105385424Y-39619637D01*
X105401396Y-39573113D01*
X105409492Y-39524595D01*
X105409492Y-39500000D01*
X105815358Y-39500000D01*
X105815866Y-39524595D01*
X105823962Y-39573113D01*
X105839934Y-39619637D01*
X105863345Y-39662898D01*
X105893558Y-39701715D01*
X105929748Y-39735030D01*
X105970927Y-39761934D01*
X106015974Y-39781693D01*
X106063658Y-39793768D01*
X106112679Y-39797831D01*
X106161700Y-39793768D01*
X106209384Y-39781693D01*
X106254431Y-39761934D01*
X106295610Y-39735030D01*
X106331800Y-39701715D01*
X106362013Y-39662898D01*
X106385424Y-39619637D01*
X106401396Y-39573113D01*
X106409492Y-39524595D01*
X106409492Y-39500000D01*
X106815358Y-39500000D01*
X106815866Y-39524595D01*
X106823962Y-39573113D01*
X106839934Y-39619637D01*
X106863345Y-39662898D01*
X106893558Y-39701715D01*
X106929748Y-39735030D01*
X106970927Y-39761934D01*
X107015974Y-39781693D01*
X107063658Y-39793768D01*
X107112679Y-39797831D01*
X107161700Y-39793768D01*
X107209384Y-39781693D01*
X107254431Y-39761934D01*
X107295610Y-39735030D01*
X107331800Y-39701715D01*
X107362013Y-39662898D01*
X107385424Y-39619637D01*
X107401396Y-39573113D01*
X107409492Y-39524595D01*
X107409492Y-39500000D01*
X107815358Y-39500000D01*
X107815866Y-39524595D01*
X107823962Y-39573113D01*
X107839934Y-39619637D01*
X107863345Y-39662898D01*
X107893558Y-39701715D01*
X107929748Y-39735030D01*
X107970927Y-39761934D01*
X108015974Y-39781693D01*
X108063658Y-39793768D01*
X108112679Y-39797831D01*
X108161700Y-39793768D01*
X108209384Y-39781693D01*
X108254431Y-39761934D01*
X108295610Y-39735030D01*
X108331800Y-39701715D01*
X108362013Y-39662898D01*
X108385424Y-39619637D01*
X108401396Y-39573113D01*
X108409492Y-39524595D01*
X108409492Y-39500000D01*
X108815358Y-39500000D01*
X108815866Y-39524595D01*
X108823962Y-39573113D01*
X108839934Y-39619637D01*
X108863345Y-39662898D01*
X108893558Y-39701715D01*
X108929748Y-39735030D01*
X108970927Y-39761934D01*
X109015974Y-39781693D01*
X109063658Y-39793768D01*
X109112679Y-39797831D01*
X109161700Y-39793768D01*
X109209384Y-39781693D01*
X109254431Y-39761934D01*
X109295610Y-39735030D01*
X109331800Y-39701715D01*
X109362013Y-39662898D01*
X109385424Y-39619637D01*
X109401396Y-39573113D01*
X109409492Y-39524595D01*
X109409492Y-39500000D01*
X109815358Y-39500000D01*
X109815866Y-39524595D01*
X109823962Y-39573113D01*
X109839934Y-39619637D01*
X109863345Y-39662898D01*
X109893558Y-39701715D01*
X109929748Y-39735030D01*
X109970927Y-39761934D01*
X110015974Y-39781693D01*
X110063658Y-39793768D01*
X110112679Y-39797831D01*
X110161700Y-39793768D01*
X110209384Y-39781693D01*
X110254431Y-39761934D01*
X110295610Y-39735030D01*
X110331800Y-39701715D01*
X110362013Y-39662898D01*
X110385424Y-39619637D01*
X110401396Y-39573113D01*
X110409492Y-39524595D01*
X110409492Y-39500000D01*
X110815358Y-39500000D01*
X110815866Y-39524595D01*
X110823962Y-39573113D01*
X110839934Y-39619637D01*
X110863345Y-39662898D01*
X110893558Y-39701715D01*
X110929748Y-39735030D01*
X110970927Y-39761934D01*
X111015974Y-39781693D01*
X111063658Y-39793768D01*
X111112679Y-39797831D01*
X111161700Y-39793768D01*
X111209384Y-39781693D01*
X111254431Y-39761934D01*
X111295610Y-39735030D01*
X111331800Y-39701715D01*
X111362013Y-39662898D01*
X111385424Y-39619637D01*
X111401396Y-39573113D01*
X111409492Y-39524595D01*
X111409492Y-39500000D01*
X111815358Y-39500000D01*
X111815866Y-39524595D01*
X111823962Y-39573113D01*
X111839934Y-39619637D01*
X111863345Y-39662898D01*
X111893558Y-39701715D01*
X111929748Y-39735030D01*
X111970927Y-39761934D01*
X112015974Y-39781693D01*
X112063658Y-39793768D01*
X112112679Y-39797831D01*
X112161700Y-39793768D01*
X112209384Y-39781693D01*
X112254431Y-39761934D01*
X112295610Y-39735030D01*
X112331800Y-39701715D01*
X112362013Y-39662898D01*
X112385424Y-39619637D01*
X112401396Y-39573113D01*
X112409492Y-39524595D01*
X112409492Y-39500000D01*
X112815358Y-39500000D01*
X112815866Y-39524595D01*
X112823962Y-39573113D01*
X112839934Y-39619637D01*
X112863345Y-39662898D01*
X112893558Y-39701715D01*
X112929748Y-39735030D01*
X112970927Y-39761934D01*
X113015974Y-39781693D01*
X113063658Y-39793768D01*
X113112679Y-39797831D01*
X113161700Y-39793768D01*
X113209384Y-39781693D01*
X113254431Y-39761934D01*
X113295610Y-39735030D01*
X113331800Y-39701715D01*
X113362013Y-39662898D01*
X113385424Y-39619637D01*
X113401396Y-39573113D01*
X113409492Y-39524595D01*
X113409492Y-39500000D01*
X113815358Y-39500000D01*
X113815866Y-39524595D01*
X113823962Y-39573113D01*
X113839934Y-39619637D01*
X113863345Y-39662898D01*
X113893558Y-39701715D01*
X113929748Y-39735030D01*
X113970927Y-39761934D01*
X114015974Y-39781693D01*
X114063658Y-39793768D01*
X114112679Y-39797831D01*
X114161700Y-39793768D01*
X114209384Y-39781693D01*
X114254431Y-39761934D01*
X114295610Y-39735030D01*
X114331800Y-39701715D01*
X114362013Y-39662898D01*
X114385424Y-39619637D01*
X114401396Y-39573113D01*
X114409492Y-39524595D01*
X114409492Y-39500000D01*
X114815358Y-39500000D01*
X114815866Y-39524595D01*
X114823962Y-39573113D01*
X114839934Y-39619637D01*
X114863345Y-39662898D01*
X114893558Y-39701715D01*
X114929748Y-39735030D01*
X114970927Y-39761934D01*
X115015974Y-39781693D01*
X115063658Y-39793768D01*
X115112679Y-39797831D01*
X115161700Y-39793768D01*
X115209384Y-39781693D01*
X115254431Y-39761934D01*
X115295610Y-39735030D01*
X115331800Y-39701715D01*
X115362013Y-39662898D01*
X115385424Y-39619637D01*
X115401396Y-39573113D01*
X115409492Y-39524595D01*
X115409492Y-39500000D01*
X115815358Y-39500000D01*
X115815866Y-39524595D01*
X115823962Y-39573113D01*
X115839934Y-39619637D01*
X115863345Y-39662898D01*
X115893558Y-39701715D01*
X115929748Y-39735030D01*
X115970927Y-39761934D01*
X116015974Y-39781693D01*
X116063658Y-39793768D01*
X116112679Y-39797831D01*
X116161700Y-39793768D01*
X116209384Y-39781693D01*
X116254431Y-39761934D01*
X116295610Y-39735030D01*
X116331800Y-39701715D01*
X116362013Y-39662898D01*
X116385424Y-39619637D01*
X116401396Y-39573113D01*
X116409492Y-39524595D01*
X116409492Y-39500000D01*
X116815358Y-39500000D01*
X116815866Y-39524595D01*
X116823962Y-39573113D01*
X116839934Y-39619637D01*
X116863345Y-39662898D01*
X116893558Y-39701715D01*
X116929748Y-39735030D01*
X116970927Y-39761934D01*
X117015974Y-39781693D01*
X117063658Y-39793768D01*
X117112679Y-39797831D01*
X117161700Y-39793768D01*
X117209384Y-39781693D01*
X117254431Y-39761934D01*
X117295610Y-39735030D01*
X117331800Y-39701715D01*
X117362013Y-39662898D01*
X117385424Y-39619637D01*
X117401396Y-39573113D01*
X117409492Y-39524595D01*
X117409492Y-39475405D01*
X117401396Y-39426887D01*
X117385424Y-39380363D01*
X117362013Y-39337102D01*
X117331800Y-39298285D01*
X117295610Y-39264970D01*
X117254431Y-39238066D01*
X117209384Y-39218307D01*
X117161700Y-39206232D01*
X117112679Y-39202170D01*
X117063658Y-39206232D01*
X117015974Y-39218307D01*
X116970927Y-39238066D01*
X116929748Y-39264970D01*
X116893558Y-39298285D01*
X116863345Y-39337102D01*
X116839934Y-39380363D01*
X116823962Y-39426887D01*
X116815866Y-39475405D01*
X116815358Y-39500000D01*
X116409492Y-39500000D01*
X116409492Y-39475405D01*
X116401396Y-39426887D01*
X116385424Y-39380363D01*
X116362013Y-39337102D01*
X116331800Y-39298285D01*
X116295610Y-39264970D01*
X116254431Y-39238066D01*
X116209384Y-39218307D01*
X116161700Y-39206232D01*
X116112679Y-39202170D01*
X116063658Y-39206232D01*
X116015974Y-39218307D01*
X115970927Y-39238066D01*
X115929748Y-39264970D01*
X115893558Y-39298285D01*
X115863345Y-39337102D01*
X115839934Y-39380363D01*
X115823962Y-39426887D01*
X115815866Y-39475405D01*
X115815358Y-39500000D01*
X115409492Y-39500000D01*
X115409492Y-39475405D01*
X115401396Y-39426887D01*
X115385424Y-39380363D01*
X115362013Y-39337102D01*
X115331800Y-39298285D01*
X115295610Y-39264970D01*
X115254431Y-39238066D01*
X115209384Y-39218307D01*
X115161700Y-39206232D01*
X115112679Y-39202170D01*
X115063658Y-39206232D01*
X115015974Y-39218307D01*
X114970927Y-39238066D01*
X114929748Y-39264970D01*
X114893558Y-39298285D01*
X114863345Y-39337102D01*
X114839934Y-39380363D01*
X114823962Y-39426887D01*
X114815866Y-39475405D01*
X114815358Y-39500000D01*
X114409492Y-39500000D01*
X114409492Y-39475405D01*
X114401396Y-39426887D01*
X114385424Y-39380363D01*
X114362013Y-39337102D01*
X114331800Y-39298285D01*
X114295610Y-39264970D01*
X114254431Y-39238066D01*
X114209384Y-39218307D01*
X114161700Y-39206232D01*
X114112679Y-39202170D01*
X114063658Y-39206232D01*
X114015974Y-39218307D01*
X113970927Y-39238066D01*
X113929748Y-39264970D01*
X113893558Y-39298285D01*
X113863345Y-39337102D01*
X113839934Y-39380363D01*
X113823962Y-39426887D01*
X113815866Y-39475405D01*
X113815358Y-39500000D01*
X113409492Y-39500000D01*
X113409492Y-39475405D01*
X113401396Y-39426887D01*
X113385424Y-39380363D01*
X113362013Y-39337102D01*
X113331800Y-39298285D01*
X113295610Y-39264970D01*
X113254431Y-39238066D01*
X113209384Y-39218307D01*
X113161700Y-39206232D01*
X113112679Y-39202170D01*
X113063658Y-39206232D01*
X113015974Y-39218307D01*
X112970927Y-39238066D01*
X112929748Y-39264970D01*
X112893558Y-39298285D01*
X112863345Y-39337102D01*
X112839934Y-39380363D01*
X112823962Y-39426887D01*
X112815866Y-39475405D01*
X112815358Y-39500000D01*
X112409492Y-39500000D01*
X112409492Y-39475405D01*
X112401396Y-39426887D01*
X112385424Y-39380363D01*
X112362013Y-39337102D01*
X112331800Y-39298285D01*
X112295610Y-39264970D01*
X112254431Y-39238066D01*
X112209384Y-39218307D01*
X112161700Y-39206232D01*
X112112679Y-39202170D01*
X112063658Y-39206232D01*
X112015974Y-39218307D01*
X111970927Y-39238066D01*
X111929748Y-39264970D01*
X111893558Y-39298285D01*
X111863345Y-39337102D01*
X111839934Y-39380363D01*
X111823962Y-39426887D01*
X111815866Y-39475405D01*
X111815358Y-39500000D01*
X111409492Y-39500000D01*
X111409492Y-39475405D01*
X111401396Y-39426887D01*
X111385424Y-39380363D01*
X111362013Y-39337102D01*
X111331800Y-39298285D01*
X111295610Y-39264970D01*
X111254431Y-39238066D01*
X111209384Y-39218307D01*
X111161700Y-39206232D01*
X111112679Y-39202170D01*
X111063658Y-39206232D01*
X111015974Y-39218307D01*
X110970927Y-39238066D01*
X110929748Y-39264970D01*
X110893558Y-39298285D01*
X110863345Y-39337102D01*
X110839934Y-39380363D01*
X110823962Y-39426887D01*
X110815866Y-39475405D01*
X110815358Y-39500000D01*
X110409492Y-39500000D01*
X110409492Y-39475405D01*
X110401396Y-39426887D01*
X110385424Y-39380363D01*
X110362013Y-39337102D01*
X110331800Y-39298285D01*
X110295610Y-39264970D01*
X110254431Y-39238066D01*
X110209384Y-39218307D01*
X110161700Y-39206232D01*
X110112679Y-39202170D01*
X110063658Y-39206232D01*
X110015974Y-39218307D01*
X109970927Y-39238066D01*
X109929748Y-39264970D01*
X109893558Y-39298285D01*
X109863345Y-39337102D01*
X109839934Y-39380363D01*
X109823962Y-39426887D01*
X109815866Y-39475405D01*
X109815358Y-39500000D01*
X109409492Y-39500000D01*
X109409492Y-39475405D01*
X109401396Y-39426887D01*
X109385424Y-39380363D01*
X109362013Y-39337102D01*
X109331800Y-39298285D01*
X109295610Y-39264970D01*
X109254431Y-39238066D01*
X109209384Y-39218307D01*
X109161700Y-39206232D01*
X109112679Y-39202170D01*
X109063658Y-39206232D01*
X109015974Y-39218307D01*
X108970927Y-39238066D01*
X108929748Y-39264970D01*
X108893558Y-39298285D01*
X108863345Y-39337102D01*
X108839934Y-39380363D01*
X108823962Y-39426887D01*
X108815866Y-39475405D01*
X108815358Y-39500000D01*
X108409492Y-39500000D01*
X108409492Y-39475405D01*
X108401396Y-39426887D01*
X108385424Y-39380363D01*
X108362013Y-39337102D01*
X108331800Y-39298285D01*
X108295610Y-39264970D01*
X108254431Y-39238066D01*
X108209384Y-39218307D01*
X108161700Y-39206232D01*
X108112679Y-39202170D01*
X108063658Y-39206232D01*
X108015974Y-39218307D01*
X107970927Y-39238066D01*
X107929748Y-39264970D01*
X107893558Y-39298285D01*
X107863345Y-39337102D01*
X107839934Y-39380363D01*
X107823962Y-39426887D01*
X107815866Y-39475405D01*
X107815358Y-39500000D01*
X107409492Y-39500000D01*
X107409492Y-39475405D01*
X107401396Y-39426887D01*
X107385424Y-39380363D01*
X107362013Y-39337102D01*
X107331800Y-39298285D01*
X107295610Y-39264970D01*
X107254431Y-39238066D01*
X107209384Y-39218307D01*
X107161700Y-39206232D01*
X107112679Y-39202170D01*
X107063658Y-39206232D01*
X107015974Y-39218307D01*
X106970927Y-39238066D01*
X106929748Y-39264970D01*
X106893558Y-39298285D01*
X106863345Y-39337102D01*
X106839934Y-39380363D01*
X106823962Y-39426887D01*
X106815866Y-39475405D01*
X106815358Y-39500000D01*
X106409492Y-39500000D01*
X106409492Y-39475405D01*
X106401396Y-39426887D01*
X106385424Y-39380363D01*
X106362013Y-39337102D01*
X106331800Y-39298285D01*
X106295610Y-39264970D01*
X106254431Y-39238066D01*
X106209384Y-39218307D01*
X106161700Y-39206232D01*
X106112679Y-39202170D01*
X106063658Y-39206232D01*
X106015974Y-39218307D01*
X105970927Y-39238066D01*
X105929748Y-39264970D01*
X105893558Y-39298285D01*
X105863345Y-39337102D01*
X105839934Y-39380363D01*
X105823962Y-39426887D01*
X105815866Y-39475405D01*
X105815358Y-39500000D01*
X105409492Y-39500000D01*
X105409492Y-39475405D01*
X105401396Y-39426887D01*
X105385424Y-39380363D01*
X105362013Y-39337102D01*
X105331800Y-39298285D01*
X105295610Y-39264970D01*
X105254431Y-39238066D01*
X105209384Y-39218307D01*
X105161700Y-39206232D01*
X105112679Y-39202170D01*
X105063658Y-39206232D01*
X105015974Y-39218307D01*
X104970927Y-39238066D01*
X104929748Y-39264970D01*
X104893558Y-39298285D01*
X104863345Y-39337102D01*
X104839934Y-39380363D01*
X104823962Y-39426887D01*
X104815866Y-39475405D01*
X104815358Y-39500000D01*
X104409492Y-39500000D01*
X104409492Y-39475405D01*
X104401396Y-39426887D01*
X104385424Y-39380363D01*
X104362013Y-39337102D01*
X104331800Y-39298285D01*
X104295610Y-39264970D01*
X104254431Y-39238066D01*
X104209384Y-39218307D01*
X104161700Y-39206232D01*
X104112679Y-39202170D01*
X104063658Y-39206232D01*
X104015974Y-39218307D01*
X103970927Y-39238066D01*
X103929748Y-39264970D01*
X103893558Y-39298285D01*
X103863345Y-39337102D01*
X103839934Y-39380363D01*
X103823962Y-39426887D01*
X103815866Y-39475405D01*
X103815358Y-39500000D01*
X103409492Y-39500000D01*
X103409492Y-39475405D01*
X103401396Y-39426887D01*
X103385424Y-39380363D01*
X103362013Y-39337102D01*
X103331800Y-39298285D01*
X103295610Y-39264970D01*
X103254431Y-39238066D01*
X103209384Y-39218307D01*
X103161700Y-39206232D01*
X103112679Y-39202170D01*
X103063658Y-39206232D01*
X103015974Y-39218307D01*
X102970927Y-39238066D01*
X102929748Y-39264970D01*
X102893558Y-39298285D01*
X102863345Y-39337102D01*
X102839934Y-39380363D01*
X102823962Y-39426887D01*
X102815866Y-39475405D01*
X102815358Y-39500000D01*
X102406813Y-39500000D01*
X102406813Y-39475405D01*
X102398717Y-39426887D01*
X102382745Y-39380363D01*
X102359334Y-39337102D01*
X102329121Y-39298285D01*
X102292931Y-39264970D01*
X102251752Y-39238066D01*
X102206705Y-39218307D01*
X102159021Y-39206232D01*
X102110000Y-39202170D01*
X102060979Y-39206232D01*
X102013295Y-39218307D01*
X101968248Y-39238066D01*
X101927069Y-39264970D01*
X101890879Y-39298285D01*
X101860666Y-39337102D01*
X101837255Y-39380363D01*
X101821283Y-39426887D01*
X101813187Y-39475405D01*
X101812679Y-39500000D01*
X101204974Y-39500000D01*
X101169372Y-39321004D01*
X101138657Y-39127064D01*
X101115580Y-38932068D01*
X101100176Y-38736316D01*
X101092470Y-38540110D01*
X101092000Y-38441932D01*
X101092000Y-38100000D01*
X117983000Y-38100000D01*
X117983000Y-38368477D01*
G37*
G36*
X113157377Y-58293485D02*
G01*
X113391200Y-58301303D01*
X113624632Y-58316929D01*
X113857411Y-58340347D01*
X114089277Y-58371530D01*
X114319972Y-58410444D01*
X114549238Y-58457044D01*
X114776819Y-58511279D01*
X115002460Y-58573089D01*
X115225910Y-58642404D01*
X115446919Y-58719146D01*
X115665241Y-58803231D01*
X115880630Y-58894564D01*
X116092848Y-58993044D01*
X116301656Y-59098559D01*
X116506822Y-59210993D01*
X116708116Y-59330220D01*
X116905314Y-59456106D01*
X117098196Y-59588512D01*
X117286545Y-59727289D01*
X117470152Y-59872282D01*
X117648811Y-60023329D01*
X117822324Y-60180262D01*
X117990495Y-60342905D01*
X118153138Y-60511076D01*
X118310071Y-60684589D01*
X118461118Y-60863248D01*
X118606111Y-61046855D01*
X118744888Y-61235204D01*
X118877294Y-61428086D01*
X119003180Y-61625284D01*
X119122407Y-61826578D01*
X119234841Y-62031744D01*
X119340356Y-62240552D01*
X119438836Y-62452770D01*
X119530169Y-62668159D01*
X119614254Y-62886481D01*
X119690996Y-63107490D01*
X119760311Y-63330940D01*
X119822121Y-63556581D01*
X119876356Y-63784162D01*
X119922956Y-64013428D01*
X119961870Y-64244123D01*
X119993053Y-64475989D01*
X120016471Y-64708768D01*
X120032097Y-64942200D01*
X120039915Y-65176023D01*
X120040400Y-65293000D01*
X120040400Y-65618600D01*
X120039915Y-65735577D01*
X120032097Y-65969400D01*
X120016471Y-66202832D01*
X119993053Y-66435611D01*
X119961870Y-66667477D01*
X119922956Y-66898172D01*
X119876356Y-67127438D01*
X119822121Y-67355019D01*
X119760311Y-67580660D01*
X119690996Y-67804110D01*
X119614254Y-68025119D01*
X119530169Y-68243441D01*
X119438836Y-68458830D01*
X119340356Y-68671048D01*
X119234841Y-68879856D01*
X119122407Y-69085022D01*
X119003180Y-69286316D01*
X118877294Y-69483514D01*
X118744888Y-69676396D01*
X118606111Y-69864745D01*
X118461118Y-70048352D01*
X118310071Y-70227011D01*
X118153138Y-70400524D01*
X117990495Y-70568695D01*
X117822324Y-70731338D01*
X117648811Y-70888271D01*
X117470152Y-71039318D01*
X117286545Y-71184311D01*
X117098196Y-71323088D01*
X116905314Y-71455494D01*
X116708116Y-71581380D01*
X116506822Y-71700607D01*
X116301656Y-71813041D01*
X116092848Y-71918556D01*
X115880630Y-72017036D01*
X115665241Y-72108369D01*
X115446919Y-72192454D01*
X115225910Y-72269196D01*
X115002460Y-72338511D01*
X114776819Y-72400321D01*
X114549238Y-72454556D01*
X114319972Y-72501156D01*
X114089277Y-72540070D01*
X113857411Y-72571253D01*
X113624632Y-72594671D01*
X113391200Y-72610297D01*
X113157377Y-72618115D01*
X113040400Y-72618600D01*
X103393000Y-72618600D01*
X103276023Y-72618115D01*
X103042200Y-72610297D01*
X102808768Y-72594671D01*
X102575989Y-72571253D01*
X102344123Y-72540070D01*
X102113428Y-72501156D01*
X101884162Y-72454556D01*
X101656581Y-72400321D01*
X101430940Y-72338511D01*
X101207490Y-72269196D01*
X100986481Y-72192454D01*
X100768159Y-72108369D01*
X100552770Y-72017036D01*
X100340552Y-71918556D01*
X100131744Y-71813041D01*
X99926578Y-71700607D01*
X99725284Y-71581380D01*
X99528086Y-71455494D01*
X99335204Y-71323088D01*
X99146855Y-71184311D01*
X98963248Y-71039318D01*
X98784589Y-70888271D01*
X98611076Y-70731338D01*
X98442905Y-70568695D01*
X98280262Y-70400524D01*
X98123329Y-70227011D01*
X97972282Y-70048352D01*
X97827289Y-69864745D01*
X97688512Y-69676396D01*
X97556106Y-69483514D01*
X97430220Y-69286316D01*
X97310993Y-69085022D01*
X97198559Y-68879856D01*
X97093044Y-68671048D01*
X96994564Y-68458830D01*
X96903231Y-68243441D01*
X96858990Y-68128572D01*
X118450509Y-68128572D01*
X118458642Y-68185135D01*
X118474741Y-68239964D01*
X118498480Y-68291944D01*
X118529374Y-68340017D01*
X118566796Y-68383204D01*
X118609983Y-68420626D01*
X118658056Y-68451520D01*
X118710036Y-68475259D01*
X118764865Y-68491358D01*
X118821428Y-68499491D01*
X118878572Y-68499491D01*
X118935135Y-68491358D01*
X118989964Y-68475259D01*
X119041944Y-68451520D01*
X119090017Y-68420626D01*
X119133204Y-68383204D01*
X119170626Y-68340017D01*
X119201520Y-68291944D01*
X119225259Y-68239964D01*
X119241358Y-68185135D01*
X119249491Y-68128572D01*
X119250000Y-68100000D01*
X119249491Y-68071428D01*
X119241358Y-68014865D01*
X119225259Y-67960036D01*
X119201520Y-67908056D01*
X119170626Y-67859983D01*
X119133204Y-67816796D01*
X119090017Y-67779374D01*
X119041944Y-67748480D01*
X118989964Y-67724741D01*
X118935135Y-67708642D01*
X118878572Y-67700509D01*
X118821428Y-67700509D01*
X118764865Y-67708642D01*
X118710036Y-67724741D01*
X118658056Y-67748480D01*
X118609983Y-67779374D01*
X118566796Y-67816796D01*
X118529374Y-67859983D01*
X118498480Y-67908056D01*
X118474741Y-67960036D01*
X118458642Y-68014865D01*
X118450509Y-68071428D01*
X118450509Y-68128572D01*
X96858990Y-68128572D01*
X96836982Y-68071428D01*
X96819146Y-68025119D01*
X96742404Y-67804110D01*
X96673089Y-67580660D01*
X96611279Y-67355019D01*
X96557044Y-67127438D01*
X96510444Y-66898172D01*
X96471530Y-66667477D01*
X96440347Y-66435611D01*
X96416929Y-66202832D01*
X96401303Y-65969400D01*
X96393485Y-65735577D01*
X96393000Y-65618600D01*
X96393000Y-65293000D01*
X96393485Y-65176023D01*
X96401303Y-64942200D01*
X96416929Y-64708768D01*
X96440347Y-64475989D01*
X96471530Y-64244123D01*
X96510444Y-64013428D01*
X96557044Y-63784162D01*
X96611279Y-63556581D01*
X96673089Y-63330940D01*
X96742404Y-63107490D01*
X96819146Y-62886481D01*
X96903231Y-62668159D01*
X96994564Y-62452770D01*
X97093044Y-62240552D01*
X97198559Y-62031744D01*
X97310993Y-61826578D01*
X97430220Y-61625284D01*
X97556106Y-61428086D01*
X97688512Y-61235204D01*
X97827289Y-61046855D01*
X97972282Y-60863248D01*
X98123329Y-60684589D01*
X98280262Y-60511076D01*
X98442905Y-60342905D01*
X98611076Y-60180262D01*
X98784589Y-60023329D01*
X98963248Y-59872282D01*
X99146855Y-59727289D01*
X99335204Y-59588512D01*
X99528086Y-59456106D01*
X99725284Y-59330220D01*
X99926578Y-59210993D01*
X99937850Y-59204816D01*
X102510512Y-59204816D01*
X102518682Y-59253772D01*
X102534797Y-59300715D01*
X102558420Y-59344366D01*
X102588905Y-59383533D01*
X102625420Y-59417148D01*
X102666971Y-59444294D01*
X102712423Y-59464231D01*
X102760537Y-59476415D01*
X102810000Y-59480514D01*
X102859463Y-59476415D01*
X102907577Y-59464231D01*
X102953029Y-59444294D01*
X102994580Y-59417148D01*
X103031095Y-59383533D01*
X103061580Y-59344366D01*
X103085203Y-59300715D01*
X103101318Y-59253772D01*
X103109488Y-59204816D01*
X103110000Y-59180000D01*
X103503397Y-59180000D01*
X103507367Y-59229183D01*
X103519176Y-59277091D01*
X103538517Y-59322486D01*
X103564888Y-59364189D01*
X103597609Y-59401123D01*
X103635830Y-59432329D01*
X103678562Y-59457001D01*
X103724698Y-59474498D01*
X103773043Y-59484368D01*
X103822346Y-59486354D01*
X103871328Y-59480407D01*
X103918723Y-59466679D01*
X103963302Y-59445526D01*
X104003910Y-59417496D01*
X104039496Y-59383315D01*
X104069138Y-59343869D01*
X104092068Y-59300178D01*
X104107694Y-59253375D01*
X104115609Y-59204671D01*
X104116105Y-59180000D01*
X104504709Y-59180000D01*
X104508662Y-59228972D01*
X104520420Y-59276676D01*
X104539678Y-59321876D01*
X104565937Y-59363401D01*
X104598517Y-59400177D01*
X104636575Y-59431250D01*
X104679124Y-59455815D01*
X104725063Y-59473238D01*
X104773201Y-59483065D01*
X104822293Y-59485043D01*
X104871066Y-59479121D01*
X104918258Y-59465452D01*
X104962646Y-59444390D01*
X105003080Y-59416480D01*
X105038514Y-59382445D01*
X105068029Y-59343168D01*
X105090861Y-59299664D01*
X105106420Y-59253061D01*
X105114301Y-59204566D01*
X105114795Y-59180000D01*
X105114301Y-59155434D01*
X105106420Y-59106939D01*
X105090861Y-59060336D01*
X105068029Y-59016832D01*
X105038514Y-58977555D01*
X105003080Y-58943520D01*
X104962646Y-58915610D01*
X104918258Y-58894548D01*
X104871066Y-58880879D01*
X104822293Y-58874957D01*
X104773201Y-58876935D01*
X104725063Y-58886762D01*
X104679124Y-58904185D01*
X104636575Y-58928750D01*
X104598517Y-58959823D01*
X104565937Y-58996599D01*
X104539678Y-59038124D01*
X104520420Y-59083324D01*
X104508662Y-59131028D01*
X104504709Y-59180000D01*
X104116105Y-59180000D01*
X104115609Y-59155329D01*
X104107694Y-59106625D01*
X104092068Y-59059822D01*
X104069138Y-59016131D01*
X104039496Y-58976685D01*
X104003910Y-58942504D01*
X103963302Y-58914474D01*
X103918723Y-58893321D01*
X103871328Y-58879593D01*
X103822346Y-58873646D01*
X103773043Y-58875632D01*
X103724698Y-58885502D01*
X103678562Y-58902999D01*
X103635830Y-58927671D01*
X103597609Y-58958877D01*
X103564888Y-58995811D01*
X103538517Y-59037514D01*
X103519176Y-59082909D01*
X103507367Y-59130817D01*
X103503397Y-59180000D01*
X103110000Y-59180000D01*
X103109488Y-59155184D01*
X103101318Y-59106228D01*
X103085203Y-59059285D01*
X103061580Y-59015634D01*
X103031095Y-58976467D01*
X102994580Y-58942852D01*
X102953029Y-58915706D01*
X102907577Y-58895769D01*
X102859463Y-58883585D01*
X102810000Y-58879486D01*
X102760537Y-58883585D01*
X102712423Y-58895769D01*
X102666971Y-58915706D01*
X102625420Y-58942852D01*
X102588905Y-58976467D01*
X102558420Y-59015634D01*
X102534797Y-59059285D01*
X102518682Y-59106228D01*
X102510512Y-59155184D01*
X102510512Y-59204816D01*
X99937850Y-59204816D01*
X100028416Y-59155184D01*
X100131744Y-59098559D01*
X100340552Y-58993044D01*
X100552770Y-58894564D01*
X100768159Y-58803231D01*
X100986481Y-58719146D01*
X101207490Y-58642404D01*
X101430940Y-58573089D01*
X101656581Y-58511279D01*
X101884162Y-58457044D01*
X102113428Y-58410444D01*
X102344123Y-58371530D01*
X102575989Y-58340347D01*
X102808768Y-58316929D01*
X103042200Y-58301303D01*
X103276023Y-58293485D01*
X103393000Y-58293000D01*
X113040400Y-58293000D01*
X113157377Y-58293485D01*
G37*
M02*
