%TF.GenerationSoftware,KiCad,Pcbnew,10.0.4-10.0.4~ubuntu22.04.1*%
%TF.CreationDate,2026-08-12T15:32:19+02:00*%
%TF.ProjectId,patch,70617463-682e-46b6-9963-61645f706362,rev?*%
%TF.SameCoordinates,Original*%
%TF.FileFunction,Legend,Bot*%
%TF.FilePolarity,Positive*%
%FSLAX46Y46*%
G04 Gerber Fmt 4.6, Leading zero omitted, Abs format (unit mm)*
G04 Created by KiCad (PCBNEW 10.0.4-10.0.4~ubuntu22.04.1) date 2026-08-12 15:32:19*
%MOMM*%
%LPD*%
G01*
G04 APERTURE LIST*
%ADD10C,0.150000*%
%ADD11C,0.000000*%
%ADD12C,0.100000*%
%ADD13C,0.120000*%
G04 APERTURE END LIST*
D10*
X147003649Y-76828689D02*
X146603649Y-76828689D01*
X146803649Y-77528689D02*
X146803649Y-76828689D01*
X146370316Y-77528689D02*
X146370316Y-76828689D01*
X146070316Y-77528689D02*
X146070316Y-77162022D01*
X146070316Y-77162022D02*
X146103649Y-77095356D01*
X146103649Y-77095356D02*
X146170316Y-77062022D01*
X146170316Y-77062022D02*
X146270316Y-77062022D01*
X146270316Y-77062022D02*
X146336983Y-77095356D01*
X146336983Y-77095356D02*
X146370316Y-77128689D01*
X145470316Y-77495356D02*
X145536983Y-77528689D01*
X145536983Y-77528689D02*
X145670316Y-77528689D01*
X145670316Y-77528689D02*
X145736983Y-77495356D01*
X145736983Y-77495356D02*
X145770316Y-77428689D01*
X145770316Y-77428689D02*
X145770316Y-77162022D01*
X145770316Y-77162022D02*
X145736983Y-77095356D01*
X145736983Y-77095356D02*
X145670316Y-77062022D01*
X145670316Y-77062022D02*
X145536983Y-77062022D01*
X145536983Y-77062022D02*
X145470316Y-77095356D01*
X145470316Y-77095356D02*
X145436983Y-77162022D01*
X145436983Y-77162022D02*
X145436983Y-77228689D01*
X145436983Y-77228689D02*
X145770316Y-77295356D01*
X144703650Y-76828689D02*
X144470317Y-77528689D01*
X144470317Y-77528689D02*
X144236983Y-76828689D01*
X143603650Y-77462022D02*
X143636983Y-77495356D01*
X143636983Y-77495356D02*
X143736983Y-77528689D01*
X143736983Y-77528689D02*
X143803650Y-77528689D01*
X143803650Y-77528689D02*
X143903650Y-77495356D01*
X143903650Y-77495356D02*
X143970317Y-77428689D01*
X143970317Y-77428689D02*
X144003650Y-77362022D01*
X144003650Y-77362022D02*
X144036983Y-77228689D01*
X144036983Y-77228689D02*
X144036983Y-77128689D01*
X144036983Y-77128689D02*
X144003650Y-76995356D01*
X144003650Y-76995356D02*
X143970317Y-76928689D01*
X143970317Y-76928689D02*
X143903650Y-76862022D01*
X143903650Y-76862022D02*
X143803650Y-76828689D01*
X143803650Y-76828689D02*
X143736983Y-76828689D01*
X143736983Y-76828689D02*
X143636983Y-76862022D01*
X143636983Y-76862022D02*
X143603650Y-76895356D01*
X143170317Y-76828689D02*
X143036983Y-76828689D01*
X143036983Y-76828689D02*
X142970317Y-76862022D01*
X142970317Y-76862022D02*
X142903650Y-76928689D01*
X142903650Y-76928689D02*
X142870317Y-77062022D01*
X142870317Y-77062022D02*
X142870317Y-77295356D01*
X142870317Y-77295356D02*
X142903650Y-77428689D01*
X142903650Y-77428689D02*
X142970317Y-77495356D01*
X142970317Y-77495356D02*
X143036983Y-77528689D01*
X143036983Y-77528689D02*
X143170317Y-77528689D01*
X143170317Y-77528689D02*
X143236983Y-77495356D01*
X143236983Y-77495356D02*
X143303650Y-77428689D01*
X143303650Y-77428689D02*
X143336983Y-77295356D01*
X143336983Y-77295356D02*
X143336983Y-77062022D01*
X143336983Y-77062022D02*
X143303650Y-76928689D01*
X143303650Y-76928689D02*
X143236983Y-76862022D01*
X143236983Y-76862022D02*
X143170317Y-76828689D01*
X142036984Y-77528689D02*
X142036984Y-76828689D01*
X142036984Y-76828689D02*
X141770317Y-76828689D01*
X141770317Y-76828689D02*
X141703651Y-76862022D01*
X141703651Y-76862022D02*
X141670317Y-76895356D01*
X141670317Y-76895356D02*
X141636984Y-76962022D01*
X141636984Y-76962022D02*
X141636984Y-77062022D01*
X141636984Y-77062022D02*
X141670317Y-77128689D01*
X141670317Y-77128689D02*
X141703651Y-77162022D01*
X141703651Y-77162022D02*
X141770317Y-77195356D01*
X141770317Y-77195356D02*
X142036984Y-77195356D01*
X140803651Y-77528689D02*
X140803651Y-77062022D01*
X140803651Y-77195356D02*
X140770318Y-77128689D01*
X140770318Y-77128689D02*
X140736984Y-77095356D01*
X140736984Y-77095356D02*
X140670318Y-77062022D01*
X140670318Y-77062022D02*
X140603651Y-77062022D01*
X140103651Y-77495356D02*
X140170318Y-77528689D01*
X140170318Y-77528689D02*
X140303651Y-77528689D01*
X140303651Y-77528689D02*
X140370318Y-77495356D01*
X140370318Y-77495356D02*
X140403651Y-77428689D01*
X140403651Y-77428689D02*
X140403651Y-77162022D01*
X140403651Y-77162022D02*
X140370318Y-77095356D01*
X140370318Y-77095356D02*
X140303651Y-77062022D01*
X140303651Y-77062022D02*
X140170318Y-77062022D01*
X140170318Y-77062022D02*
X140103651Y-77095356D01*
X140103651Y-77095356D02*
X140070318Y-77162022D01*
X140070318Y-77162022D02*
X140070318Y-77228689D01*
X140070318Y-77228689D02*
X140403651Y-77295356D01*
X139470318Y-77528689D02*
X139470318Y-77162022D01*
X139470318Y-77162022D02*
X139503651Y-77095356D01*
X139503651Y-77095356D02*
X139570318Y-77062022D01*
X139570318Y-77062022D02*
X139703651Y-77062022D01*
X139703651Y-77062022D02*
X139770318Y-77095356D01*
X139470318Y-77495356D02*
X139536985Y-77528689D01*
X139536985Y-77528689D02*
X139703651Y-77528689D01*
X139703651Y-77528689D02*
X139770318Y-77495356D01*
X139770318Y-77495356D02*
X139803651Y-77428689D01*
X139803651Y-77428689D02*
X139803651Y-77362022D01*
X139803651Y-77362022D02*
X139770318Y-77295356D01*
X139770318Y-77295356D02*
X139703651Y-77262022D01*
X139703651Y-77262022D02*
X139536985Y-77262022D01*
X139536985Y-77262022D02*
X139470318Y-77228689D01*
X138836985Y-77528689D02*
X138836985Y-76828689D01*
X138836985Y-77495356D02*
X138903652Y-77528689D01*
X138903652Y-77528689D02*
X139036985Y-77528689D01*
X139036985Y-77528689D02*
X139103652Y-77495356D01*
X139103652Y-77495356D02*
X139136985Y-77462022D01*
X139136985Y-77462022D02*
X139170318Y-77395356D01*
X139170318Y-77395356D02*
X139170318Y-77195356D01*
X139170318Y-77195356D02*
X139136985Y-77128689D01*
X139136985Y-77128689D02*
X139103652Y-77095356D01*
X139103652Y-77095356D02*
X139036985Y-77062022D01*
X139036985Y-77062022D02*
X138903652Y-77062022D01*
X138903652Y-77062022D02*
X138836985Y-77095356D01*
X138536985Y-77495356D02*
X138470319Y-77528689D01*
X138470319Y-77528689D02*
X138336985Y-77528689D01*
X138336985Y-77528689D02*
X138270319Y-77495356D01*
X138270319Y-77495356D02*
X138236985Y-77428689D01*
X138236985Y-77428689D02*
X138236985Y-77395356D01*
X138236985Y-77395356D02*
X138270319Y-77328689D01*
X138270319Y-77328689D02*
X138336985Y-77295356D01*
X138336985Y-77295356D02*
X138436985Y-77295356D01*
X138436985Y-77295356D02*
X138503652Y-77262022D01*
X138503652Y-77262022D02*
X138536985Y-77195356D01*
X138536985Y-77195356D02*
X138536985Y-77162022D01*
X138536985Y-77162022D02*
X138503652Y-77095356D01*
X138503652Y-77095356D02*
X138436985Y-77062022D01*
X138436985Y-77062022D02*
X138336985Y-77062022D01*
X138336985Y-77062022D02*
X138270319Y-77095356D01*
X137503652Y-77062022D02*
X137236985Y-77062022D01*
X137403652Y-76828689D02*
X137403652Y-77428689D01*
X137403652Y-77428689D02*
X137370319Y-77495356D01*
X137370319Y-77495356D02*
X137303652Y-77528689D01*
X137303652Y-77528689D02*
X137236985Y-77528689D01*
X137003652Y-77528689D02*
X137003652Y-76828689D01*
X136703652Y-77528689D02*
X136703652Y-77162022D01*
X136703652Y-77162022D02*
X136736985Y-77095356D01*
X136736985Y-77095356D02*
X136803652Y-77062022D01*
X136803652Y-77062022D02*
X136903652Y-77062022D01*
X136903652Y-77062022D02*
X136970319Y-77095356D01*
X136970319Y-77095356D02*
X137003652Y-77128689D01*
X136103652Y-77495356D02*
X136170319Y-77528689D01*
X136170319Y-77528689D02*
X136303652Y-77528689D01*
X136303652Y-77528689D02*
X136370319Y-77495356D01*
X136370319Y-77495356D02*
X136403652Y-77428689D01*
X136403652Y-77428689D02*
X136403652Y-77162022D01*
X136403652Y-77162022D02*
X136370319Y-77095356D01*
X136370319Y-77095356D02*
X136303652Y-77062022D01*
X136303652Y-77062022D02*
X136170319Y-77062022D01*
X136170319Y-77062022D02*
X136103652Y-77095356D01*
X136103652Y-77095356D02*
X136070319Y-77162022D01*
X136070319Y-77162022D02*
X136070319Y-77228689D01*
X136070319Y-77228689D02*
X136403652Y-77295356D01*
X135236986Y-77528689D02*
X135236986Y-76828689D01*
X135236986Y-77095356D02*
X135170319Y-77062022D01*
X135170319Y-77062022D02*
X135036986Y-77062022D01*
X135036986Y-77062022D02*
X134970319Y-77095356D01*
X134970319Y-77095356D02*
X134936986Y-77128689D01*
X134936986Y-77128689D02*
X134903653Y-77195356D01*
X134903653Y-77195356D02*
X134903653Y-77395356D01*
X134903653Y-77395356D02*
X134936986Y-77462022D01*
X134936986Y-77462022D02*
X134970319Y-77495356D01*
X134970319Y-77495356D02*
X135036986Y-77528689D01*
X135036986Y-77528689D02*
X135170319Y-77528689D01*
X135170319Y-77528689D02*
X135236986Y-77495356D01*
X134303653Y-77528689D02*
X134303653Y-77162022D01*
X134303653Y-77162022D02*
X134336986Y-77095356D01*
X134336986Y-77095356D02*
X134403653Y-77062022D01*
X134403653Y-77062022D02*
X134536986Y-77062022D01*
X134536986Y-77062022D02*
X134603653Y-77095356D01*
X134303653Y-77495356D02*
X134370320Y-77528689D01*
X134370320Y-77528689D02*
X134536986Y-77528689D01*
X134536986Y-77528689D02*
X134603653Y-77495356D01*
X134603653Y-77495356D02*
X134636986Y-77428689D01*
X134636986Y-77428689D02*
X134636986Y-77362022D01*
X134636986Y-77362022D02*
X134603653Y-77295356D01*
X134603653Y-77295356D02*
X134536986Y-77262022D01*
X134536986Y-77262022D02*
X134370320Y-77262022D01*
X134370320Y-77262022D02*
X134303653Y-77228689D01*
X134070320Y-77062022D02*
X133803653Y-77062022D01*
X133970320Y-76828689D02*
X133970320Y-77428689D01*
X133970320Y-77428689D02*
X133936987Y-77495356D01*
X133936987Y-77495356D02*
X133870320Y-77528689D01*
X133870320Y-77528689D02*
X133803653Y-77528689D01*
X133670320Y-77062022D02*
X133403653Y-77062022D01*
X133570320Y-76828689D02*
X133570320Y-77428689D01*
X133570320Y-77428689D02*
X133536987Y-77495356D01*
X133536987Y-77495356D02*
X133470320Y-77528689D01*
X133470320Y-77528689D02*
X133403653Y-77528689D01*
X132903653Y-77495356D02*
X132970320Y-77528689D01*
X132970320Y-77528689D02*
X133103653Y-77528689D01*
X133103653Y-77528689D02*
X133170320Y-77495356D01*
X133170320Y-77495356D02*
X133203653Y-77428689D01*
X133203653Y-77428689D02*
X133203653Y-77162022D01*
X133203653Y-77162022D02*
X133170320Y-77095356D01*
X133170320Y-77095356D02*
X133103653Y-77062022D01*
X133103653Y-77062022D02*
X132970320Y-77062022D01*
X132970320Y-77062022D02*
X132903653Y-77095356D01*
X132903653Y-77095356D02*
X132870320Y-77162022D01*
X132870320Y-77162022D02*
X132870320Y-77228689D01*
X132870320Y-77228689D02*
X133203653Y-77295356D01*
X132570320Y-77528689D02*
X132570320Y-77062022D01*
X132570320Y-77195356D02*
X132536987Y-77128689D01*
X132536987Y-77128689D02*
X132503653Y-77095356D01*
X132503653Y-77095356D02*
X132436987Y-77062022D01*
X132436987Y-77062022D02*
X132370320Y-77062022D01*
X132203654Y-77062022D02*
X132036987Y-77528689D01*
X131870320Y-77062022D02*
X132036987Y-77528689D01*
X132036987Y-77528689D02*
X132103654Y-77695356D01*
X132103654Y-77695356D02*
X132136987Y-77728689D01*
X132136987Y-77728689D02*
X132203654Y-77762022D01*
X130970321Y-77528689D02*
X131036988Y-77495356D01*
X131036988Y-77495356D02*
X131070321Y-77428689D01*
X131070321Y-77428689D02*
X131070321Y-76828689D01*
X130436987Y-77495356D02*
X130503654Y-77528689D01*
X130503654Y-77528689D02*
X130636987Y-77528689D01*
X130636987Y-77528689D02*
X130703654Y-77495356D01*
X130703654Y-77495356D02*
X130736987Y-77428689D01*
X130736987Y-77428689D02*
X130736987Y-77162022D01*
X130736987Y-77162022D02*
X130703654Y-77095356D01*
X130703654Y-77095356D02*
X130636987Y-77062022D01*
X130636987Y-77062022D02*
X130503654Y-77062022D01*
X130503654Y-77062022D02*
X130436987Y-77095356D01*
X130436987Y-77095356D02*
X130403654Y-77162022D01*
X130403654Y-77162022D02*
X130403654Y-77228689D01*
X130403654Y-77228689D02*
X130736987Y-77295356D01*
X130170321Y-77062022D02*
X130003654Y-77528689D01*
X130003654Y-77528689D02*
X129836987Y-77062022D01*
X129303654Y-77495356D02*
X129370321Y-77528689D01*
X129370321Y-77528689D02*
X129503654Y-77528689D01*
X129503654Y-77528689D02*
X129570321Y-77495356D01*
X129570321Y-77495356D02*
X129603654Y-77428689D01*
X129603654Y-77428689D02*
X129603654Y-77162022D01*
X129603654Y-77162022D02*
X129570321Y-77095356D01*
X129570321Y-77095356D02*
X129503654Y-77062022D01*
X129503654Y-77062022D02*
X129370321Y-77062022D01*
X129370321Y-77062022D02*
X129303654Y-77095356D01*
X129303654Y-77095356D02*
X129270321Y-77162022D01*
X129270321Y-77162022D02*
X129270321Y-77228689D01*
X129270321Y-77228689D02*
X129603654Y-77295356D01*
X128870321Y-77528689D02*
X128936988Y-77495356D01*
X128936988Y-77495356D02*
X128970321Y-77428689D01*
X128970321Y-77428689D02*
X128970321Y-76828689D01*
X128170321Y-77062022D02*
X127903654Y-77062022D01*
X128070321Y-76828689D02*
X128070321Y-77428689D01*
X128070321Y-77428689D02*
X128036988Y-77495356D01*
X128036988Y-77495356D02*
X127970321Y-77528689D01*
X127970321Y-77528689D02*
X127903654Y-77528689D01*
X127570321Y-77528689D02*
X127636988Y-77495356D01*
X127636988Y-77495356D02*
X127670321Y-77462022D01*
X127670321Y-77462022D02*
X127703654Y-77395356D01*
X127703654Y-77395356D02*
X127703654Y-77195356D01*
X127703654Y-77195356D02*
X127670321Y-77128689D01*
X127670321Y-77128689D02*
X127636988Y-77095356D01*
X127636988Y-77095356D02*
X127570321Y-77062022D01*
X127570321Y-77062022D02*
X127470321Y-77062022D01*
X127470321Y-77062022D02*
X127403654Y-77095356D01*
X127403654Y-77095356D02*
X127370321Y-77128689D01*
X127370321Y-77128689D02*
X127336988Y-77195356D01*
X127336988Y-77195356D02*
X127336988Y-77395356D01*
X127336988Y-77395356D02*
X127370321Y-77462022D01*
X127370321Y-77462022D02*
X127403654Y-77495356D01*
X127403654Y-77495356D02*
X127470321Y-77528689D01*
X127470321Y-77528689D02*
X127570321Y-77528689D01*
X127036988Y-77462022D02*
X127003655Y-77495356D01*
X127003655Y-77495356D02*
X127036988Y-77528689D01*
X127036988Y-77528689D02*
X127070321Y-77495356D01*
X127070321Y-77495356D02*
X127036988Y-77462022D01*
X127036988Y-77462022D02*
X127036988Y-77528689D01*
X127036988Y-77095356D02*
X127003655Y-77128689D01*
X127003655Y-77128689D02*
X127036988Y-77162022D01*
X127036988Y-77162022D02*
X127070321Y-77128689D01*
X127070321Y-77128689D02*
X127036988Y-77095356D01*
X127036988Y-77095356D02*
X127036988Y-77162022D01*
X146903649Y-78388983D02*
X146370316Y-78388983D01*
X145503649Y-78655650D02*
X145503649Y-78188983D01*
X145503649Y-78255650D02*
X145470316Y-78222317D01*
X145470316Y-78222317D02*
X145403649Y-78188983D01*
X145403649Y-78188983D02*
X145303649Y-78188983D01*
X145303649Y-78188983D02*
X145236982Y-78222317D01*
X145236982Y-78222317D02*
X145203649Y-78288983D01*
X145203649Y-78288983D02*
X145203649Y-78655650D01*
X145203649Y-78288983D02*
X145170316Y-78222317D01*
X145170316Y-78222317D02*
X145103649Y-78188983D01*
X145103649Y-78188983D02*
X145003649Y-78188983D01*
X145003649Y-78188983D02*
X144936982Y-78222317D01*
X144936982Y-78222317D02*
X144903649Y-78288983D01*
X144903649Y-78288983D02*
X144903649Y-78655650D01*
X144470316Y-78655650D02*
X144536983Y-78622317D01*
X144536983Y-78622317D02*
X144570316Y-78588983D01*
X144570316Y-78588983D02*
X144603649Y-78522317D01*
X144603649Y-78522317D02*
X144603649Y-78322317D01*
X144603649Y-78322317D02*
X144570316Y-78255650D01*
X144570316Y-78255650D02*
X144536983Y-78222317D01*
X144536983Y-78222317D02*
X144470316Y-78188983D01*
X144470316Y-78188983D02*
X144370316Y-78188983D01*
X144370316Y-78188983D02*
X144303649Y-78222317D01*
X144303649Y-78222317D02*
X144270316Y-78255650D01*
X144270316Y-78255650D02*
X144236983Y-78322317D01*
X144236983Y-78322317D02*
X144236983Y-78522317D01*
X144236983Y-78522317D02*
X144270316Y-78588983D01*
X144270316Y-78588983D02*
X144303649Y-78622317D01*
X144303649Y-78622317D02*
X144370316Y-78655650D01*
X144370316Y-78655650D02*
X144470316Y-78655650D01*
X143936983Y-78188983D02*
X143936983Y-78655650D01*
X143936983Y-78255650D02*
X143903650Y-78222317D01*
X143903650Y-78222317D02*
X143836983Y-78188983D01*
X143836983Y-78188983D02*
X143736983Y-78188983D01*
X143736983Y-78188983D02*
X143670316Y-78222317D01*
X143670316Y-78222317D02*
X143636983Y-78288983D01*
X143636983Y-78288983D02*
X143636983Y-78655650D01*
X143303650Y-78655650D02*
X143303650Y-78188983D01*
X143303650Y-77955650D02*
X143336983Y-77988983D01*
X143336983Y-77988983D02*
X143303650Y-78022317D01*
X143303650Y-78022317D02*
X143270317Y-77988983D01*
X143270317Y-77988983D02*
X143303650Y-77955650D01*
X143303650Y-77955650D02*
X143303650Y-78022317D01*
X143070317Y-78188983D02*
X142803650Y-78188983D01*
X142970317Y-77955650D02*
X142970317Y-78555650D01*
X142970317Y-78555650D02*
X142936984Y-78622317D01*
X142936984Y-78622317D02*
X142870317Y-78655650D01*
X142870317Y-78655650D02*
X142803650Y-78655650D01*
X142470317Y-78655650D02*
X142536984Y-78622317D01*
X142536984Y-78622317D02*
X142570317Y-78588983D01*
X142570317Y-78588983D02*
X142603650Y-78522317D01*
X142603650Y-78522317D02*
X142603650Y-78322317D01*
X142603650Y-78322317D02*
X142570317Y-78255650D01*
X142570317Y-78255650D02*
X142536984Y-78222317D01*
X142536984Y-78222317D02*
X142470317Y-78188983D01*
X142470317Y-78188983D02*
X142370317Y-78188983D01*
X142370317Y-78188983D02*
X142303650Y-78222317D01*
X142303650Y-78222317D02*
X142270317Y-78255650D01*
X142270317Y-78255650D02*
X142236984Y-78322317D01*
X142236984Y-78322317D02*
X142236984Y-78522317D01*
X142236984Y-78522317D02*
X142270317Y-78588983D01*
X142270317Y-78588983D02*
X142303650Y-78622317D01*
X142303650Y-78622317D02*
X142370317Y-78655650D01*
X142370317Y-78655650D02*
X142470317Y-78655650D01*
X141936984Y-78655650D02*
X141936984Y-78188983D01*
X141936984Y-78322317D02*
X141903651Y-78255650D01*
X141903651Y-78255650D02*
X141870317Y-78222317D01*
X141870317Y-78222317D02*
X141803651Y-78188983D01*
X141803651Y-78188983D02*
X141736984Y-78188983D01*
X140970318Y-78655650D02*
X140970318Y-77955650D01*
X140970318Y-78222317D02*
X140903651Y-78188983D01*
X140903651Y-78188983D02*
X140770318Y-78188983D01*
X140770318Y-78188983D02*
X140703651Y-78222317D01*
X140703651Y-78222317D02*
X140670318Y-78255650D01*
X140670318Y-78255650D02*
X140636985Y-78322317D01*
X140636985Y-78322317D02*
X140636985Y-78522317D01*
X140636985Y-78522317D02*
X140670318Y-78588983D01*
X140670318Y-78588983D02*
X140703651Y-78622317D01*
X140703651Y-78622317D02*
X140770318Y-78655650D01*
X140770318Y-78655650D02*
X140903651Y-78655650D01*
X140903651Y-78655650D02*
X140970318Y-78622317D01*
X140036985Y-78655650D02*
X140036985Y-78288983D01*
X140036985Y-78288983D02*
X140070318Y-78222317D01*
X140070318Y-78222317D02*
X140136985Y-78188983D01*
X140136985Y-78188983D02*
X140270318Y-78188983D01*
X140270318Y-78188983D02*
X140336985Y-78222317D01*
X140036985Y-78622317D02*
X140103652Y-78655650D01*
X140103652Y-78655650D02*
X140270318Y-78655650D01*
X140270318Y-78655650D02*
X140336985Y-78622317D01*
X140336985Y-78622317D02*
X140370318Y-78555650D01*
X140370318Y-78555650D02*
X140370318Y-78488983D01*
X140370318Y-78488983D02*
X140336985Y-78422317D01*
X140336985Y-78422317D02*
X140270318Y-78388983D01*
X140270318Y-78388983D02*
X140103652Y-78388983D01*
X140103652Y-78388983D02*
X140036985Y-78355650D01*
X139803652Y-78188983D02*
X139536985Y-78188983D01*
X139703652Y-77955650D02*
X139703652Y-78555650D01*
X139703652Y-78555650D02*
X139670319Y-78622317D01*
X139670319Y-78622317D02*
X139603652Y-78655650D01*
X139603652Y-78655650D02*
X139536985Y-78655650D01*
X139403652Y-78188983D02*
X139136985Y-78188983D01*
X139303652Y-77955650D02*
X139303652Y-78555650D01*
X139303652Y-78555650D02*
X139270319Y-78622317D01*
X139270319Y-78622317D02*
X139203652Y-78655650D01*
X139203652Y-78655650D02*
X139136985Y-78655650D01*
X138636985Y-78622317D02*
X138703652Y-78655650D01*
X138703652Y-78655650D02*
X138836985Y-78655650D01*
X138836985Y-78655650D02*
X138903652Y-78622317D01*
X138903652Y-78622317D02*
X138936985Y-78555650D01*
X138936985Y-78555650D02*
X138936985Y-78288983D01*
X138936985Y-78288983D02*
X138903652Y-78222317D01*
X138903652Y-78222317D02*
X138836985Y-78188983D01*
X138836985Y-78188983D02*
X138703652Y-78188983D01*
X138703652Y-78188983D02*
X138636985Y-78222317D01*
X138636985Y-78222317D02*
X138603652Y-78288983D01*
X138603652Y-78288983D02*
X138603652Y-78355650D01*
X138603652Y-78355650D02*
X138936985Y-78422317D01*
X138303652Y-78655650D02*
X138303652Y-78188983D01*
X138303652Y-78322317D02*
X138270319Y-78255650D01*
X138270319Y-78255650D02*
X138236985Y-78222317D01*
X138236985Y-78222317D02*
X138170319Y-78188983D01*
X138170319Y-78188983D02*
X138103652Y-78188983D01*
X137936986Y-78188983D02*
X137770319Y-78655650D01*
X137603652Y-78188983D02*
X137770319Y-78655650D01*
X137770319Y-78655650D02*
X137836986Y-78822317D01*
X137836986Y-78822317D02*
X137870319Y-78855650D01*
X137870319Y-78855650D02*
X137936986Y-78888983D01*
X136503653Y-78622317D02*
X136570320Y-78655650D01*
X136570320Y-78655650D02*
X136703653Y-78655650D01*
X136703653Y-78655650D02*
X136770320Y-78622317D01*
X136770320Y-78622317D02*
X136803653Y-78588983D01*
X136803653Y-78588983D02*
X136836986Y-78522317D01*
X136836986Y-78522317D02*
X136836986Y-78322317D01*
X136836986Y-78322317D02*
X136803653Y-78255650D01*
X136803653Y-78255650D02*
X136770320Y-78222317D01*
X136770320Y-78222317D02*
X136703653Y-78188983D01*
X136703653Y-78188983D02*
X136570320Y-78188983D01*
X136570320Y-78188983D02*
X136503653Y-78222317D01*
X136203653Y-78655650D02*
X136203653Y-77955650D01*
X135903653Y-78655650D02*
X135903653Y-78288983D01*
X135903653Y-78288983D02*
X135936986Y-78222317D01*
X135936986Y-78222317D02*
X136003653Y-78188983D01*
X136003653Y-78188983D02*
X136103653Y-78188983D01*
X136103653Y-78188983D02*
X136170320Y-78222317D01*
X136170320Y-78222317D02*
X136203653Y-78255650D01*
X135270320Y-78655650D02*
X135270320Y-78288983D01*
X135270320Y-78288983D02*
X135303653Y-78222317D01*
X135303653Y-78222317D02*
X135370320Y-78188983D01*
X135370320Y-78188983D02*
X135503653Y-78188983D01*
X135503653Y-78188983D02*
X135570320Y-78222317D01*
X135270320Y-78622317D02*
X135336987Y-78655650D01*
X135336987Y-78655650D02*
X135503653Y-78655650D01*
X135503653Y-78655650D02*
X135570320Y-78622317D01*
X135570320Y-78622317D02*
X135603653Y-78555650D01*
X135603653Y-78555650D02*
X135603653Y-78488983D01*
X135603653Y-78488983D02*
X135570320Y-78422317D01*
X135570320Y-78422317D02*
X135503653Y-78388983D01*
X135503653Y-78388983D02*
X135336987Y-78388983D01*
X135336987Y-78388983D02*
X135270320Y-78355650D01*
X134936987Y-78655650D02*
X134936987Y-78188983D01*
X134936987Y-78322317D02*
X134903654Y-78255650D01*
X134903654Y-78255650D02*
X134870320Y-78222317D01*
X134870320Y-78222317D02*
X134803654Y-78188983D01*
X134803654Y-78188983D02*
X134736987Y-78188983D01*
X134203654Y-78188983D02*
X134203654Y-78755650D01*
X134203654Y-78755650D02*
X134236987Y-78822317D01*
X134236987Y-78822317D02*
X134270321Y-78855650D01*
X134270321Y-78855650D02*
X134336987Y-78888983D01*
X134336987Y-78888983D02*
X134436987Y-78888983D01*
X134436987Y-78888983D02*
X134503654Y-78855650D01*
X134203654Y-78622317D02*
X134270321Y-78655650D01*
X134270321Y-78655650D02*
X134403654Y-78655650D01*
X134403654Y-78655650D02*
X134470321Y-78622317D01*
X134470321Y-78622317D02*
X134503654Y-78588983D01*
X134503654Y-78588983D02*
X134536987Y-78522317D01*
X134536987Y-78522317D02*
X134536987Y-78322317D01*
X134536987Y-78322317D02*
X134503654Y-78255650D01*
X134503654Y-78255650D02*
X134470321Y-78222317D01*
X134470321Y-78222317D02*
X134403654Y-78188983D01*
X134403654Y-78188983D02*
X134270321Y-78188983D01*
X134270321Y-78188983D02*
X134203654Y-78222317D01*
X133603654Y-78622317D02*
X133670321Y-78655650D01*
X133670321Y-78655650D02*
X133803654Y-78655650D01*
X133803654Y-78655650D02*
X133870321Y-78622317D01*
X133870321Y-78622317D02*
X133903654Y-78555650D01*
X133903654Y-78555650D02*
X133903654Y-78288983D01*
X133903654Y-78288983D02*
X133870321Y-78222317D01*
X133870321Y-78222317D02*
X133803654Y-78188983D01*
X133803654Y-78188983D02*
X133670321Y-78188983D01*
X133670321Y-78188983D02*
X133603654Y-78222317D01*
X133603654Y-78222317D02*
X133570321Y-78288983D01*
X133570321Y-78288983D02*
X133570321Y-78355650D01*
X133570321Y-78355650D02*
X133903654Y-78422317D01*
X146903649Y-79515944D02*
X146370316Y-79515944D01*
X145203649Y-79315944D02*
X145203649Y-79882611D01*
X145203649Y-79882611D02*
X145236982Y-79949278D01*
X145236982Y-79949278D02*
X145270316Y-79982611D01*
X145270316Y-79982611D02*
X145336982Y-80015944D01*
X145336982Y-80015944D02*
X145436982Y-80015944D01*
X145436982Y-80015944D02*
X145503649Y-79982611D01*
X145203649Y-79749278D02*
X145270316Y-79782611D01*
X145270316Y-79782611D02*
X145403649Y-79782611D01*
X145403649Y-79782611D02*
X145470316Y-79749278D01*
X145470316Y-79749278D02*
X145503649Y-79715944D01*
X145503649Y-79715944D02*
X145536982Y-79649278D01*
X145536982Y-79649278D02*
X145536982Y-79449278D01*
X145536982Y-79449278D02*
X145503649Y-79382611D01*
X145503649Y-79382611D02*
X145470316Y-79349278D01*
X145470316Y-79349278D02*
X145403649Y-79315944D01*
X145403649Y-79315944D02*
X145270316Y-79315944D01*
X145270316Y-79315944D02*
X145203649Y-79349278D01*
X144603649Y-79749278D02*
X144670316Y-79782611D01*
X144670316Y-79782611D02*
X144803649Y-79782611D01*
X144803649Y-79782611D02*
X144870316Y-79749278D01*
X144870316Y-79749278D02*
X144903649Y-79682611D01*
X144903649Y-79682611D02*
X144903649Y-79415944D01*
X144903649Y-79415944D02*
X144870316Y-79349278D01*
X144870316Y-79349278D02*
X144803649Y-79315944D01*
X144803649Y-79315944D02*
X144670316Y-79315944D01*
X144670316Y-79315944D02*
X144603649Y-79349278D01*
X144603649Y-79349278D02*
X144570316Y-79415944D01*
X144570316Y-79415944D02*
X144570316Y-79482611D01*
X144570316Y-79482611D02*
X144903649Y-79549278D01*
X144270316Y-79315944D02*
X144270316Y-79782611D01*
X144270316Y-79382611D02*
X144236983Y-79349278D01*
X144236983Y-79349278D02*
X144170316Y-79315944D01*
X144170316Y-79315944D02*
X144070316Y-79315944D01*
X144070316Y-79315944D02*
X144003649Y-79349278D01*
X144003649Y-79349278D02*
X143970316Y-79415944D01*
X143970316Y-79415944D02*
X143970316Y-79782611D01*
X143370316Y-79749278D02*
X143436983Y-79782611D01*
X143436983Y-79782611D02*
X143570316Y-79782611D01*
X143570316Y-79782611D02*
X143636983Y-79749278D01*
X143636983Y-79749278D02*
X143670316Y-79682611D01*
X143670316Y-79682611D02*
X143670316Y-79415944D01*
X143670316Y-79415944D02*
X143636983Y-79349278D01*
X143636983Y-79349278D02*
X143570316Y-79315944D01*
X143570316Y-79315944D02*
X143436983Y-79315944D01*
X143436983Y-79315944D02*
X143370316Y-79349278D01*
X143370316Y-79349278D02*
X143336983Y-79415944D01*
X143336983Y-79415944D02*
X143336983Y-79482611D01*
X143336983Y-79482611D02*
X143670316Y-79549278D01*
X143036983Y-79782611D02*
X143036983Y-79315944D01*
X143036983Y-79449278D02*
X143003650Y-79382611D01*
X143003650Y-79382611D02*
X142970316Y-79349278D01*
X142970316Y-79349278D02*
X142903650Y-79315944D01*
X142903650Y-79315944D02*
X142836983Y-79315944D01*
X142303650Y-79782611D02*
X142303650Y-79415944D01*
X142303650Y-79415944D02*
X142336983Y-79349278D01*
X142336983Y-79349278D02*
X142403650Y-79315944D01*
X142403650Y-79315944D02*
X142536983Y-79315944D01*
X142536983Y-79315944D02*
X142603650Y-79349278D01*
X142303650Y-79749278D02*
X142370317Y-79782611D01*
X142370317Y-79782611D02*
X142536983Y-79782611D01*
X142536983Y-79782611D02*
X142603650Y-79749278D01*
X142603650Y-79749278D02*
X142636983Y-79682611D01*
X142636983Y-79682611D02*
X142636983Y-79615944D01*
X142636983Y-79615944D02*
X142603650Y-79549278D01*
X142603650Y-79549278D02*
X142536983Y-79515944D01*
X142536983Y-79515944D02*
X142370317Y-79515944D01*
X142370317Y-79515944D02*
X142303650Y-79482611D01*
X142070317Y-79315944D02*
X141803650Y-79315944D01*
X141970317Y-79082611D02*
X141970317Y-79682611D01*
X141970317Y-79682611D02*
X141936984Y-79749278D01*
X141936984Y-79749278D02*
X141870317Y-79782611D01*
X141870317Y-79782611D02*
X141803650Y-79782611D01*
X141303650Y-79749278D02*
X141370317Y-79782611D01*
X141370317Y-79782611D02*
X141503650Y-79782611D01*
X141503650Y-79782611D02*
X141570317Y-79749278D01*
X141570317Y-79749278D02*
X141603650Y-79682611D01*
X141603650Y-79682611D02*
X141603650Y-79415944D01*
X141603650Y-79415944D02*
X141570317Y-79349278D01*
X141570317Y-79349278D02*
X141503650Y-79315944D01*
X141503650Y-79315944D02*
X141370317Y-79315944D01*
X141370317Y-79315944D02*
X141303650Y-79349278D01*
X141303650Y-79349278D02*
X141270317Y-79415944D01*
X141270317Y-79415944D02*
X141270317Y-79482611D01*
X141270317Y-79482611D02*
X141603650Y-79549278D01*
X140536984Y-79315944D02*
X140270317Y-79315944D01*
X140436984Y-79082611D02*
X140436984Y-79682611D01*
X140436984Y-79682611D02*
X140403651Y-79749278D01*
X140403651Y-79749278D02*
X140336984Y-79782611D01*
X140336984Y-79782611D02*
X140270317Y-79782611D01*
X140036984Y-79782611D02*
X140036984Y-79082611D01*
X139736984Y-79782611D02*
X139736984Y-79415944D01*
X139736984Y-79415944D02*
X139770317Y-79349278D01*
X139770317Y-79349278D02*
X139836984Y-79315944D01*
X139836984Y-79315944D02*
X139936984Y-79315944D01*
X139936984Y-79315944D02*
X140003651Y-79349278D01*
X140003651Y-79349278D02*
X140036984Y-79382611D01*
X139136984Y-79749278D02*
X139203651Y-79782611D01*
X139203651Y-79782611D02*
X139336984Y-79782611D01*
X139336984Y-79782611D02*
X139403651Y-79749278D01*
X139403651Y-79749278D02*
X139436984Y-79682611D01*
X139436984Y-79682611D02*
X139436984Y-79415944D01*
X139436984Y-79415944D02*
X139403651Y-79349278D01*
X139403651Y-79349278D02*
X139336984Y-79315944D01*
X139336984Y-79315944D02*
X139203651Y-79315944D01*
X139203651Y-79315944D02*
X139136984Y-79349278D01*
X139136984Y-79349278D02*
X139103651Y-79415944D01*
X139103651Y-79415944D02*
X139103651Y-79482611D01*
X139103651Y-79482611D02*
X139436984Y-79549278D01*
X138303651Y-79749278D02*
X138236985Y-79782611D01*
X138236985Y-79782611D02*
X138103651Y-79782611D01*
X138103651Y-79782611D02*
X138036985Y-79749278D01*
X138036985Y-79749278D02*
X138003651Y-79682611D01*
X138003651Y-79682611D02*
X138003651Y-79649278D01*
X138003651Y-79649278D02*
X138036985Y-79582611D01*
X138036985Y-79582611D02*
X138103651Y-79549278D01*
X138103651Y-79549278D02*
X138203651Y-79549278D01*
X138203651Y-79549278D02*
X138270318Y-79515944D01*
X138270318Y-79515944D02*
X138303651Y-79449278D01*
X138303651Y-79449278D02*
X138303651Y-79415944D01*
X138303651Y-79415944D02*
X138270318Y-79349278D01*
X138270318Y-79349278D02*
X138203651Y-79315944D01*
X138203651Y-79315944D02*
X138103651Y-79315944D01*
X138103651Y-79315944D02*
X138036985Y-79349278D01*
X137770318Y-79315944D02*
X137603651Y-79782611D01*
X137436984Y-79315944D02*
X137603651Y-79782611D01*
X137603651Y-79782611D02*
X137670318Y-79949278D01*
X137670318Y-79949278D02*
X137703651Y-79982611D01*
X137703651Y-79982611D02*
X137770318Y-80015944D01*
X137203651Y-79749278D02*
X137136985Y-79782611D01*
X137136985Y-79782611D02*
X137003651Y-79782611D01*
X137003651Y-79782611D02*
X136936985Y-79749278D01*
X136936985Y-79749278D02*
X136903651Y-79682611D01*
X136903651Y-79682611D02*
X136903651Y-79649278D01*
X136903651Y-79649278D02*
X136936985Y-79582611D01*
X136936985Y-79582611D02*
X137003651Y-79549278D01*
X137003651Y-79549278D02*
X137103651Y-79549278D01*
X137103651Y-79549278D02*
X137170318Y-79515944D01*
X137170318Y-79515944D02*
X137203651Y-79449278D01*
X137203651Y-79449278D02*
X137203651Y-79415944D01*
X137203651Y-79415944D02*
X137170318Y-79349278D01*
X137170318Y-79349278D02*
X137103651Y-79315944D01*
X137103651Y-79315944D02*
X137003651Y-79315944D01*
X137003651Y-79315944D02*
X136936985Y-79349278D01*
X136703651Y-79315944D02*
X136436984Y-79315944D01*
X136603651Y-79082611D02*
X136603651Y-79682611D01*
X136603651Y-79682611D02*
X136570318Y-79749278D01*
X136570318Y-79749278D02*
X136503651Y-79782611D01*
X136503651Y-79782611D02*
X136436984Y-79782611D01*
X135936984Y-79749278D02*
X136003651Y-79782611D01*
X136003651Y-79782611D02*
X136136984Y-79782611D01*
X136136984Y-79782611D02*
X136203651Y-79749278D01*
X136203651Y-79749278D02*
X136236984Y-79682611D01*
X136236984Y-79682611D02*
X136236984Y-79415944D01*
X136236984Y-79415944D02*
X136203651Y-79349278D01*
X136203651Y-79349278D02*
X136136984Y-79315944D01*
X136136984Y-79315944D02*
X136003651Y-79315944D01*
X136003651Y-79315944D02*
X135936984Y-79349278D01*
X135936984Y-79349278D02*
X135903651Y-79415944D01*
X135903651Y-79415944D02*
X135903651Y-79482611D01*
X135903651Y-79482611D02*
X136236984Y-79549278D01*
X135603651Y-79782611D02*
X135603651Y-79315944D01*
X135603651Y-79382611D02*
X135570318Y-79349278D01*
X135570318Y-79349278D02*
X135503651Y-79315944D01*
X135503651Y-79315944D02*
X135403651Y-79315944D01*
X135403651Y-79315944D02*
X135336984Y-79349278D01*
X135336984Y-79349278D02*
X135303651Y-79415944D01*
X135303651Y-79415944D02*
X135303651Y-79782611D01*
X135303651Y-79415944D02*
X135270318Y-79349278D01*
X135270318Y-79349278D02*
X135203651Y-79315944D01*
X135203651Y-79315944D02*
X135103651Y-79315944D01*
X135103651Y-79315944D02*
X135036984Y-79349278D01*
X135036984Y-79349278D02*
X135003651Y-79415944D01*
X135003651Y-79415944D02*
X135003651Y-79782611D01*
X133836985Y-79749278D02*
X133903652Y-79782611D01*
X133903652Y-79782611D02*
X134036985Y-79782611D01*
X134036985Y-79782611D02*
X134103652Y-79749278D01*
X134103652Y-79749278D02*
X134136985Y-79715944D01*
X134136985Y-79715944D02*
X134170318Y-79649278D01*
X134170318Y-79649278D02*
X134170318Y-79449278D01*
X134170318Y-79449278D02*
X134136985Y-79382611D01*
X134136985Y-79382611D02*
X134103652Y-79349278D01*
X134103652Y-79349278D02*
X134036985Y-79315944D01*
X134036985Y-79315944D02*
X133903652Y-79315944D01*
X133903652Y-79315944D02*
X133836985Y-79349278D01*
X133436985Y-79782611D02*
X133503652Y-79749278D01*
X133503652Y-79749278D02*
X133536985Y-79682611D01*
X133536985Y-79682611D02*
X133536985Y-79082611D01*
X133070318Y-79782611D02*
X133136985Y-79749278D01*
X133136985Y-79749278D02*
X133170318Y-79715944D01*
X133170318Y-79715944D02*
X133203651Y-79649278D01*
X133203651Y-79649278D02*
X133203651Y-79449278D01*
X133203651Y-79449278D02*
X133170318Y-79382611D01*
X133170318Y-79382611D02*
X133136985Y-79349278D01*
X133136985Y-79349278D02*
X133070318Y-79315944D01*
X133070318Y-79315944D02*
X132970318Y-79315944D01*
X132970318Y-79315944D02*
X132903651Y-79349278D01*
X132903651Y-79349278D02*
X132870318Y-79382611D01*
X132870318Y-79382611D02*
X132836985Y-79449278D01*
X132836985Y-79449278D02*
X132836985Y-79649278D01*
X132836985Y-79649278D02*
X132870318Y-79715944D01*
X132870318Y-79715944D02*
X132903651Y-79749278D01*
X132903651Y-79749278D02*
X132970318Y-79782611D01*
X132970318Y-79782611D02*
X133070318Y-79782611D01*
X132236985Y-79749278D02*
X132303652Y-79782611D01*
X132303652Y-79782611D02*
X132436985Y-79782611D01*
X132436985Y-79782611D02*
X132503652Y-79749278D01*
X132503652Y-79749278D02*
X132536985Y-79715944D01*
X132536985Y-79715944D02*
X132570318Y-79649278D01*
X132570318Y-79649278D02*
X132570318Y-79449278D01*
X132570318Y-79449278D02*
X132536985Y-79382611D01*
X132536985Y-79382611D02*
X132503652Y-79349278D01*
X132503652Y-79349278D02*
X132436985Y-79315944D01*
X132436985Y-79315944D02*
X132303652Y-79315944D01*
X132303652Y-79315944D02*
X132236985Y-79349278D01*
X131936985Y-79782611D02*
X131936985Y-79082611D01*
X131870318Y-79515944D02*
X131670318Y-79782611D01*
X131670318Y-79315944D02*
X131936985Y-79582611D01*
X146903649Y-80642905D02*
X146370316Y-80642905D01*
X145203649Y-80442905D02*
X145203649Y-81009572D01*
X145203649Y-81009572D02*
X145236982Y-81076239D01*
X145236982Y-81076239D02*
X145270316Y-81109572D01*
X145270316Y-81109572D02*
X145336982Y-81142905D01*
X145336982Y-81142905D02*
X145436982Y-81142905D01*
X145436982Y-81142905D02*
X145503649Y-81109572D01*
X145203649Y-80876239D02*
X145270316Y-80909572D01*
X145270316Y-80909572D02*
X145403649Y-80909572D01*
X145403649Y-80909572D02*
X145470316Y-80876239D01*
X145470316Y-80876239D02*
X145503649Y-80842905D01*
X145503649Y-80842905D02*
X145536982Y-80776239D01*
X145536982Y-80776239D02*
X145536982Y-80576239D01*
X145536982Y-80576239D02*
X145503649Y-80509572D01*
X145503649Y-80509572D02*
X145470316Y-80476239D01*
X145470316Y-80476239D02*
X145403649Y-80442905D01*
X145403649Y-80442905D02*
X145270316Y-80442905D01*
X145270316Y-80442905D02*
X145203649Y-80476239D01*
X144603649Y-80876239D02*
X144670316Y-80909572D01*
X144670316Y-80909572D02*
X144803649Y-80909572D01*
X144803649Y-80909572D02*
X144870316Y-80876239D01*
X144870316Y-80876239D02*
X144903649Y-80809572D01*
X144903649Y-80809572D02*
X144903649Y-80542905D01*
X144903649Y-80542905D02*
X144870316Y-80476239D01*
X144870316Y-80476239D02*
X144803649Y-80442905D01*
X144803649Y-80442905D02*
X144670316Y-80442905D01*
X144670316Y-80442905D02*
X144603649Y-80476239D01*
X144603649Y-80476239D02*
X144570316Y-80542905D01*
X144570316Y-80542905D02*
X144570316Y-80609572D01*
X144570316Y-80609572D02*
X144903649Y-80676239D01*
X144270316Y-80442905D02*
X144270316Y-80909572D01*
X144270316Y-80509572D02*
X144236983Y-80476239D01*
X144236983Y-80476239D02*
X144170316Y-80442905D01*
X144170316Y-80442905D02*
X144070316Y-80442905D01*
X144070316Y-80442905D02*
X144003649Y-80476239D01*
X144003649Y-80476239D02*
X143970316Y-80542905D01*
X143970316Y-80542905D02*
X143970316Y-80909572D01*
X143370316Y-80876239D02*
X143436983Y-80909572D01*
X143436983Y-80909572D02*
X143570316Y-80909572D01*
X143570316Y-80909572D02*
X143636983Y-80876239D01*
X143636983Y-80876239D02*
X143670316Y-80809572D01*
X143670316Y-80809572D02*
X143670316Y-80542905D01*
X143670316Y-80542905D02*
X143636983Y-80476239D01*
X143636983Y-80476239D02*
X143570316Y-80442905D01*
X143570316Y-80442905D02*
X143436983Y-80442905D01*
X143436983Y-80442905D02*
X143370316Y-80476239D01*
X143370316Y-80476239D02*
X143336983Y-80542905D01*
X143336983Y-80542905D02*
X143336983Y-80609572D01*
X143336983Y-80609572D02*
X143670316Y-80676239D01*
X143036983Y-80909572D02*
X143036983Y-80442905D01*
X143036983Y-80576239D02*
X143003650Y-80509572D01*
X143003650Y-80509572D02*
X142970316Y-80476239D01*
X142970316Y-80476239D02*
X142903650Y-80442905D01*
X142903650Y-80442905D02*
X142836983Y-80442905D01*
X142303650Y-80909572D02*
X142303650Y-80542905D01*
X142303650Y-80542905D02*
X142336983Y-80476239D01*
X142336983Y-80476239D02*
X142403650Y-80442905D01*
X142403650Y-80442905D02*
X142536983Y-80442905D01*
X142536983Y-80442905D02*
X142603650Y-80476239D01*
X142303650Y-80876239D02*
X142370317Y-80909572D01*
X142370317Y-80909572D02*
X142536983Y-80909572D01*
X142536983Y-80909572D02*
X142603650Y-80876239D01*
X142603650Y-80876239D02*
X142636983Y-80809572D01*
X142636983Y-80809572D02*
X142636983Y-80742905D01*
X142636983Y-80742905D02*
X142603650Y-80676239D01*
X142603650Y-80676239D02*
X142536983Y-80642905D01*
X142536983Y-80642905D02*
X142370317Y-80642905D01*
X142370317Y-80642905D02*
X142303650Y-80609572D01*
X142070317Y-80442905D02*
X141803650Y-80442905D01*
X141970317Y-80209572D02*
X141970317Y-80809572D01*
X141970317Y-80809572D02*
X141936984Y-80876239D01*
X141936984Y-80876239D02*
X141870317Y-80909572D01*
X141870317Y-80909572D02*
X141803650Y-80909572D01*
X141303650Y-80876239D02*
X141370317Y-80909572D01*
X141370317Y-80909572D02*
X141503650Y-80909572D01*
X141503650Y-80909572D02*
X141570317Y-80876239D01*
X141570317Y-80876239D02*
X141603650Y-80809572D01*
X141603650Y-80809572D02*
X141603650Y-80542905D01*
X141603650Y-80542905D02*
X141570317Y-80476239D01*
X141570317Y-80476239D02*
X141503650Y-80442905D01*
X141503650Y-80442905D02*
X141370317Y-80442905D01*
X141370317Y-80442905D02*
X141303650Y-80476239D01*
X141303650Y-80476239D02*
X141270317Y-80542905D01*
X141270317Y-80542905D02*
X141270317Y-80609572D01*
X141270317Y-80609572D02*
X141603650Y-80676239D01*
X140136984Y-80909572D02*
X140136984Y-80542905D01*
X140136984Y-80542905D02*
X140170317Y-80476239D01*
X140170317Y-80476239D02*
X140236984Y-80442905D01*
X140236984Y-80442905D02*
X140370317Y-80442905D01*
X140370317Y-80442905D02*
X140436984Y-80476239D01*
X140136984Y-80876239D02*
X140203651Y-80909572D01*
X140203651Y-80909572D02*
X140370317Y-80909572D01*
X140370317Y-80909572D02*
X140436984Y-80876239D01*
X140436984Y-80876239D02*
X140470317Y-80809572D01*
X140470317Y-80809572D02*
X140470317Y-80742905D01*
X140470317Y-80742905D02*
X140436984Y-80676239D01*
X140436984Y-80676239D02*
X140370317Y-80642905D01*
X140370317Y-80642905D02*
X140203651Y-80642905D01*
X140203651Y-80642905D02*
X140136984Y-80609572D01*
X139303651Y-80876239D02*
X139236985Y-80909572D01*
X139236985Y-80909572D02*
X139103651Y-80909572D01*
X139103651Y-80909572D02*
X139036985Y-80876239D01*
X139036985Y-80876239D02*
X139003651Y-80809572D01*
X139003651Y-80809572D02*
X139003651Y-80776239D01*
X139003651Y-80776239D02*
X139036985Y-80709572D01*
X139036985Y-80709572D02*
X139103651Y-80676239D01*
X139103651Y-80676239D02*
X139203651Y-80676239D01*
X139203651Y-80676239D02*
X139270318Y-80642905D01*
X139270318Y-80642905D02*
X139303651Y-80576239D01*
X139303651Y-80576239D02*
X139303651Y-80542905D01*
X139303651Y-80542905D02*
X139270318Y-80476239D01*
X139270318Y-80476239D02*
X139203651Y-80442905D01*
X139203651Y-80442905D02*
X139103651Y-80442905D01*
X139103651Y-80442905D02*
X139036985Y-80476239D01*
X138403651Y-80442905D02*
X138403651Y-80909572D01*
X138703651Y-80442905D02*
X138703651Y-80809572D01*
X138703651Y-80809572D02*
X138670318Y-80876239D01*
X138670318Y-80876239D02*
X138603651Y-80909572D01*
X138603651Y-80909572D02*
X138503651Y-80909572D01*
X138503651Y-80909572D02*
X138436984Y-80876239D01*
X138436984Y-80876239D02*
X138403651Y-80842905D01*
X138070318Y-80909572D02*
X138070318Y-80209572D01*
X138070318Y-80476239D02*
X138003651Y-80442905D01*
X138003651Y-80442905D02*
X137870318Y-80442905D01*
X137870318Y-80442905D02*
X137803651Y-80476239D01*
X137803651Y-80476239D02*
X137770318Y-80509572D01*
X137770318Y-80509572D02*
X137736985Y-80576239D01*
X137736985Y-80576239D02*
X137736985Y-80776239D01*
X137736985Y-80776239D02*
X137770318Y-80842905D01*
X137770318Y-80842905D02*
X137803651Y-80876239D01*
X137803651Y-80876239D02*
X137870318Y-80909572D01*
X137870318Y-80909572D02*
X138003651Y-80909572D01*
X138003651Y-80909572D02*
X138070318Y-80876239D01*
X137436985Y-80642905D02*
X136903652Y-80642905D01*
X136270318Y-80876239D02*
X136336985Y-80909572D01*
X136336985Y-80909572D02*
X136470318Y-80909572D01*
X136470318Y-80909572D02*
X136536985Y-80876239D01*
X136536985Y-80876239D02*
X136570318Y-80842905D01*
X136570318Y-80842905D02*
X136603651Y-80776239D01*
X136603651Y-80776239D02*
X136603651Y-80576239D01*
X136603651Y-80576239D02*
X136570318Y-80509572D01*
X136570318Y-80509572D02*
X136536985Y-80476239D01*
X136536985Y-80476239D02*
X136470318Y-80442905D01*
X136470318Y-80442905D02*
X136336985Y-80442905D01*
X136336985Y-80442905D02*
X136270318Y-80476239D01*
X135670318Y-80909572D02*
X135670318Y-80542905D01*
X135670318Y-80542905D02*
X135703651Y-80476239D01*
X135703651Y-80476239D02*
X135770318Y-80442905D01*
X135770318Y-80442905D02*
X135903651Y-80442905D01*
X135903651Y-80442905D02*
X135970318Y-80476239D01*
X135670318Y-80876239D02*
X135736985Y-80909572D01*
X135736985Y-80909572D02*
X135903651Y-80909572D01*
X135903651Y-80909572D02*
X135970318Y-80876239D01*
X135970318Y-80876239D02*
X136003651Y-80809572D01*
X136003651Y-80809572D02*
X136003651Y-80742905D01*
X136003651Y-80742905D02*
X135970318Y-80676239D01*
X135970318Y-80676239D02*
X135903651Y-80642905D01*
X135903651Y-80642905D02*
X135736985Y-80642905D01*
X135736985Y-80642905D02*
X135670318Y-80609572D01*
X135336985Y-80909572D02*
X135336985Y-80442905D01*
X135336985Y-80576239D02*
X135303652Y-80509572D01*
X135303652Y-80509572D02*
X135270318Y-80476239D01*
X135270318Y-80476239D02*
X135203652Y-80442905D01*
X135203652Y-80442905D02*
X135136985Y-80442905D01*
X134903652Y-80909572D02*
X134903652Y-80442905D01*
X134903652Y-80576239D02*
X134870319Y-80509572D01*
X134870319Y-80509572D02*
X134836985Y-80476239D01*
X134836985Y-80476239D02*
X134770319Y-80442905D01*
X134770319Y-80442905D02*
X134703652Y-80442905D01*
X134470319Y-80909572D02*
X134470319Y-80442905D01*
X134470319Y-80209572D02*
X134503652Y-80242905D01*
X134503652Y-80242905D02*
X134470319Y-80276239D01*
X134470319Y-80276239D02*
X134436986Y-80242905D01*
X134436986Y-80242905D02*
X134470319Y-80209572D01*
X134470319Y-80209572D02*
X134470319Y-80276239D01*
X133870319Y-80876239D02*
X133936986Y-80909572D01*
X133936986Y-80909572D02*
X134070319Y-80909572D01*
X134070319Y-80909572D02*
X134136986Y-80876239D01*
X134136986Y-80876239D02*
X134170319Y-80809572D01*
X134170319Y-80809572D02*
X134170319Y-80542905D01*
X134170319Y-80542905D02*
X134136986Y-80476239D01*
X134136986Y-80476239D02*
X134070319Y-80442905D01*
X134070319Y-80442905D02*
X133936986Y-80442905D01*
X133936986Y-80442905D02*
X133870319Y-80476239D01*
X133870319Y-80476239D02*
X133836986Y-80542905D01*
X133836986Y-80542905D02*
X133836986Y-80609572D01*
X133836986Y-80609572D02*
X134170319Y-80676239D01*
X133536986Y-80909572D02*
X133536986Y-80442905D01*
X133536986Y-80576239D02*
X133503653Y-80509572D01*
X133503653Y-80509572D02*
X133470319Y-80476239D01*
X133470319Y-80476239D02*
X133403653Y-80442905D01*
X133403653Y-80442905D02*
X133336986Y-80442905D01*
X132670320Y-80442905D02*
X132403653Y-80442905D01*
X132570320Y-80909572D02*
X132570320Y-80309572D01*
X132570320Y-80309572D02*
X132536987Y-80242905D01*
X132536987Y-80242905D02*
X132470320Y-80209572D01*
X132470320Y-80209572D02*
X132403653Y-80209572D01*
X132070320Y-80909572D02*
X132136987Y-80876239D01*
X132136987Y-80876239D02*
X132170320Y-80842905D01*
X132170320Y-80842905D02*
X132203653Y-80776239D01*
X132203653Y-80776239D02*
X132203653Y-80576239D01*
X132203653Y-80576239D02*
X132170320Y-80509572D01*
X132170320Y-80509572D02*
X132136987Y-80476239D01*
X132136987Y-80476239D02*
X132070320Y-80442905D01*
X132070320Y-80442905D02*
X131970320Y-80442905D01*
X131970320Y-80442905D02*
X131903653Y-80476239D01*
X131903653Y-80476239D02*
X131870320Y-80509572D01*
X131870320Y-80509572D02*
X131836987Y-80576239D01*
X131836987Y-80576239D02*
X131836987Y-80776239D01*
X131836987Y-80776239D02*
X131870320Y-80842905D01*
X131870320Y-80842905D02*
X131903653Y-80876239D01*
X131903653Y-80876239D02*
X131970320Y-80909572D01*
X131970320Y-80909572D02*
X132070320Y-80909572D01*
X131536987Y-80909572D02*
X131536987Y-80442905D01*
X131536987Y-80576239D02*
X131503654Y-80509572D01*
X131503654Y-80509572D02*
X131470320Y-80476239D01*
X131470320Y-80476239D02*
X131403654Y-80442905D01*
X131403654Y-80442905D02*
X131336987Y-80442905D01*
X130470321Y-80909572D02*
X130536988Y-80876239D01*
X130536988Y-80876239D02*
X130570321Y-80809572D01*
X130570321Y-80809572D02*
X130570321Y-80209572D01*
X130103654Y-80909572D02*
X130170321Y-80876239D01*
X130170321Y-80876239D02*
X130203654Y-80842905D01*
X130203654Y-80842905D02*
X130236987Y-80776239D01*
X130236987Y-80776239D02*
X130236987Y-80576239D01*
X130236987Y-80576239D02*
X130203654Y-80509572D01*
X130203654Y-80509572D02*
X130170321Y-80476239D01*
X130170321Y-80476239D02*
X130103654Y-80442905D01*
X130103654Y-80442905D02*
X130003654Y-80442905D01*
X130003654Y-80442905D02*
X129936987Y-80476239D01*
X129936987Y-80476239D02*
X129903654Y-80509572D01*
X129903654Y-80509572D02*
X129870321Y-80576239D01*
X129870321Y-80576239D02*
X129870321Y-80776239D01*
X129870321Y-80776239D02*
X129903654Y-80842905D01*
X129903654Y-80842905D02*
X129936987Y-80876239D01*
X129936987Y-80876239D02*
X130003654Y-80909572D01*
X130003654Y-80909572D02*
X130103654Y-80909572D01*
X129270321Y-80909572D02*
X129270321Y-80542905D01*
X129270321Y-80542905D02*
X129303654Y-80476239D01*
X129303654Y-80476239D02*
X129370321Y-80442905D01*
X129370321Y-80442905D02*
X129503654Y-80442905D01*
X129503654Y-80442905D02*
X129570321Y-80476239D01*
X129270321Y-80876239D02*
X129336988Y-80909572D01*
X129336988Y-80909572D02*
X129503654Y-80909572D01*
X129503654Y-80909572D02*
X129570321Y-80876239D01*
X129570321Y-80876239D02*
X129603654Y-80809572D01*
X129603654Y-80809572D02*
X129603654Y-80742905D01*
X129603654Y-80742905D02*
X129570321Y-80676239D01*
X129570321Y-80676239D02*
X129503654Y-80642905D01*
X129503654Y-80642905D02*
X129336988Y-80642905D01*
X129336988Y-80642905D02*
X129270321Y-80609572D01*
X128636988Y-80909572D02*
X128636988Y-80209572D01*
X128636988Y-80876239D02*
X128703655Y-80909572D01*
X128703655Y-80909572D02*
X128836988Y-80909572D01*
X128836988Y-80909572D02*
X128903655Y-80876239D01*
X128903655Y-80876239D02*
X128936988Y-80842905D01*
X128936988Y-80842905D02*
X128970321Y-80776239D01*
X128970321Y-80776239D02*
X128970321Y-80576239D01*
X128970321Y-80576239D02*
X128936988Y-80509572D01*
X128936988Y-80509572D02*
X128903655Y-80476239D01*
X128903655Y-80476239D02*
X128836988Y-80442905D01*
X128836988Y-80442905D02*
X128703655Y-80442905D01*
X128703655Y-80442905D02*
X128636988Y-80476239D01*
X128303655Y-80642905D02*
X127770322Y-80642905D01*
X127436988Y-80909572D02*
X127436988Y-80442905D01*
X127436988Y-80509572D02*
X127403655Y-80476239D01*
X127403655Y-80476239D02*
X127336988Y-80442905D01*
X127336988Y-80442905D02*
X127236988Y-80442905D01*
X127236988Y-80442905D02*
X127170321Y-80476239D01*
X127170321Y-80476239D02*
X127136988Y-80542905D01*
X127136988Y-80542905D02*
X127136988Y-80909572D01*
X127136988Y-80542905D02*
X127103655Y-80476239D01*
X127103655Y-80476239D02*
X127036988Y-80442905D01*
X127036988Y-80442905D02*
X126936988Y-80442905D01*
X126936988Y-80442905D02*
X126870321Y-80476239D01*
X126870321Y-80476239D02*
X126836988Y-80542905D01*
X126836988Y-80542905D02*
X126836988Y-80909572D01*
X126403655Y-80909572D02*
X126470322Y-80876239D01*
X126470322Y-80876239D02*
X126503655Y-80842905D01*
X126503655Y-80842905D02*
X126536988Y-80776239D01*
X126536988Y-80776239D02*
X126536988Y-80576239D01*
X126536988Y-80576239D02*
X126503655Y-80509572D01*
X126503655Y-80509572D02*
X126470322Y-80476239D01*
X126470322Y-80476239D02*
X126403655Y-80442905D01*
X126403655Y-80442905D02*
X126303655Y-80442905D01*
X126303655Y-80442905D02*
X126236988Y-80476239D01*
X126236988Y-80476239D02*
X126203655Y-80509572D01*
X126203655Y-80509572D02*
X126170322Y-80576239D01*
X126170322Y-80576239D02*
X126170322Y-80776239D01*
X126170322Y-80776239D02*
X126203655Y-80842905D01*
X126203655Y-80842905D02*
X126236988Y-80876239D01*
X126236988Y-80876239D02*
X126303655Y-80909572D01*
X126303655Y-80909572D02*
X126403655Y-80909572D01*
X125570322Y-80909572D02*
X125570322Y-80209572D01*
X125570322Y-80876239D02*
X125636989Y-80909572D01*
X125636989Y-80909572D02*
X125770322Y-80909572D01*
X125770322Y-80909572D02*
X125836989Y-80876239D01*
X125836989Y-80876239D02*
X125870322Y-80842905D01*
X125870322Y-80842905D02*
X125903655Y-80776239D01*
X125903655Y-80776239D02*
X125903655Y-80576239D01*
X125903655Y-80576239D02*
X125870322Y-80509572D01*
X125870322Y-80509572D02*
X125836989Y-80476239D01*
X125836989Y-80476239D02*
X125770322Y-80442905D01*
X125770322Y-80442905D02*
X125636989Y-80442905D01*
X125636989Y-80442905D02*
X125570322Y-80476239D01*
X124936989Y-80442905D02*
X124936989Y-80909572D01*
X125236989Y-80442905D02*
X125236989Y-80809572D01*
X125236989Y-80809572D02*
X125203656Y-80876239D01*
X125203656Y-80876239D02*
X125136989Y-80909572D01*
X125136989Y-80909572D02*
X125036989Y-80909572D01*
X125036989Y-80909572D02*
X124970322Y-80876239D01*
X124970322Y-80876239D02*
X124936989Y-80842905D01*
X124503656Y-80909572D02*
X124570323Y-80876239D01*
X124570323Y-80876239D02*
X124603656Y-80809572D01*
X124603656Y-80809572D02*
X124603656Y-80209572D01*
X123936989Y-80909572D02*
X123936989Y-80542905D01*
X123936989Y-80542905D02*
X123970322Y-80476239D01*
X123970322Y-80476239D02*
X124036989Y-80442905D01*
X124036989Y-80442905D02*
X124170322Y-80442905D01*
X124170322Y-80442905D02*
X124236989Y-80476239D01*
X123936989Y-80876239D02*
X124003656Y-80909572D01*
X124003656Y-80909572D02*
X124170322Y-80909572D01*
X124170322Y-80909572D02*
X124236989Y-80876239D01*
X124236989Y-80876239D02*
X124270322Y-80809572D01*
X124270322Y-80809572D02*
X124270322Y-80742905D01*
X124270322Y-80742905D02*
X124236989Y-80676239D01*
X124236989Y-80676239D02*
X124170322Y-80642905D01*
X124170322Y-80642905D02*
X124003656Y-80642905D01*
X124003656Y-80642905D02*
X123936989Y-80609572D01*
X123703656Y-80442905D02*
X123436989Y-80442905D01*
X123603656Y-80209572D02*
X123603656Y-80809572D01*
X123603656Y-80809572D02*
X123570323Y-80876239D01*
X123570323Y-80876239D02*
X123503656Y-80909572D01*
X123503656Y-80909572D02*
X123436989Y-80909572D01*
X123203656Y-80909572D02*
X123203656Y-80442905D01*
X123203656Y-80209572D02*
X123236989Y-80242905D01*
X123236989Y-80242905D02*
X123203656Y-80276239D01*
X123203656Y-80276239D02*
X123170323Y-80242905D01*
X123170323Y-80242905D02*
X123203656Y-80209572D01*
X123203656Y-80209572D02*
X123203656Y-80276239D01*
X122770323Y-80909572D02*
X122836990Y-80876239D01*
X122836990Y-80876239D02*
X122870323Y-80842905D01*
X122870323Y-80842905D02*
X122903656Y-80776239D01*
X122903656Y-80776239D02*
X122903656Y-80576239D01*
X122903656Y-80576239D02*
X122870323Y-80509572D01*
X122870323Y-80509572D02*
X122836990Y-80476239D01*
X122836990Y-80476239D02*
X122770323Y-80442905D01*
X122770323Y-80442905D02*
X122670323Y-80442905D01*
X122670323Y-80442905D02*
X122603656Y-80476239D01*
X122603656Y-80476239D02*
X122570323Y-80509572D01*
X122570323Y-80509572D02*
X122536990Y-80576239D01*
X122536990Y-80576239D02*
X122536990Y-80776239D01*
X122536990Y-80776239D02*
X122570323Y-80842905D01*
X122570323Y-80842905D02*
X122603656Y-80876239D01*
X122603656Y-80876239D02*
X122670323Y-80909572D01*
X122670323Y-80909572D02*
X122770323Y-80909572D01*
X122236990Y-80442905D02*
X122236990Y-80909572D01*
X122236990Y-80509572D02*
X122203657Y-80476239D01*
X122203657Y-80476239D02*
X122136990Y-80442905D01*
X122136990Y-80442905D02*
X122036990Y-80442905D01*
X122036990Y-80442905D02*
X121970323Y-80476239D01*
X121970323Y-80476239D02*
X121936990Y-80542905D01*
X121936990Y-80542905D02*
X121936990Y-80909572D01*
X146903649Y-81769866D02*
X146370316Y-81769866D01*
X145203649Y-81569866D02*
X145203649Y-82036533D01*
X145503649Y-81569866D02*
X145503649Y-81936533D01*
X145503649Y-81936533D02*
X145470316Y-82003200D01*
X145470316Y-82003200D02*
X145403649Y-82036533D01*
X145403649Y-82036533D02*
X145303649Y-82036533D01*
X145303649Y-82036533D02*
X145236982Y-82003200D01*
X145236982Y-82003200D02*
X145203649Y-81969866D01*
X144903649Y-82003200D02*
X144836983Y-82036533D01*
X144836983Y-82036533D02*
X144703649Y-82036533D01*
X144703649Y-82036533D02*
X144636983Y-82003200D01*
X144636983Y-82003200D02*
X144603649Y-81936533D01*
X144603649Y-81936533D02*
X144603649Y-81903200D01*
X144603649Y-81903200D02*
X144636983Y-81836533D01*
X144636983Y-81836533D02*
X144703649Y-81803200D01*
X144703649Y-81803200D02*
X144803649Y-81803200D01*
X144803649Y-81803200D02*
X144870316Y-81769866D01*
X144870316Y-81769866D02*
X144903649Y-81703200D01*
X144903649Y-81703200D02*
X144903649Y-81669866D01*
X144903649Y-81669866D02*
X144870316Y-81603200D01*
X144870316Y-81603200D02*
X144803649Y-81569866D01*
X144803649Y-81569866D02*
X144703649Y-81569866D01*
X144703649Y-81569866D02*
X144636983Y-81603200D01*
X144036982Y-82003200D02*
X144103649Y-82036533D01*
X144103649Y-82036533D02*
X144236982Y-82036533D01*
X144236982Y-82036533D02*
X144303649Y-82003200D01*
X144303649Y-82003200D02*
X144336982Y-81936533D01*
X144336982Y-81936533D02*
X144336982Y-81669866D01*
X144336982Y-81669866D02*
X144303649Y-81603200D01*
X144303649Y-81603200D02*
X144236982Y-81569866D01*
X144236982Y-81569866D02*
X144103649Y-81569866D01*
X144103649Y-81569866D02*
X144036982Y-81603200D01*
X144036982Y-81603200D02*
X144003649Y-81669866D01*
X144003649Y-81669866D02*
X144003649Y-81736533D01*
X144003649Y-81736533D02*
X144336982Y-81803200D01*
X142870316Y-82036533D02*
X142870316Y-81669866D01*
X142870316Y-81669866D02*
X142903649Y-81603200D01*
X142903649Y-81603200D02*
X142970316Y-81569866D01*
X142970316Y-81569866D02*
X143103649Y-81569866D01*
X143103649Y-81569866D02*
X143170316Y-81603200D01*
X142870316Y-82003200D02*
X142936983Y-82036533D01*
X142936983Y-82036533D02*
X143103649Y-82036533D01*
X143103649Y-82036533D02*
X143170316Y-82003200D01*
X143170316Y-82003200D02*
X143203649Y-81936533D01*
X143203649Y-81936533D02*
X143203649Y-81869866D01*
X143203649Y-81869866D02*
X143170316Y-81803200D01*
X143170316Y-81803200D02*
X143103649Y-81769866D01*
X143103649Y-81769866D02*
X142936983Y-81769866D01*
X142936983Y-81769866D02*
X142870316Y-81736533D01*
X142570316Y-82003200D02*
X142503650Y-82036533D01*
X142503650Y-82036533D02*
X142370316Y-82036533D01*
X142370316Y-82036533D02*
X142303650Y-82003200D01*
X142303650Y-82003200D02*
X142270316Y-81936533D01*
X142270316Y-81936533D02*
X142270316Y-81903200D01*
X142270316Y-81903200D02*
X142303650Y-81836533D01*
X142303650Y-81836533D02*
X142370316Y-81803200D01*
X142370316Y-81803200D02*
X142470316Y-81803200D01*
X142470316Y-81803200D02*
X142536983Y-81769866D01*
X142536983Y-81769866D02*
X142570316Y-81703200D01*
X142570316Y-81703200D02*
X142570316Y-81669866D01*
X142570316Y-81669866D02*
X142536983Y-81603200D01*
X142536983Y-81603200D02*
X142470316Y-81569866D01*
X142470316Y-81569866D02*
X142370316Y-81569866D01*
X142370316Y-81569866D02*
X142303650Y-81603200D01*
X141436983Y-82036533D02*
X141436983Y-81569866D01*
X141436983Y-81703200D02*
X141403650Y-81636533D01*
X141403650Y-81636533D02*
X141370316Y-81603200D01*
X141370316Y-81603200D02*
X141303650Y-81569866D01*
X141303650Y-81569866D02*
X141236983Y-81569866D01*
X140736983Y-82003200D02*
X140803650Y-82036533D01*
X140803650Y-82036533D02*
X140936983Y-82036533D01*
X140936983Y-82036533D02*
X141003650Y-82003200D01*
X141003650Y-82003200D02*
X141036983Y-81936533D01*
X141036983Y-81936533D02*
X141036983Y-81669866D01*
X141036983Y-81669866D02*
X141003650Y-81603200D01*
X141003650Y-81603200D02*
X140936983Y-81569866D01*
X140936983Y-81569866D02*
X140803650Y-81569866D01*
X140803650Y-81569866D02*
X140736983Y-81603200D01*
X140736983Y-81603200D02*
X140703650Y-81669866D01*
X140703650Y-81669866D02*
X140703650Y-81736533D01*
X140703650Y-81736533D02*
X141036983Y-81803200D01*
X140503650Y-81569866D02*
X140236983Y-81569866D01*
X140403650Y-82036533D02*
X140403650Y-81436533D01*
X140403650Y-81436533D02*
X140370317Y-81369866D01*
X140370317Y-81369866D02*
X140303650Y-81336533D01*
X140303650Y-81336533D02*
X140236983Y-81336533D01*
X139736983Y-82003200D02*
X139803650Y-82036533D01*
X139803650Y-82036533D02*
X139936983Y-82036533D01*
X139936983Y-82036533D02*
X140003650Y-82003200D01*
X140003650Y-82003200D02*
X140036983Y-81936533D01*
X140036983Y-81936533D02*
X140036983Y-81669866D01*
X140036983Y-81669866D02*
X140003650Y-81603200D01*
X140003650Y-81603200D02*
X139936983Y-81569866D01*
X139936983Y-81569866D02*
X139803650Y-81569866D01*
X139803650Y-81569866D02*
X139736983Y-81603200D01*
X139736983Y-81603200D02*
X139703650Y-81669866D01*
X139703650Y-81669866D02*
X139703650Y-81736533D01*
X139703650Y-81736533D02*
X140036983Y-81803200D01*
X139403650Y-82036533D02*
X139403650Y-81569866D01*
X139403650Y-81703200D02*
X139370317Y-81636533D01*
X139370317Y-81636533D02*
X139336983Y-81603200D01*
X139336983Y-81603200D02*
X139270317Y-81569866D01*
X139270317Y-81569866D02*
X139203650Y-81569866D01*
X138703650Y-82003200D02*
X138770317Y-82036533D01*
X138770317Y-82036533D02*
X138903650Y-82036533D01*
X138903650Y-82036533D02*
X138970317Y-82003200D01*
X138970317Y-82003200D02*
X139003650Y-81936533D01*
X139003650Y-81936533D02*
X139003650Y-81669866D01*
X139003650Y-81669866D02*
X138970317Y-81603200D01*
X138970317Y-81603200D02*
X138903650Y-81569866D01*
X138903650Y-81569866D02*
X138770317Y-81569866D01*
X138770317Y-81569866D02*
X138703650Y-81603200D01*
X138703650Y-81603200D02*
X138670317Y-81669866D01*
X138670317Y-81669866D02*
X138670317Y-81736533D01*
X138670317Y-81736533D02*
X139003650Y-81803200D01*
X138370317Y-81569866D02*
X138370317Y-82036533D01*
X138370317Y-81636533D02*
X138336984Y-81603200D01*
X138336984Y-81603200D02*
X138270317Y-81569866D01*
X138270317Y-81569866D02*
X138170317Y-81569866D01*
X138170317Y-81569866D02*
X138103650Y-81603200D01*
X138103650Y-81603200D02*
X138070317Y-81669866D01*
X138070317Y-81669866D02*
X138070317Y-82036533D01*
X137436984Y-82003200D02*
X137503651Y-82036533D01*
X137503651Y-82036533D02*
X137636984Y-82036533D01*
X137636984Y-82036533D02*
X137703651Y-82003200D01*
X137703651Y-82003200D02*
X137736984Y-81969866D01*
X137736984Y-81969866D02*
X137770317Y-81903200D01*
X137770317Y-81903200D02*
X137770317Y-81703200D01*
X137770317Y-81703200D02*
X137736984Y-81636533D01*
X137736984Y-81636533D02*
X137703651Y-81603200D01*
X137703651Y-81603200D02*
X137636984Y-81569866D01*
X137636984Y-81569866D02*
X137503651Y-81569866D01*
X137503651Y-81569866D02*
X137436984Y-81603200D01*
X136870317Y-82003200D02*
X136936984Y-82036533D01*
X136936984Y-82036533D02*
X137070317Y-82036533D01*
X137070317Y-82036533D02*
X137136984Y-82003200D01*
X137136984Y-82003200D02*
X137170317Y-81936533D01*
X137170317Y-81936533D02*
X137170317Y-81669866D01*
X137170317Y-81669866D02*
X137136984Y-81603200D01*
X137136984Y-81603200D02*
X137070317Y-81569866D01*
X137070317Y-81569866D02*
X136936984Y-81569866D01*
X136936984Y-81569866D02*
X136870317Y-81603200D01*
X136870317Y-81603200D02*
X136836984Y-81669866D01*
X136836984Y-81669866D02*
X136836984Y-81736533D01*
X136836984Y-81736533D02*
X137170317Y-81803200D01*
X136103651Y-81569866D02*
X135836984Y-81569866D01*
X136003651Y-82036533D02*
X136003651Y-81436533D01*
X136003651Y-81436533D02*
X135970318Y-81369866D01*
X135970318Y-81369866D02*
X135903651Y-81336533D01*
X135903651Y-81336533D02*
X135836984Y-81336533D01*
X135503651Y-82036533D02*
X135570318Y-82003200D01*
X135570318Y-82003200D02*
X135603651Y-81969866D01*
X135603651Y-81969866D02*
X135636984Y-81903200D01*
X135636984Y-81903200D02*
X135636984Y-81703200D01*
X135636984Y-81703200D02*
X135603651Y-81636533D01*
X135603651Y-81636533D02*
X135570318Y-81603200D01*
X135570318Y-81603200D02*
X135503651Y-81569866D01*
X135503651Y-81569866D02*
X135403651Y-81569866D01*
X135403651Y-81569866D02*
X135336984Y-81603200D01*
X135336984Y-81603200D02*
X135303651Y-81636533D01*
X135303651Y-81636533D02*
X135270318Y-81703200D01*
X135270318Y-81703200D02*
X135270318Y-81903200D01*
X135270318Y-81903200D02*
X135303651Y-81969866D01*
X135303651Y-81969866D02*
X135336984Y-82003200D01*
X135336984Y-82003200D02*
X135403651Y-82036533D01*
X135403651Y-82036533D02*
X135503651Y-82036533D01*
X134970318Y-82036533D02*
X134970318Y-81569866D01*
X134970318Y-81703200D02*
X134936985Y-81636533D01*
X134936985Y-81636533D02*
X134903651Y-81603200D01*
X134903651Y-81603200D02*
X134836985Y-81569866D01*
X134836985Y-81569866D02*
X134770318Y-81569866D01*
X134003652Y-81569866D02*
X134003652Y-82269866D01*
X134003652Y-81603200D02*
X133936985Y-81569866D01*
X133936985Y-81569866D02*
X133803652Y-81569866D01*
X133803652Y-81569866D02*
X133736985Y-81603200D01*
X133736985Y-81603200D02*
X133703652Y-81636533D01*
X133703652Y-81636533D02*
X133670319Y-81703200D01*
X133670319Y-81703200D02*
X133670319Y-81903200D01*
X133670319Y-81903200D02*
X133703652Y-81969866D01*
X133703652Y-81969866D02*
X133736985Y-82003200D01*
X133736985Y-82003200D02*
X133803652Y-82036533D01*
X133803652Y-82036533D02*
X133936985Y-82036533D01*
X133936985Y-82036533D02*
X134003652Y-82003200D01*
X133403652Y-82003200D02*
X133336986Y-82036533D01*
X133336986Y-82036533D02*
X133203652Y-82036533D01*
X133203652Y-82036533D02*
X133136986Y-82003200D01*
X133136986Y-82003200D02*
X133103652Y-81936533D01*
X133103652Y-81936533D02*
X133103652Y-81903200D01*
X133103652Y-81903200D02*
X133136986Y-81836533D01*
X133136986Y-81836533D02*
X133203652Y-81803200D01*
X133203652Y-81803200D02*
X133303652Y-81803200D01*
X133303652Y-81803200D02*
X133370319Y-81769866D01*
X133370319Y-81769866D02*
X133403652Y-81703200D01*
X133403652Y-81703200D02*
X133403652Y-81669866D01*
X133403652Y-81669866D02*
X133370319Y-81603200D01*
X133370319Y-81603200D02*
X133303652Y-81569866D01*
X133303652Y-81569866D02*
X133203652Y-81569866D01*
X133203652Y-81569866D02*
X133136986Y-81603200D01*
X132536985Y-82003200D02*
X132603652Y-82036533D01*
X132603652Y-82036533D02*
X132736985Y-82036533D01*
X132736985Y-82036533D02*
X132803652Y-82003200D01*
X132803652Y-82003200D02*
X132836985Y-81936533D01*
X132836985Y-81936533D02*
X132836985Y-81669866D01*
X132836985Y-81669866D02*
X132803652Y-81603200D01*
X132803652Y-81603200D02*
X132736985Y-81569866D01*
X132736985Y-81569866D02*
X132603652Y-81569866D01*
X132603652Y-81569866D02*
X132536985Y-81603200D01*
X132536985Y-81603200D02*
X132503652Y-81669866D01*
X132503652Y-81669866D02*
X132503652Y-81736533D01*
X132503652Y-81736533D02*
X132836985Y-81803200D01*
X131903652Y-81569866D02*
X131903652Y-82036533D01*
X132203652Y-81569866D02*
X132203652Y-81936533D01*
X132203652Y-81936533D02*
X132170319Y-82003200D01*
X132170319Y-82003200D02*
X132103652Y-82036533D01*
X132103652Y-82036533D02*
X132003652Y-82036533D01*
X132003652Y-82036533D02*
X131936985Y-82003200D01*
X131936985Y-82003200D02*
X131903652Y-81969866D01*
X131270319Y-82036533D02*
X131270319Y-81336533D01*
X131270319Y-82003200D02*
X131336986Y-82036533D01*
X131336986Y-82036533D02*
X131470319Y-82036533D01*
X131470319Y-82036533D02*
X131536986Y-82003200D01*
X131536986Y-82003200D02*
X131570319Y-81969866D01*
X131570319Y-81969866D02*
X131603652Y-81903200D01*
X131603652Y-81903200D02*
X131603652Y-81703200D01*
X131603652Y-81703200D02*
X131570319Y-81636533D01*
X131570319Y-81636533D02*
X131536986Y-81603200D01*
X131536986Y-81603200D02*
X131470319Y-81569866D01*
X131470319Y-81569866D02*
X131336986Y-81569866D01*
X131336986Y-81569866D02*
X131270319Y-81603200D01*
X130836986Y-82036533D02*
X130903653Y-82003200D01*
X130903653Y-82003200D02*
X130936986Y-81969866D01*
X130936986Y-81969866D02*
X130970319Y-81903200D01*
X130970319Y-81903200D02*
X130970319Y-81703200D01*
X130970319Y-81703200D02*
X130936986Y-81636533D01*
X130936986Y-81636533D02*
X130903653Y-81603200D01*
X130903653Y-81603200D02*
X130836986Y-81569866D01*
X130836986Y-81569866D02*
X130736986Y-81569866D01*
X130736986Y-81569866D02*
X130670319Y-81603200D01*
X130670319Y-81603200D02*
X130636986Y-81636533D01*
X130636986Y-81636533D02*
X130603653Y-81703200D01*
X130603653Y-81703200D02*
X130603653Y-81903200D01*
X130603653Y-81903200D02*
X130636986Y-81969866D01*
X130636986Y-81969866D02*
X130670319Y-82003200D01*
X130670319Y-82003200D02*
X130736986Y-82036533D01*
X130736986Y-82036533D02*
X130836986Y-82036533D01*
X130303653Y-81769866D02*
X129770320Y-81769866D01*
X129136986Y-82036533D02*
X129136986Y-81336533D01*
X129136986Y-82003200D02*
X129203653Y-82036533D01*
X129203653Y-82036533D02*
X129336986Y-82036533D01*
X129336986Y-82036533D02*
X129403653Y-82003200D01*
X129403653Y-82003200D02*
X129436986Y-81969866D01*
X129436986Y-81969866D02*
X129470319Y-81903200D01*
X129470319Y-81903200D02*
X129470319Y-81703200D01*
X129470319Y-81703200D02*
X129436986Y-81636533D01*
X129436986Y-81636533D02*
X129403653Y-81603200D01*
X129403653Y-81603200D02*
X129336986Y-81569866D01*
X129336986Y-81569866D02*
X129203653Y-81569866D01*
X129203653Y-81569866D02*
X129136986Y-81603200D01*
X128803653Y-82036533D02*
X128803653Y-81569866D01*
X128803653Y-81336533D02*
X128836986Y-81369866D01*
X128836986Y-81369866D02*
X128803653Y-81403200D01*
X128803653Y-81403200D02*
X128770320Y-81369866D01*
X128770320Y-81369866D02*
X128803653Y-81336533D01*
X128803653Y-81336533D02*
X128803653Y-81403200D01*
X128570320Y-81569866D02*
X128303653Y-81569866D01*
X128470320Y-82036533D02*
X128470320Y-81436533D01*
X128470320Y-81436533D02*
X128436987Y-81369866D01*
X128436987Y-81369866D02*
X128370320Y-81336533D01*
X128370320Y-81336533D02*
X128303653Y-81336533D01*
X128170320Y-81569866D02*
X127903653Y-81569866D01*
X128070320Y-82036533D02*
X128070320Y-81436533D01*
X128070320Y-81436533D02*
X128036987Y-81369866D01*
X128036987Y-81369866D02*
X127970320Y-81336533D01*
X127970320Y-81336533D02*
X127903653Y-81336533D01*
X127403653Y-82003200D02*
X127470320Y-82036533D01*
X127470320Y-82036533D02*
X127603653Y-82036533D01*
X127603653Y-82036533D02*
X127670320Y-82003200D01*
X127670320Y-82003200D02*
X127703653Y-81936533D01*
X127703653Y-81936533D02*
X127703653Y-81669866D01*
X127703653Y-81669866D02*
X127670320Y-81603200D01*
X127670320Y-81603200D02*
X127603653Y-81569866D01*
X127603653Y-81569866D02*
X127470320Y-81569866D01*
X127470320Y-81569866D02*
X127403653Y-81603200D01*
X127403653Y-81603200D02*
X127370320Y-81669866D01*
X127370320Y-81669866D02*
X127370320Y-81736533D01*
X127370320Y-81736533D02*
X127703653Y-81803200D01*
X127070320Y-82036533D02*
X127070320Y-81569866D01*
X127070320Y-81703200D02*
X127036987Y-81636533D01*
X127036987Y-81636533D02*
X127003653Y-81603200D01*
X127003653Y-81603200D02*
X126936987Y-81569866D01*
X126936987Y-81569866D02*
X126870320Y-81569866D01*
X126370320Y-82003200D02*
X126436987Y-82036533D01*
X126436987Y-82036533D02*
X126570320Y-82036533D01*
X126570320Y-82036533D02*
X126636987Y-82003200D01*
X126636987Y-82003200D02*
X126670320Y-81936533D01*
X126670320Y-81936533D02*
X126670320Y-81669866D01*
X126670320Y-81669866D02*
X126636987Y-81603200D01*
X126636987Y-81603200D02*
X126570320Y-81569866D01*
X126570320Y-81569866D02*
X126436987Y-81569866D01*
X126436987Y-81569866D02*
X126370320Y-81603200D01*
X126370320Y-81603200D02*
X126336987Y-81669866D01*
X126336987Y-81669866D02*
X126336987Y-81736533D01*
X126336987Y-81736533D02*
X126670320Y-81803200D01*
X126036987Y-81569866D02*
X126036987Y-82036533D01*
X126036987Y-81636533D02*
X126003654Y-81603200D01*
X126003654Y-81603200D02*
X125936987Y-81569866D01*
X125936987Y-81569866D02*
X125836987Y-81569866D01*
X125836987Y-81569866D02*
X125770320Y-81603200D01*
X125770320Y-81603200D02*
X125736987Y-81669866D01*
X125736987Y-81669866D02*
X125736987Y-82036533D01*
X125503654Y-81569866D02*
X125236987Y-81569866D01*
X125403654Y-81336533D02*
X125403654Y-81936533D01*
X125403654Y-81936533D02*
X125370321Y-82003200D01*
X125370321Y-82003200D02*
X125303654Y-82036533D01*
X125303654Y-82036533D02*
X125236987Y-82036533D01*
X125003654Y-82036533D02*
X125003654Y-81569866D01*
X125003654Y-81336533D02*
X125036987Y-81369866D01*
X125036987Y-81369866D02*
X125003654Y-81403200D01*
X125003654Y-81403200D02*
X124970321Y-81369866D01*
X124970321Y-81369866D02*
X125003654Y-81336533D01*
X125003654Y-81336533D02*
X125003654Y-81403200D01*
X124370321Y-82036533D02*
X124370321Y-81669866D01*
X124370321Y-81669866D02*
X124403654Y-81603200D01*
X124403654Y-81603200D02*
X124470321Y-81569866D01*
X124470321Y-81569866D02*
X124603654Y-81569866D01*
X124603654Y-81569866D02*
X124670321Y-81603200D01*
X124370321Y-82003200D02*
X124436988Y-82036533D01*
X124436988Y-82036533D02*
X124603654Y-82036533D01*
X124603654Y-82036533D02*
X124670321Y-82003200D01*
X124670321Y-82003200D02*
X124703654Y-81936533D01*
X124703654Y-81936533D02*
X124703654Y-81869866D01*
X124703654Y-81869866D02*
X124670321Y-81803200D01*
X124670321Y-81803200D02*
X124603654Y-81769866D01*
X124603654Y-81769866D02*
X124436988Y-81769866D01*
X124436988Y-81769866D02*
X124370321Y-81736533D01*
X123936988Y-82036533D02*
X124003655Y-82003200D01*
X124003655Y-82003200D02*
X124036988Y-81936533D01*
X124036988Y-81936533D02*
X124036988Y-81336533D01*
X123136988Y-82036533D02*
X123136988Y-81569866D01*
X123136988Y-81636533D02*
X123103655Y-81603200D01*
X123103655Y-81603200D02*
X123036988Y-81569866D01*
X123036988Y-81569866D02*
X122936988Y-81569866D01*
X122936988Y-81569866D02*
X122870321Y-81603200D01*
X122870321Y-81603200D02*
X122836988Y-81669866D01*
X122836988Y-81669866D02*
X122836988Y-82036533D01*
X122836988Y-81669866D02*
X122803655Y-81603200D01*
X122803655Y-81603200D02*
X122736988Y-81569866D01*
X122736988Y-81569866D02*
X122636988Y-81569866D01*
X122636988Y-81569866D02*
X122570321Y-81603200D01*
X122570321Y-81603200D02*
X122536988Y-81669866D01*
X122536988Y-81669866D02*
X122536988Y-82036533D01*
X122103655Y-82036533D02*
X122170322Y-82003200D01*
X122170322Y-82003200D02*
X122203655Y-81969866D01*
X122203655Y-81969866D02*
X122236988Y-81903200D01*
X122236988Y-81903200D02*
X122236988Y-81703200D01*
X122236988Y-81703200D02*
X122203655Y-81636533D01*
X122203655Y-81636533D02*
X122170322Y-81603200D01*
X122170322Y-81603200D02*
X122103655Y-81569866D01*
X122103655Y-81569866D02*
X122003655Y-81569866D01*
X122003655Y-81569866D02*
X121936988Y-81603200D01*
X121936988Y-81603200D02*
X121903655Y-81636533D01*
X121903655Y-81636533D02*
X121870322Y-81703200D01*
X121870322Y-81703200D02*
X121870322Y-81903200D01*
X121870322Y-81903200D02*
X121903655Y-81969866D01*
X121903655Y-81969866D02*
X121936988Y-82003200D01*
X121936988Y-82003200D02*
X122003655Y-82036533D01*
X122003655Y-82036533D02*
X122103655Y-82036533D01*
X121270322Y-82036533D02*
X121270322Y-81336533D01*
X121270322Y-82003200D02*
X121336989Y-82036533D01*
X121336989Y-82036533D02*
X121470322Y-82036533D01*
X121470322Y-82036533D02*
X121536989Y-82003200D01*
X121536989Y-82003200D02*
X121570322Y-81969866D01*
X121570322Y-81969866D02*
X121603655Y-81903200D01*
X121603655Y-81903200D02*
X121603655Y-81703200D01*
X121603655Y-81703200D02*
X121570322Y-81636533D01*
X121570322Y-81636533D02*
X121536989Y-81603200D01*
X121536989Y-81603200D02*
X121470322Y-81569866D01*
X121470322Y-81569866D02*
X121336989Y-81569866D01*
X121336989Y-81569866D02*
X121270322Y-81603200D01*
X120670322Y-82003200D02*
X120736989Y-82036533D01*
X120736989Y-82036533D02*
X120870322Y-82036533D01*
X120870322Y-82036533D02*
X120936989Y-82003200D01*
X120936989Y-82003200D02*
X120970322Y-81936533D01*
X120970322Y-81936533D02*
X120970322Y-81669866D01*
X120970322Y-81669866D02*
X120936989Y-81603200D01*
X120936989Y-81603200D02*
X120870322Y-81569866D01*
X120870322Y-81569866D02*
X120736989Y-81569866D01*
X120736989Y-81569866D02*
X120670322Y-81603200D01*
X120670322Y-81603200D02*
X120636989Y-81669866D01*
X120636989Y-81669866D02*
X120636989Y-81736533D01*
X120636989Y-81736533D02*
X120970322Y-81803200D01*
X146924649Y-83172611D02*
X146524649Y-83172611D01*
X146724649Y-83872611D02*
X146724649Y-83172611D01*
X146291316Y-83872611D02*
X146291316Y-83172611D01*
X145991316Y-83872611D02*
X145991316Y-83505944D01*
X145991316Y-83505944D02*
X146024649Y-83439278D01*
X146024649Y-83439278D02*
X146091316Y-83405944D01*
X146091316Y-83405944D02*
X146191316Y-83405944D01*
X146191316Y-83405944D02*
X146257983Y-83439278D01*
X146257983Y-83439278D02*
X146291316Y-83472611D01*
X145391316Y-83839278D02*
X145457983Y-83872611D01*
X145457983Y-83872611D02*
X145591316Y-83872611D01*
X145591316Y-83872611D02*
X145657983Y-83839278D01*
X145657983Y-83839278D02*
X145691316Y-83772611D01*
X145691316Y-83772611D02*
X145691316Y-83505944D01*
X145691316Y-83505944D02*
X145657983Y-83439278D01*
X145657983Y-83439278D02*
X145591316Y-83405944D01*
X145591316Y-83405944D02*
X145457983Y-83405944D01*
X145457983Y-83405944D02*
X145391316Y-83439278D01*
X145391316Y-83439278D02*
X145357983Y-83505944D01*
X145357983Y-83505944D02*
X145357983Y-83572611D01*
X145357983Y-83572611D02*
X145691316Y-83639278D01*
X144624650Y-83172611D02*
X144391317Y-83872611D01*
X144391317Y-83872611D02*
X144157983Y-83172611D01*
X143524650Y-83805944D02*
X143557983Y-83839278D01*
X143557983Y-83839278D02*
X143657983Y-83872611D01*
X143657983Y-83872611D02*
X143724650Y-83872611D01*
X143724650Y-83872611D02*
X143824650Y-83839278D01*
X143824650Y-83839278D02*
X143891317Y-83772611D01*
X143891317Y-83772611D02*
X143924650Y-83705944D01*
X143924650Y-83705944D02*
X143957983Y-83572611D01*
X143957983Y-83572611D02*
X143957983Y-83472611D01*
X143957983Y-83472611D02*
X143924650Y-83339278D01*
X143924650Y-83339278D02*
X143891317Y-83272611D01*
X143891317Y-83272611D02*
X143824650Y-83205944D01*
X143824650Y-83205944D02*
X143724650Y-83172611D01*
X143724650Y-83172611D02*
X143657983Y-83172611D01*
X143657983Y-83172611D02*
X143557983Y-83205944D01*
X143557983Y-83205944D02*
X143524650Y-83239278D01*
X143091317Y-83172611D02*
X142957983Y-83172611D01*
X142957983Y-83172611D02*
X142891317Y-83205944D01*
X142891317Y-83205944D02*
X142824650Y-83272611D01*
X142824650Y-83272611D02*
X142791317Y-83405944D01*
X142791317Y-83405944D02*
X142791317Y-83639278D01*
X142791317Y-83639278D02*
X142824650Y-83772611D01*
X142824650Y-83772611D02*
X142891317Y-83839278D01*
X142891317Y-83839278D02*
X142957983Y-83872611D01*
X142957983Y-83872611D02*
X143091317Y-83872611D01*
X143091317Y-83872611D02*
X143157983Y-83839278D01*
X143157983Y-83839278D02*
X143224650Y-83772611D01*
X143224650Y-83772611D02*
X143257983Y-83639278D01*
X143257983Y-83639278D02*
X143257983Y-83405944D01*
X143257983Y-83405944D02*
X143224650Y-83272611D01*
X143224650Y-83272611D02*
X143157983Y-83205944D01*
X143157983Y-83205944D02*
X143091317Y-83172611D01*
X141957984Y-83872611D02*
X141957984Y-83172611D01*
X141957984Y-83172611D02*
X141557984Y-83872611D01*
X141557984Y-83872611D02*
X141557984Y-83172611D01*
X140691318Y-83872611D02*
X140691318Y-83405944D01*
X140691318Y-83539278D02*
X140657985Y-83472611D01*
X140657985Y-83472611D02*
X140624651Y-83439278D01*
X140624651Y-83439278D02*
X140557985Y-83405944D01*
X140557985Y-83405944D02*
X140491318Y-83405944D01*
X139991318Y-83839278D02*
X140057985Y-83872611D01*
X140057985Y-83872611D02*
X140191318Y-83872611D01*
X140191318Y-83872611D02*
X140257985Y-83839278D01*
X140257985Y-83839278D02*
X140291318Y-83772611D01*
X140291318Y-83772611D02*
X140291318Y-83505944D01*
X140291318Y-83505944D02*
X140257985Y-83439278D01*
X140257985Y-83439278D02*
X140191318Y-83405944D01*
X140191318Y-83405944D02*
X140057985Y-83405944D01*
X140057985Y-83405944D02*
X139991318Y-83439278D01*
X139991318Y-83439278D02*
X139957985Y-83505944D01*
X139957985Y-83505944D02*
X139957985Y-83572611D01*
X139957985Y-83572611D02*
X140291318Y-83639278D01*
X139357985Y-83872611D02*
X139357985Y-83505944D01*
X139357985Y-83505944D02*
X139391318Y-83439278D01*
X139391318Y-83439278D02*
X139457985Y-83405944D01*
X139457985Y-83405944D02*
X139591318Y-83405944D01*
X139591318Y-83405944D02*
X139657985Y-83439278D01*
X139357985Y-83839278D02*
X139424652Y-83872611D01*
X139424652Y-83872611D02*
X139591318Y-83872611D01*
X139591318Y-83872611D02*
X139657985Y-83839278D01*
X139657985Y-83839278D02*
X139691318Y-83772611D01*
X139691318Y-83772611D02*
X139691318Y-83705944D01*
X139691318Y-83705944D02*
X139657985Y-83639278D01*
X139657985Y-83639278D02*
X139591318Y-83605944D01*
X139591318Y-83605944D02*
X139424652Y-83605944D01*
X139424652Y-83605944D02*
X139357985Y-83572611D01*
X138724652Y-83872611D02*
X138724652Y-83172611D01*
X138724652Y-83839278D02*
X138791319Y-83872611D01*
X138791319Y-83872611D02*
X138924652Y-83872611D01*
X138924652Y-83872611D02*
X138991319Y-83839278D01*
X138991319Y-83839278D02*
X139024652Y-83805944D01*
X139024652Y-83805944D02*
X139057985Y-83739278D01*
X139057985Y-83739278D02*
X139057985Y-83539278D01*
X139057985Y-83539278D02*
X139024652Y-83472611D01*
X139024652Y-83472611D02*
X138991319Y-83439278D01*
X138991319Y-83439278D02*
X138924652Y-83405944D01*
X138924652Y-83405944D02*
X138791319Y-83405944D01*
X138791319Y-83405944D02*
X138724652Y-83439278D01*
X138424652Y-83839278D02*
X138357986Y-83872611D01*
X138357986Y-83872611D02*
X138224652Y-83872611D01*
X138224652Y-83872611D02*
X138157986Y-83839278D01*
X138157986Y-83839278D02*
X138124652Y-83772611D01*
X138124652Y-83772611D02*
X138124652Y-83739278D01*
X138124652Y-83739278D02*
X138157986Y-83672611D01*
X138157986Y-83672611D02*
X138224652Y-83639278D01*
X138224652Y-83639278D02*
X138324652Y-83639278D01*
X138324652Y-83639278D02*
X138391319Y-83605944D01*
X138391319Y-83605944D02*
X138424652Y-83539278D01*
X138424652Y-83539278D02*
X138424652Y-83505944D01*
X138424652Y-83505944D02*
X138391319Y-83439278D01*
X138391319Y-83439278D02*
X138324652Y-83405944D01*
X138324652Y-83405944D02*
X138224652Y-83405944D01*
X138224652Y-83405944D02*
X138157986Y-83439278D01*
X137391319Y-83405944D02*
X137124652Y-83405944D01*
X137291319Y-83172611D02*
X137291319Y-83772611D01*
X137291319Y-83772611D02*
X137257986Y-83839278D01*
X137257986Y-83839278D02*
X137191319Y-83872611D01*
X137191319Y-83872611D02*
X137124652Y-83872611D01*
X136891319Y-83872611D02*
X136891319Y-83172611D01*
X136591319Y-83872611D02*
X136591319Y-83505944D01*
X136591319Y-83505944D02*
X136624652Y-83439278D01*
X136624652Y-83439278D02*
X136691319Y-83405944D01*
X136691319Y-83405944D02*
X136791319Y-83405944D01*
X136791319Y-83405944D02*
X136857986Y-83439278D01*
X136857986Y-83439278D02*
X136891319Y-83472611D01*
X135991319Y-83839278D02*
X136057986Y-83872611D01*
X136057986Y-83872611D02*
X136191319Y-83872611D01*
X136191319Y-83872611D02*
X136257986Y-83839278D01*
X136257986Y-83839278D02*
X136291319Y-83772611D01*
X136291319Y-83772611D02*
X136291319Y-83505944D01*
X136291319Y-83505944D02*
X136257986Y-83439278D01*
X136257986Y-83439278D02*
X136191319Y-83405944D01*
X136191319Y-83405944D02*
X136057986Y-83405944D01*
X136057986Y-83405944D02*
X135991319Y-83439278D01*
X135991319Y-83439278D02*
X135957986Y-83505944D01*
X135957986Y-83505944D02*
X135957986Y-83572611D01*
X135957986Y-83572611D02*
X136291319Y-83639278D01*
X135224653Y-83405944D02*
X134957986Y-83405944D01*
X135124653Y-83172611D02*
X135124653Y-83772611D01*
X135124653Y-83772611D02*
X135091320Y-83839278D01*
X135091320Y-83839278D02*
X135024653Y-83872611D01*
X135024653Y-83872611D02*
X134957986Y-83872611D01*
X134724653Y-83872611D02*
X134724653Y-83405944D01*
X134724653Y-83172611D02*
X134757986Y-83205944D01*
X134757986Y-83205944D02*
X134724653Y-83239278D01*
X134724653Y-83239278D02*
X134691320Y-83205944D01*
X134691320Y-83205944D02*
X134724653Y-83172611D01*
X134724653Y-83172611D02*
X134724653Y-83239278D01*
X134424653Y-83839278D02*
X134357987Y-83872611D01*
X134357987Y-83872611D02*
X134224653Y-83872611D01*
X134224653Y-83872611D02*
X134157987Y-83839278D01*
X134157987Y-83839278D02*
X134124653Y-83772611D01*
X134124653Y-83772611D02*
X134124653Y-83739278D01*
X134124653Y-83739278D02*
X134157987Y-83672611D01*
X134157987Y-83672611D02*
X134224653Y-83639278D01*
X134224653Y-83639278D02*
X134324653Y-83639278D01*
X134324653Y-83639278D02*
X134391320Y-83605944D01*
X134391320Y-83605944D02*
X134424653Y-83539278D01*
X134424653Y-83539278D02*
X134424653Y-83505944D01*
X134424653Y-83505944D02*
X134391320Y-83439278D01*
X134391320Y-83439278D02*
X134324653Y-83405944D01*
X134324653Y-83405944D02*
X134224653Y-83405944D01*
X134224653Y-83405944D02*
X134157987Y-83439278D01*
X133857986Y-83839278D02*
X133791320Y-83872611D01*
X133791320Y-83872611D02*
X133657986Y-83872611D01*
X133657986Y-83872611D02*
X133591320Y-83839278D01*
X133591320Y-83839278D02*
X133557986Y-83772611D01*
X133557986Y-83772611D02*
X133557986Y-83739278D01*
X133557986Y-83739278D02*
X133591320Y-83672611D01*
X133591320Y-83672611D02*
X133657986Y-83639278D01*
X133657986Y-83639278D02*
X133757986Y-83639278D01*
X133757986Y-83639278D02*
X133824653Y-83605944D01*
X133824653Y-83605944D02*
X133857986Y-83539278D01*
X133857986Y-83539278D02*
X133857986Y-83505944D01*
X133857986Y-83505944D02*
X133824653Y-83439278D01*
X133824653Y-83439278D02*
X133757986Y-83405944D01*
X133757986Y-83405944D02*
X133657986Y-83405944D01*
X133657986Y-83405944D02*
X133591320Y-83439278D01*
X132957986Y-83405944D02*
X132957986Y-83872611D01*
X133257986Y-83405944D02*
X133257986Y-83772611D01*
X133257986Y-83772611D02*
X133224653Y-83839278D01*
X133224653Y-83839278D02*
X133157986Y-83872611D01*
X133157986Y-83872611D02*
X133057986Y-83872611D01*
X133057986Y-83872611D02*
X132991319Y-83839278D01*
X132991319Y-83839278D02*
X132957986Y-83805944D01*
X132357986Y-83839278D02*
X132424653Y-83872611D01*
X132424653Y-83872611D02*
X132557986Y-83872611D01*
X132557986Y-83872611D02*
X132624653Y-83839278D01*
X132624653Y-83839278D02*
X132657986Y-83772611D01*
X132657986Y-83772611D02*
X132657986Y-83505944D01*
X132657986Y-83505944D02*
X132624653Y-83439278D01*
X132624653Y-83439278D02*
X132557986Y-83405944D01*
X132557986Y-83405944D02*
X132424653Y-83405944D01*
X132424653Y-83405944D02*
X132357986Y-83439278D01*
X132357986Y-83439278D02*
X132324653Y-83505944D01*
X132324653Y-83505944D02*
X132324653Y-83572611D01*
X132324653Y-83572611D02*
X132657986Y-83639278D01*
X131991320Y-83172611D02*
X132057986Y-83305944D01*
X131724653Y-83839278D02*
X131657987Y-83872611D01*
X131657987Y-83872611D02*
X131524653Y-83872611D01*
X131524653Y-83872611D02*
X131457987Y-83839278D01*
X131457987Y-83839278D02*
X131424653Y-83772611D01*
X131424653Y-83772611D02*
X131424653Y-83739278D01*
X131424653Y-83739278D02*
X131457987Y-83672611D01*
X131457987Y-83672611D02*
X131524653Y-83639278D01*
X131524653Y-83639278D02*
X131624653Y-83639278D01*
X131624653Y-83639278D02*
X131691320Y-83605944D01*
X131691320Y-83605944D02*
X131724653Y-83539278D01*
X131724653Y-83539278D02*
X131724653Y-83505944D01*
X131724653Y-83505944D02*
X131691320Y-83439278D01*
X131691320Y-83439278D02*
X131624653Y-83405944D01*
X131624653Y-83405944D02*
X131524653Y-83405944D01*
X131524653Y-83405944D02*
X131457987Y-83439278D01*
X130657987Y-83405944D02*
X130491320Y-83872611D01*
X130491320Y-83872611D02*
X130324653Y-83405944D01*
X129957987Y-83872611D02*
X130024654Y-83839278D01*
X130024654Y-83839278D02*
X130057987Y-83805944D01*
X130057987Y-83805944D02*
X130091320Y-83739278D01*
X130091320Y-83739278D02*
X130091320Y-83539278D01*
X130091320Y-83539278D02*
X130057987Y-83472611D01*
X130057987Y-83472611D02*
X130024654Y-83439278D01*
X130024654Y-83439278D02*
X129957987Y-83405944D01*
X129957987Y-83405944D02*
X129857987Y-83405944D01*
X129857987Y-83405944D02*
X129791320Y-83439278D01*
X129791320Y-83439278D02*
X129757987Y-83472611D01*
X129757987Y-83472611D02*
X129724654Y-83539278D01*
X129724654Y-83539278D02*
X129724654Y-83739278D01*
X129724654Y-83739278D02*
X129757987Y-83805944D01*
X129757987Y-83805944D02*
X129791320Y-83839278D01*
X129791320Y-83839278D02*
X129857987Y-83872611D01*
X129857987Y-83872611D02*
X129957987Y-83872611D01*
X129324654Y-83872611D02*
X129391321Y-83839278D01*
X129391321Y-83839278D02*
X129424654Y-83772611D01*
X129424654Y-83772611D02*
X129424654Y-83172611D01*
X129157987Y-83405944D02*
X128891320Y-83405944D01*
X129057987Y-83172611D02*
X129057987Y-83772611D01*
X129057987Y-83772611D02*
X129024654Y-83839278D01*
X129024654Y-83839278D02*
X128957987Y-83872611D01*
X128957987Y-83872611D02*
X128891320Y-83872611D01*
X128357987Y-83872611D02*
X128357987Y-83505944D01*
X128357987Y-83505944D02*
X128391320Y-83439278D01*
X128391320Y-83439278D02*
X128457987Y-83405944D01*
X128457987Y-83405944D02*
X128591320Y-83405944D01*
X128591320Y-83405944D02*
X128657987Y-83439278D01*
X128357987Y-83839278D02*
X128424654Y-83872611D01*
X128424654Y-83872611D02*
X128591320Y-83872611D01*
X128591320Y-83872611D02*
X128657987Y-83839278D01*
X128657987Y-83839278D02*
X128691320Y-83772611D01*
X128691320Y-83772611D02*
X128691320Y-83705944D01*
X128691320Y-83705944D02*
X128657987Y-83639278D01*
X128657987Y-83639278D02*
X128591320Y-83605944D01*
X128591320Y-83605944D02*
X128424654Y-83605944D01*
X128424654Y-83605944D02*
X128357987Y-83572611D01*
X127724654Y-83405944D02*
X127724654Y-83972611D01*
X127724654Y-83972611D02*
X127757987Y-84039278D01*
X127757987Y-84039278D02*
X127791321Y-84072611D01*
X127791321Y-84072611D02*
X127857987Y-84105944D01*
X127857987Y-84105944D02*
X127957987Y-84105944D01*
X127957987Y-84105944D02*
X128024654Y-84072611D01*
X127724654Y-83839278D02*
X127791321Y-83872611D01*
X127791321Y-83872611D02*
X127924654Y-83872611D01*
X127924654Y-83872611D02*
X127991321Y-83839278D01*
X127991321Y-83839278D02*
X128024654Y-83805944D01*
X128024654Y-83805944D02*
X128057987Y-83739278D01*
X128057987Y-83739278D02*
X128057987Y-83539278D01*
X128057987Y-83539278D02*
X128024654Y-83472611D01*
X128024654Y-83472611D02*
X127991321Y-83439278D01*
X127991321Y-83439278D02*
X127924654Y-83405944D01*
X127924654Y-83405944D02*
X127791321Y-83405944D01*
X127791321Y-83405944D02*
X127724654Y-83439278D01*
X127124654Y-83839278D02*
X127191321Y-83872611D01*
X127191321Y-83872611D02*
X127324654Y-83872611D01*
X127324654Y-83872611D02*
X127391321Y-83839278D01*
X127391321Y-83839278D02*
X127424654Y-83772611D01*
X127424654Y-83772611D02*
X127424654Y-83505944D01*
X127424654Y-83505944D02*
X127391321Y-83439278D01*
X127391321Y-83439278D02*
X127324654Y-83405944D01*
X127324654Y-83405944D02*
X127191321Y-83405944D01*
X127191321Y-83405944D02*
X127124654Y-83439278D01*
X127124654Y-83439278D02*
X127091321Y-83505944D01*
X127091321Y-83505944D02*
X127091321Y-83572611D01*
X127091321Y-83572611D02*
X127424654Y-83639278D01*
X146924649Y-84532905D02*
X146657982Y-84532905D01*
X146824649Y-84299572D02*
X146824649Y-84899572D01*
X146824649Y-84899572D02*
X146791316Y-84966239D01*
X146791316Y-84966239D02*
X146724649Y-84999572D01*
X146724649Y-84999572D02*
X146657982Y-84999572D01*
X146324649Y-84999572D02*
X146391316Y-84966239D01*
X146391316Y-84966239D02*
X146424649Y-84932905D01*
X146424649Y-84932905D02*
X146457982Y-84866239D01*
X146457982Y-84866239D02*
X146457982Y-84666239D01*
X146457982Y-84666239D02*
X146424649Y-84599572D01*
X146424649Y-84599572D02*
X146391316Y-84566239D01*
X146391316Y-84566239D02*
X146324649Y-84532905D01*
X146324649Y-84532905D02*
X146224649Y-84532905D01*
X146224649Y-84532905D02*
X146157982Y-84566239D01*
X146157982Y-84566239D02*
X146124649Y-84599572D01*
X146124649Y-84599572D02*
X146091316Y-84666239D01*
X146091316Y-84666239D02*
X146091316Y-84866239D01*
X146091316Y-84866239D02*
X146124649Y-84932905D01*
X146124649Y-84932905D02*
X146157982Y-84966239D01*
X146157982Y-84966239D02*
X146224649Y-84999572D01*
X146224649Y-84999572D02*
X146324649Y-84999572D01*
X144957983Y-84532905D02*
X144957983Y-85099572D01*
X144957983Y-85099572D02*
X144991316Y-85166239D01*
X144991316Y-85166239D02*
X145024650Y-85199572D01*
X145024650Y-85199572D02*
X145091316Y-85232905D01*
X145091316Y-85232905D02*
X145191316Y-85232905D01*
X145191316Y-85232905D02*
X145257983Y-85199572D01*
X144957983Y-84966239D02*
X145024650Y-84999572D01*
X145024650Y-84999572D02*
X145157983Y-84999572D01*
X145157983Y-84999572D02*
X145224650Y-84966239D01*
X145224650Y-84966239D02*
X145257983Y-84932905D01*
X145257983Y-84932905D02*
X145291316Y-84866239D01*
X145291316Y-84866239D02*
X145291316Y-84666239D01*
X145291316Y-84666239D02*
X145257983Y-84599572D01*
X145257983Y-84599572D02*
X145224650Y-84566239D01*
X145224650Y-84566239D02*
X145157983Y-84532905D01*
X145157983Y-84532905D02*
X145024650Y-84532905D01*
X145024650Y-84532905D02*
X144957983Y-84566239D01*
X144357983Y-84966239D02*
X144424650Y-84999572D01*
X144424650Y-84999572D02*
X144557983Y-84999572D01*
X144557983Y-84999572D02*
X144624650Y-84966239D01*
X144624650Y-84966239D02*
X144657983Y-84899572D01*
X144657983Y-84899572D02*
X144657983Y-84632905D01*
X144657983Y-84632905D02*
X144624650Y-84566239D01*
X144624650Y-84566239D02*
X144557983Y-84532905D01*
X144557983Y-84532905D02*
X144424650Y-84532905D01*
X144424650Y-84532905D02*
X144357983Y-84566239D01*
X144357983Y-84566239D02*
X144324650Y-84632905D01*
X144324650Y-84632905D02*
X144324650Y-84699572D01*
X144324650Y-84699572D02*
X144657983Y-84766239D01*
X144124650Y-84532905D02*
X143857983Y-84532905D01*
X144024650Y-84299572D02*
X144024650Y-84899572D01*
X144024650Y-84899572D02*
X143991317Y-84966239D01*
X143991317Y-84966239D02*
X143924650Y-84999572D01*
X143924650Y-84999572D02*
X143857983Y-84999572D01*
X143191317Y-84532905D02*
X142924650Y-84532905D01*
X143091317Y-84299572D02*
X143091317Y-84899572D01*
X143091317Y-84899572D02*
X143057984Y-84966239D01*
X143057984Y-84966239D02*
X142991317Y-84999572D01*
X142991317Y-84999572D02*
X142924650Y-84999572D01*
X142691317Y-84999572D02*
X142691317Y-84299572D01*
X142391317Y-84999572D02*
X142391317Y-84632905D01*
X142391317Y-84632905D02*
X142424650Y-84566239D01*
X142424650Y-84566239D02*
X142491317Y-84532905D01*
X142491317Y-84532905D02*
X142591317Y-84532905D01*
X142591317Y-84532905D02*
X142657984Y-84566239D01*
X142657984Y-84566239D02*
X142691317Y-84599572D01*
X141791317Y-84966239D02*
X141857984Y-84999572D01*
X141857984Y-84999572D02*
X141991317Y-84999572D01*
X141991317Y-84999572D02*
X142057984Y-84966239D01*
X142057984Y-84966239D02*
X142091317Y-84899572D01*
X142091317Y-84899572D02*
X142091317Y-84632905D01*
X142091317Y-84632905D02*
X142057984Y-84566239D01*
X142057984Y-84566239D02*
X141991317Y-84532905D01*
X141991317Y-84532905D02*
X141857984Y-84532905D01*
X141857984Y-84532905D02*
X141791317Y-84566239D01*
X141791317Y-84566239D02*
X141757984Y-84632905D01*
X141757984Y-84632905D02*
X141757984Y-84699572D01*
X141757984Y-84699572D02*
X142091317Y-84766239D01*
X140624651Y-84999572D02*
X140624651Y-84299572D01*
X140624651Y-84966239D02*
X140691318Y-84999572D01*
X140691318Y-84999572D02*
X140824651Y-84999572D01*
X140824651Y-84999572D02*
X140891318Y-84966239D01*
X140891318Y-84966239D02*
X140924651Y-84932905D01*
X140924651Y-84932905D02*
X140957984Y-84866239D01*
X140957984Y-84866239D02*
X140957984Y-84666239D01*
X140957984Y-84666239D02*
X140924651Y-84599572D01*
X140924651Y-84599572D02*
X140891318Y-84566239D01*
X140891318Y-84566239D02*
X140824651Y-84532905D01*
X140824651Y-84532905D02*
X140691318Y-84532905D01*
X140691318Y-84532905D02*
X140624651Y-84566239D01*
X140291318Y-84999572D02*
X140291318Y-84532905D01*
X140291318Y-84666239D02*
X140257985Y-84599572D01*
X140257985Y-84599572D02*
X140224651Y-84566239D01*
X140224651Y-84566239D02*
X140157985Y-84532905D01*
X140157985Y-84532905D02*
X140091318Y-84532905D01*
X139757985Y-84999572D02*
X139824652Y-84966239D01*
X139824652Y-84966239D02*
X139857985Y-84932905D01*
X139857985Y-84932905D02*
X139891318Y-84866239D01*
X139891318Y-84866239D02*
X139891318Y-84666239D01*
X139891318Y-84666239D02*
X139857985Y-84599572D01*
X139857985Y-84599572D02*
X139824652Y-84566239D01*
X139824652Y-84566239D02*
X139757985Y-84532905D01*
X139757985Y-84532905D02*
X139657985Y-84532905D01*
X139657985Y-84532905D02*
X139591318Y-84566239D01*
X139591318Y-84566239D02*
X139557985Y-84599572D01*
X139557985Y-84599572D02*
X139524652Y-84666239D01*
X139524652Y-84666239D02*
X139524652Y-84866239D01*
X139524652Y-84866239D02*
X139557985Y-84932905D01*
X139557985Y-84932905D02*
X139591318Y-84966239D01*
X139591318Y-84966239D02*
X139657985Y-84999572D01*
X139657985Y-84999572D02*
X139757985Y-84999572D01*
X139224652Y-84532905D02*
X139224652Y-85232905D01*
X139224652Y-84566239D02*
X139157985Y-84532905D01*
X139157985Y-84532905D02*
X139024652Y-84532905D01*
X139024652Y-84532905D02*
X138957985Y-84566239D01*
X138957985Y-84566239D02*
X138924652Y-84599572D01*
X138924652Y-84599572D02*
X138891319Y-84666239D01*
X138891319Y-84666239D02*
X138891319Y-84866239D01*
X138891319Y-84866239D02*
X138924652Y-84932905D01*
X138924652Y-84932905D02*
X138957985Y-84966239D01*
X138957985Y-84966239D02*
X139024652Y-84999572D01*
X139024652Y-84999572D02*
X139157985Y-84999572D01*
X139157985Y-84999572D02*
X139224652Y-84966239D01*
X138157986Y-84532905D02*
X137891319Y-84532905D01*
X138057986Y-84999572D02*
X138057986Y-84399572D01*
X138057986Y-84399572D02*
X138024653Y-84332905D01*
X138024653Y-84332905D02*
X137957986Y-84299572D01*
X137957986Y-84299572D02*
X137891319Y-84299572D01*
X137657986Y-84999572D02*
X137657986Y-84532905D01*
X137657986Y-84666239D02*
X137624653Y-84599572D01*
X137624653Y-84599572D02*
X137591319Y-84566239D01*
X137591319Y-84566239D02*
X137524653Y-84532905D01*
X137524653Y-84532905D02*
X137457986Y-84532905D01*
X137124653Y-84999572D02*
X137191320Y-84966239D01*
X137191320Y-84966239D02*
X137224653Y-84932905D01*
X137224653Y-84932905D02*
X137257986Y-84866239D01*
X137257986Y-84866239D02*
X137257986Y-84666239D01*
X137257986Y-84666239D02*
X137224653Y-84599572D01*
X137224653Y-84599572D02*
X137191320Y-84566239D01*
X137191320Y-84566239D02*
X137124653Y-84532905D01*
X137124653Y-84532905D02*
X137024653Y-84532905D01*
X137024653Y-84532905D02*
X136957986Y-84566239D01*
X136957986Y-84566239D02*
X136924653Y-84599572D01*
X136924653Y-84599572D02*
X136891320Y-84666239D01*
X136891320Y-84666239D02*
X136891320Y-84866239D01*
X136891320Y-84866239D02*
X136924653Y-84932905D01*
X136924653Y-84932905D02*
X136957986Y-84966239D01*
X136957986Y-84966239D02*
X137024653Y-84999572D01*
X137024653Y-84999572D02*
X137124653Y-84999572D01*
X136591320Y-84999572D02*
X136591320Y-84532905D01*
X136591320Y-84599572D02*
X136557987Y-84566239D01*
X136557987Y-84566239D02*
X136491320Y-84532905D01*
X136491320Y-84532905D02*
X136391320Y-84532905D01*
X136391320Y-84532905D02*
X136324653Y-84566239D01*
X136324653Y-84566239D02*
X136291320Y-84632905D01*
X136291320Y-84632905D02*
X136291320Y-84999572D01*
X136291320Y-84632905D02*
X136257987Y-84566239D01*
X136257987Y-84566239D02*
X136191320Y-84532905D01*
X136191320Y-84532905D02*
X136091320Y-84532905D01*
X136091320Y-84532905D02*
X136024653Y-84566239D01*
X136024653Y-84566239D02*
X135991320Y-84632905D01*
X135991320Y-84632905D02*
X135991320Y-84999572D01*
X135224654Y-84532905D02*
X134957987Y-84532905D01*
X135124654Y-84299572D02*
X135124654Y-84899572D01*
X135124654Y-84899572D02*
X135091321Y-84966239D01*
X135091321Y-84966239D02*
X135024654Y-84999572D01*
X135024654Y-84999572D02*
X134957987Y-84999572D01*
X134724654Y-84999572D02*
X134724654Y-84299572D01*
X134424654Y-84999572D02*
X134424654Y-84632905D01*
X134424654Y-84632905D02*
X134457987Y-84566239D01*
X134457987Y-84566239D02*
X134524654Y-84532905D01*
X134524654Y-84532905D02*
X134624654Y-84532905D01*
X134624654Y-84532905D02*
X134691321Y-84566239D01*
X134691321Y-84566239D02*
X134724654Y-84599572D01*
X133824654Y-84966239D02*
X133891321Y-84999572D01*
X133891321Y-84999572D02*
X134024654Y-84999572D01*
X134024654Y-84999572D02*
X134091321Y-84966239D01*
X134091321Y-84966239D02*
X134124654Y-84899572D01*
X134124654Y-84899572D02*
X134124654Y-84632905D01*
X134124654Y-84632905D02*
X134091321Y-84566239D01*
X134091321Y-84566239D02*
X134024654Y-84532905D01*
X134024654Y-84532905D02*
X133891321Y-84532905D01*
X133891321Y-84532905D02*
X133824654Y-84566239D01*
X133824654Y-84566239D02*
X133791321Y-84632905D01*
X133791321Y-84632905D02*
X133791321Y-84699572D01*
X133791321Y-84699572D02*
X134124654Y-84766239D01*
X132657988Y-84966239D02*
X132724655Y-84999572D01*
X132724655Y-84999572D02*
X132857988Y-84999572D01*
X132857988Y-84999572D02*
X132924655Y-84966239D01*
X132924655Y-84966239D02*
X132957988Y-84932905D01*
X132957988Y-84932905D02*
X132991321Y-84866239D01*
X132991321Y-84866239D02*
X132991321Y-84666239D01*
X132991321Y-84666239D02*
X132957988Y-84599572D01*
X132957988Y-84599572D02*
X132924655Y-84566239D01*
X132924655Y-84566239D02*
X132857988Y-84532905D01*
X132857988Y-84532905D02*
X132724655Y-84532905D01*
X132724655Y-84532905D02*
X132657988Y-84566239D01*
X132057988Y-84532905D02*
X132057988Y-84999572D01*
X132357988Y-84532905D02*
X132357988Y-84899572D01*
X132357988Y-84899572D02*
X132324655Y-84966239D01*
X132324655Y-84966239D02*
X132257988Y-84999572D01*
X132257988Y-84999572D02*
X132157988Y-84999572D01*
X132157988Y-84999572D02*
X132091321Y-84966239D01*
X132091321Y-84966239D02*
X132057988Y-84932905D01*
X131724655Y-84999572D02*
X131724655Y-84532905D01*
X131724655Y-84666239D02*
X131691322Y-84599572D01*
X131691322Y-84599572D02*
X131657988Y-84566239D01*
X131657988Y-84566239D02*
X131591322Y-84532905D01*
X131591322Y-84532905D02*
X131524655Y-84532905D01*
X131291322Y-84999572D02*
X131291322Y-84532905D01*
X131291322Y-84666239D02*
X131257989Y-84599572D01*
X131257989Y-84599572D02*
X131224655Y-84566239D01*
X131224655Y-84566239D02*
X131157989Y-84532905D01*
X131157989Y-84532905D02*
X131091322Y-84532905D01*
X130591322Y-84966239D02*
X130657989Y-84999572D01*
X130657989Y-84999572D02*
X130791322Y-84999572D01*
X130791322Y-84999572D02*
X130857989Y-84966239D01*
X130857989Y-84966239D02*
X130891322Y-84899572D01*
X130891322Y-84899572D02*
X130891322Y-84632905D01*
X130891322Y-84632905D02*
X130857989Y-84566239D01*
X130857989Y-84566239D02*
X130791322Y-84532905D01*
X130791322Y-84532905D02*
X130657989Y-84532905D01*
X130657989Y-84532905D02*
X130591322Y-84566239D01*
X130591322Y-84566239D02*
X130557989Y-84632905D01*
X130557989Y-84632905D02*
X130557989Y-84699572D01*
X130557989Y-84699572D02*
X130891322Y-84766239D01*
X130257989Y-84532905D02*
X130257989Y-84999572D01*
X130257989Y-84599572D02*
X130224656Y-84566239D01*
X130224656Y-84566239D02*
X130157989Y-84532905D01*
X130157989Y-84532905D02*
X130057989Y-84532905D01*
X130057989Y-84532905D02*
X129991322Y-84566239D01*
X129991322Y-84566239D02*
X129957989Y-84632905D01*
X129957989Y-84632905D02*
X129957989Y-84999572D01*
X129724656Y-84532905D02*
X129457989Y-84532905D01*
X129624656Y-84299572D02*
X129624656Y-84899572D01*
X129624656Y-84899572D02*
X129591323Y-84966239D01*
X129591323Y-84966239D02*
X129524656Y-84999572D01*
X129524656Y-84999572D02*
X129457989Y-84999572D01*
X128391323Y-84999572D02*
X128391323Y-84299572D01*
X128391323Y-84966239D02*
X128457990Y-84999572D01*
X128457990Y-84999572D02*
X128591323Y-84999572D01*
X128591323Y-84999572D02*
X128657990Y-84966239D01*
X128657990Y-84966239D02*
X128691323Y-84932905D01*
X128691323Y-84932905D02*
X128724656Y-84866239D01*
X128724656Y-84866239D02*
X128724656Y-84666239D01*
X128724656Y-84666239D02*
X128691323Y-84599572D01*
X128691323Y-84599572D02*
X128657990Y-84566239D01*
X128657990Y-84566239D02*
X128591323Y-84532905D01*
X128591323Y-84532905D02*
X128457990Y-84532905D01*
X128457990Y-84532905D02*
X128391323Y-84566239D01*
X128057990Y-84999572D02*
X128057990Y-84532905D01*
X128057990Y-84666239D02*
X128024657Y-84599572D01*
X128024657Y-84599572D02*
X127991323Y-84566239D01*
X127991323Y-84566239D02*
X127924657Y-84532905D01*
X127924657Y-84532905D02*
X127857990Y-84532905D01*
X127324657Y-84999572D02*
X127324657Y-84632905D01*
X127324657Y-84632905D02*
X127357990Y-84566239D01*
X127357990Y-84566239D02*
X127424657Y-84532905D01*
X127424657Y-84532905D02*
X127557990Y-84532905D01*
X127557990Y-84532905D02*
X127624657Y-84566239D01*
X127324657Y-84966239D02*
X127391324Y-84999572D01*
X127391324Y-84999572D02*
X127557990Y-84999572D01*
X127557990Y-84999572D02*
X127624657Y-84966239D01*
X127624657Y-84966239D02*
X127657990Y-84899572D01*
X127657990Y-84899572D02*
X127657990Y-84832905D01*
X127657990Y-84832905D02*
X127624657Y-84766239D01*
X127624657Y-84766239D02*
X127557990Y-84732905D01*
X127557990Y-84732905D02*
X127391324Y-84732905D01*
X127391324Y-84732905D02*
X127324657Y-84699572D01*
X126991324Y-84999572D02*
X126991324Y-84532905D01*
X126991324Y-84299572D02*
X127024657Y-84332905D01*
X127024657Y-84332905D02*
X126991324Y-84366239D01*
X126991324Y-84366239D02*
X126957991Y-84332905D01*
X126957991Y-84332905D02*
X126991324Y-84299572D01*
X126991324Y-84299572D02*
X126991324Y-84366239D01*
X126657991Y-84532905D02*
X126657991Y-84999572D01*
X126657991Y-84599572D02*
X126624658Y-84566239D01*
X126624658Y-84566239D02*
X126557991Y-84532905D01*
X126557991Y-84532905D02*
X126457991Y-84532905D01*
X126457991Y-84532905D02*
X126391324Y-84566239D01*
X126391324Y-84566239D02*
X126357991Y-84632905D01*
X126357991Y-84632905D02*
X126357991Y-84999572D01*
X125757991Y-84966239D02*
X125824658Y-84999572D01*
X125824658Y-84999572D02*
X125957991Y-84999572D01*
X125957991Y-84999572D02*
X126024658Y-84966239D01*
X126024658Y-84966239D02*
X126057991Y-84899572D01*
X126057991Y-84899572D02*
X126057991Y-84632905D01*
X126057991Y-84632905D02*
X126024658Y-84566239D01*
X126024658Y-84566239D02*
X125957991Y-84532905D01*
X125957991Y-84532905D02*
X125824658Y-84532905D01*
X125824658Y-84532905D02*
X125757991Y-84566239D01*
X125757991Y-84566239D02*
X125724658Y-84632905D01*
X125724658Y-84632905D02*
X125724658Y-84699572D01*
X125724658Y-84699572D02*
X126057991Y-84766239D01*
X125124658Y-84999572D02*
X125124658Y-84299572D01*
X125124658Y-84966239D02*
X125191325Y-84999572D01*
X125191325Y-84999572D02*
X125324658Y-84999572D01*
X125324658Y-84999572D02*
X125391325Y-84966239D01*
X125391325Y-84966239D02*
X125424658Y-84932905D01*
X125424658Y-84932905D02*
X125457991Y-84866239D01*
X125457991Y-84866239D02*
X125457991Y-84666239D01*
X125457991Y-84666239D02*
X125424658Y-84599572D01*
X125424658Y-84599572D02*
X125391325Y-84566239D01*
X125391325Y-84566239D02*
X125324658Y-84532905D01*
X125324658Y-84532905D02*
X125191325Y-84532905D01*
X125191325Y-84532905D02*
X125124658Y-84566239D01*
X146824649Y-86126533D02*
X146824649Y-85426533D01*
X146824649Y-85693200D02*
X146757982Y-85659866D01*
X146757982Y-85659866D02*
X146624649Y-85659866D01*
X146624649Y-85659866D02*
X146557982Y-85693200D01*
X146557982Y-85693200D02*
X146524649Y-85726533D01*
X146524649Y-85726533D02*
X146491316Y-85793200D01*
X146491316Y-85793200D02*
X146491316Y-85993200D01*
X146491316Y-85993200D02*
X146524649Y-86059866D01*
X146524649Y-86059866D02*
X146557982Y-86093200D01*
X146557982Y-86093200D02*
X146624649Y-86126533D01*
X146624649Y-86126533D02*
X146757982Y-86126533D01*
X146757982Y-86126533D02*
X146824649Y-86093200D01*
X146257983Y-85659866D02*
X146091316Y-86126533D01*
X145924649Y-85659866D02*
X146091316Y-86126533D01*
X146091316Y-86126533D02*
X146157983Y-86293200D01*
X146157983Y-86293200D02*
X146191316Y-86326533D01*
X146191316Y-86326533D02*
X146257983Y-86359866D01*
X145224650Y-85659866D02*
X144957983Y-85659866D01*
X145124650Y-85426533D02*
X145124650Y-86026533D01*
X145124650Y-86026533D02*
X145091317Y-86093200D01*
X145091317Y-86093200D02*
X145024650Y-86126533D01*
X145024650Y-86126533D02*
X144957983Y-86126533D01*
X144724650Y-86126533D02*
X144724650Y-85426533D01*
X144424650Y-86126533D02*
X144424650Y-85759866D01*
X144424650Y-85759866D02*
X144457983Y-85693200D01*
X144457983Y-85693200D02*
X144524650Y-85659866D01*
X144524650Y-85659866D02*
X144624650Y-85659866D01*
X144624650Y-85659866D02*
X144691317Y-85693200D01*
X144691317Y-85693200D02*
X144724650Y-85726533D01*
X143824650Y-86093200D02*
X143891317Y-86126533D01*
X143891317Y-86126533D02*
X144024650Y-86126533D01*
X144024650Y-86126533D02*
X144091317Y-86093200D01*
X144091317Y-86093200D02*
X144124650Y-86026533D01*
X144124650Y-86026533D02*
X144124650Y-85759866D01*
X144124650Y-85759866D02*
X144091317Y-85693200D01*
X144091317Y-85693200D02*
X144024650Y-85659866D01*
X144024650Y-85659866D02*
X143891317Y-85659866D01*
X143891317Y-85659866D02*
X143824650Y-85693200D01*
X143824650Y-85693200D02*
X143791317Y-85759866D01*
X143791317Y-85759866D02*
X143791317Y-85826533D01*
X143791317Y-85826533D02*
X144124650Y-85893200D01*
X142857984Y-85726533D02*
X142924651Y-85693200D01*
X142924651Y-85693200D02*
X142957984Y-85659866D01*
X142957984Y-85659866D02*
X142991317Y-85593200D01*
X142991317Y-85593200D02*
X142991317Y-85559866D01*
X142991317Y-85559866D02*
X142957984Y-85493200D01*
X142957984Y-85493200D02*
X142924651Y-85459866D01*
X142924651Y-85459866D02*
X142857984Y-85426533D01*
X142857984Y-85426533D02*
X142724651Y-85426533D01*
X142724651Y-85426533D02*
X142657984Y-85459866D01*
X142657984Y-85459866D02*
X142624651Y-85493200D01*
X142624651Y-85493200D02*
X142591317Y-85559866D01*
X142591317Y-85559866D02*
X142591317Y-85593200D01*
X142591317Y-85593200D02*
X142624651Y-85659866D01*
X142624651Y-85659866D02*
X142657984Y-85693200D01*
X142657984Y-85693200D02*
X142724651Y-85726533D01*
X142724651Y-85726533D02*
X142857984Y-85726533D01*
X142857984Y-85726533D02*
X142924651Y-85759866D01*
X142924651Y-85759866D02*
X142957984Y-85793200D01*
X142957984Y-85793200D02*
X142991317Y-85859866D01*
X142991317Y-85859866D02*
X142991317Y-85993200D01*
X142991317Y-85993200D02*
X142957984Y-86059866D01*
X142957984Y-86059866D02*
X142924651Y-86093200D01*
X142924651Y-86093200D02*
X142857984Y-86126533D01*
X142857984Y-86126533D02*
X142724651Y-86126533D01*
X142724651Y-86126533D02*
X142657984Y-86093200D01*
X142657984Y-86093200D02*
X142624651Y-86059866D01*
X142624651Y-86059866D02*
X142591317Y-85993200D01*
X142591317Y-85993200D02*
X142591317Y-85859866D01*
X142591317Y-85859866D02*
X142624651Y-85793200D01*
X142624651Y-85793200D02*
X142657984Y-85759866D01*
X142657984Y-85759866D02*
X142724651Y-85726533D01*
X142291317Y-85859866D02*
X141757984Y-85859866D01*
X141424650Y-86126533D02*
X141424650Y-85426533D01*
X141424650Y-85693200D02*
X141357983Y-85659866D01*
X141357983Y-85659866D02*
X141224650Y-85659866D01*
X141224650Y-85659866D02*
X141157983Y-85693200D01*
X141157983Y-85693200D02*
X141124650Y-85726533D01*
X141124650Y-85726533D02*
X141091317Y-85793200D01*
X141091317Y-85793200D02*
X141091317Y-85993200D01*
X141091317Y-85993200D02*
X141124650Y-86059866D01*
X141124650Y-86059866D02*
X141157983Y-86093200D01*
X141157983Y-86093200D02*
X141224650Y-86126533D01*
X141224650Y-86126533D02*
X141357983Y-86126533D01*
X141357983Y-86126533D02*
X141424650Y-86093200D01*
X140791317Y-86126533D02*
X140791317Y-85659866D01*
X140791317Y-85426533D02*
X140824650Y-85459866D01*
X140824650Y-85459866D02*
X140791317Y-85493200D01*
X140791317Y-85493200D02*
X140757984Y-85459866D01*
X140757984Y-85459866D02*
X140791317Y-85426533D01*
X140791317Y-85426533D02*
X140791317Y-85493200D01*
X140557984Y-85659866D02*
X140291317Y-85659866D01*
X140457984Y-85426533D02*
X140457984Y-86026533D01*
X140457984Y-86026533D02*
X140424651Y-86093200D01*
X140424651Y-86093200D02*
X140357984Y-86126533D01*
X140357984Y-86126533D02*
X140291317Y-86126533D01*
X139524651Y-86126533D02*
X139524651Y-85659866D01*
X139524651Y-85426533D02*
X139557984Y-85459866D01*
X139557984Y-85459866D02*
X139524651Y-85493200D01*
X139524651Y-85493200D02*
X139491318Y-85459866D01*
X139491318Y-85459866D02*
X139524651Y-85426533D01*
X139524651Y-85426533D02*
X139524651Y-85493200D01*
X139191318Y-86126533D02*
X139191318Y-85426533D01*
X139191318Y-85426533D02*
X139024651Y-85426533D01*
X139024651Y-85426533D02*
X138924651Y-85459866D01*
X138924651Y-85459866D02*
X138857985Y-85526533D01*
X138857985Y-85526533D02*
X138824651Y-85593200D01*
X138824651Y-85593200D02*
X138791318Y-85726533D01*
X138791318Y-85726533D02*
X138791318Y-85826533D01*
X138791318Y-85826533D02*
X138824651Y-85959866D01*
X138824651Y-85959866D02*
X138857985Y-86026533D01*
X138857985Y-86026533D02*
X138924651Y-86093200D01*
X138924651Y-86093200D02*
X139024651Y-86126533D01*
X139024651Y-86126533D02*
X139191318Y-86126533D01*
X138524651Y-85926533D02*
X138191318Y-85926533D01*
X138591318Y-86126533D02*
X138357985Y-85426533D01*
X138357985Y-85426533D02*
X138124651Y-86126533D01*
X137491318Y-86059866D02*
X137524651Y-86093200D01*
X137524651Y-86093200D02*
X137624651Y-86126533D01*
X137624651Y-86126533D02*
X137691318Y-86126533D01*
X137691318Y-86126533D02*
X137791318Y-86093200D01*
X137791318Y-86093200D02*
X137857985Y-86026533D01*
X137857985Y-86026533D02*
X137891318Y-85959866D01*
X137891318Y-85959866D02*
X137924651Y-85826533D01*
X137924651Y-85826533D02*
X137924651Y-85726533D01*
X137924651Y-85726533D02*
X137891318Y-85593200D01*
X137891318Y-85593200D02*
X137857985Y-85526533D01*
X137857985Y-85526533D02*
X137791318Y-85459866D01*
X137791318Y-85459866D02*
X137691318Y-85426533D01*
X137691318Y-85426533D02*
X137624651Y-85426533D01*
X137624651Y-85426533D02*
X137524651Y-85459866D01*
X137524651Y-85459866D02*
X137491318Y-85493200D01*
X147034649Y-87512611D02*
X146634649Y-87512611D01*
X146834649Y-88212611D02*
X146834649Y-87512611D01*
X146401316Y-88212611D02*
X146401316Y-87512611D01*
X146101316Y-88212611D02*
X146101316Y-87845944D01*
X146101316Y-87845944D02*
X146134649Y-87779278D01*
X146134649Y-87779278D02*
X146201316Y-87745944D01*
X146201316Y-87745944D02*
X146301316Y-87745944D01*
X146301316Y-87745944D02*
X146367983Y-87779278D01*
X146367983Y-87779278D02*
X146401316Y-87812611D01*
X145501316Y-88179278D02*
X145567983Y-88212611D01*
X145567983Y-88212611D02*
X145701316Y-88212611D01*
X145701316Y-88212611D02*
X145767983Y-88179278D01*
X145767983Y-88179278D02*
X145801316Y-88112611D01*
X145801316Y-88112611D02*
X145801316Y-87845944D01*
X145801316Y-87845944D02*
X145767983Y-87779278D01*
X145767983Y-87779278D02*
X145701316Y-87745944D01*
X145701316Y-87745944D02*
X145567983Y-87745944D01*
X145567983Y-87745944D02*
X145501316Y-87779278D01*
X145501316Y-87779278D02*
X145467983Y-87845944D01*
X145467983Y-87845944D02*
X145467983Y-87912611D01*
X145467983Y-87912611D02*
X145801316Y-87979278D01*
X144301317Y-88212611D02*
X144634650Y-88212611D01*
X144634650Y-88212611D02*
X144634650Y-87512611D01*
X144067983Y-88212611D02*
X144067983Y-87512611D01*
X144067983Y-87512611D02*
X143901316Y-87512611D01*
X143901316Y-87512611D02*
X143801316Y-87545944D01*
X143801316Y-87545944D02*
X143734650Y-87612611D01*
X143734650Y-87612611D02*
X143701316Y-87679278D01*
X143701316Y-87679278D02*
X143667983Y-87812611D01*
X143667983Y-87812611D02*
X143667983Y-87912611D01*
X143667983Y-87912611D02*
X143701316Y-88045944D01*
X143701316Y-88045944D02*
X143734650Y-88112611D01*
X143734650Y-88112611D02*
X143801316Y-88179278D01*
X143801316Y-88179278D02*
X143901316Y-88212611D01*
X143901316Y-88212611D02*
X144067983Y-88212611D01*
X143234650Y-87512611D02*
X143101316Y-87512611D01*
X143101316Y-87512611D02*
X143034650Y-87545944D01*
X143034650Y-87545944D02*
X142967983Y-87612611D01*
X142967983Y-87612611D02*
X142934650Y-87745944D01*
X142934650Y-87745944D02*
X142934650Y-87979278D01*
X142934650Y-87979278D02*
X142967983Y-88112611D01*
X142967983Y-88112611D02*
X143034650Y-88179278D01*
X143034650Y-88179278D02*
X143101316Y-88212611D01*
X143101316Y-88212611D02*
X143234650Y-88212611D01*
X143234650Y-88212611D02*
X143301316Y-88179278D01*
X143301316Y-88179278D02*
X143367983Y-88112611D01*
X143367983Y-88112611D02*
X143401316Y-87979278D01*
X143401316Y-87979278D02*
X143401316Y-87745944D01*
X143401316Y-87745944D02*
X143367983Y-87612611D01*
X143367983Y-87612611D02*
X143301316Y-87545944D01*
X143301316Y-87545944D02*
X143234650Y-87512611D01*
X141801317Y-87745944D02*
X141801317Y-88312611D01*
X141801317Y-88312611D02*
X141834650Y-88379278D01*
X141834650Y-88379278D02*
X141867984Y-88412611D01*
X141867984Y-88412611D02*
X141934650Y-88445944D01*
X141934650Y-88445944D02*
X142034650Y-88445944D01*
X142034650Y-88445944D02*
X142101317Y-88412611D01*
X141801317Y-88179278D02*
X141867984Y-88212611D01*
X141867984Y-88212611D02*
X142001317Y-88212611D01*
X142001317Y-88212611D02*
X142067984Y-88179278D01*
X142067984Y-88179278D02*
X142101317Y-88145944D01*
X142101317Y-88145944D02*
X142134650Y-88079278D01*
X142134650Y-88079278D02*
X142134650Y-87879278D01*
X142134650Y-87879278D02*
X142101317Y-87812611D01*
X142101317Y-87812611D02*
X142067984Y-87779278D01*
X142067984Y-87779278D02*
X142001317Y-87745944D01*
X142001317Y-87745944D02*
X141867984Y-87745944D01*
X141867984Y-87745944D02*
X141801317Y-87779278D01*
X141201317Y-88179278D02*
X141267984Y-88212611D01*
X141267984Y-88212611D02*
X141401317Y-88212611D01*
X141401317Y-88212611D02*
X141467984Y-88179278D01*
X141467984Y-88179278D02*
X141501317Y-88112611D01*
X141501317Y-88112611D02*
X141501317Y-87845944D01*
X141501317Y-87845944D02*
X141467984Y-87779278D01*
X141467984Y-87779278D02*
X141401317Y-87745944D01*
X141401317Y-87745944D02*
X141267984Y-87745944D01*
X141267984Y-87745944D02*
X141201317Y-87779278D01*
X141201317Y-87779278D02*
X141167984Y-87845944D01*
X141167984Y-87845944D02*
X141167984Y-87912611D01*
X141167984Y-87912611D02*
X141501317Y-87979278D01*
X140867984Y-87745944D02*
X140867984Y-88212611D01*
X140867984Y-87812611D02*
X140834651Y-87779278D01*
X140834651Y-87779278D02*
X140767984Y-87745944D01*
X140767984Y-87745944D02*
X140667984Y-87745944D01*
X140667984Y-87745944D02*
X140601317Y-87779278D01*
X140601317Y-87779278D02*
X140567984Y-87845944D01*
X140567984Y-87845944D02*
X140567984Y-88212611D01*
X139967984Y-88179278D02*
X140034651Y-88212611D01*
X140034651Y-88212611D02*
X140167984Y-88212611D01*
X140167984Y-88212611D02*
X140234651Y-88179278D01*
X140234651Y-88179278D02*
X140267984Y-88112611D01*
X140267984Y-88112611D02*
X140267984Y-87845944D01*
X140267984Y-87845944D02*
X140234651Y-87779278D01*
X140234651Y-87779278D02*
X140167984Y-87745944D01*
X140167984Y-87745944D02*
X140034651Y-87745944D01*
X140034651Y-87745944D02*
X139967984Y-87779278D01*
X139967984Y-87779278D02*
X139934651Y-87845944D01*
X139934651Y-87845944D02*
X139934651Y-87912611D01*
X139934651Y-87912611D02*
X140267984Y-87979278D01*
X139634651Y-88212611D02*
X139634651Y-87745944D01*
X139634651Y-87879278D02*
X139601318Y-87812611D01*
X139601318Y-87812611D02*
X139567984Y-87779278D01*
X139567984Y-87779278D02*
X139501318Y-87745944D01*
X139501318Y-87745944D02*
X139434651Y-87745944D01*
X138901318Y-88212611D02*
X138901318Y-87845944D01*
X138901318Y-87845944D02*
X138934651Y-87779278D01*
X138934651Y-87779278D02*
X139001318Y-87745944D01*
X139001318Y-87745944D02*
X139134651Y-87745944D01*
X139134651Y-87745944D02*
X139201318Y-87779278D01*
X138901318Y-88179278D02*
X138967985Y-88212611D01*
X138967985Y-88212611D02*
X139134651Y-88212611D01*
X139134651Y-88212611D02*
X139201318Y-88179278D01*
X139201318Y-88179278D02*
X139234651Y-88112611D01*
X139234651Y-88112611D02*
X139234651Y-88045944D01*
X139234651Y-88045944D02*
X139201318Y-87979278D01*
X139201318Y-87979278D02*
X139134651Y-87945944D01*
X139134651Y-87945944D02*
X138967985Y-87945944D01*
X138967985Y-87945944D02*
X138901318Y-87912611D01*
X138667985Y-87745944D02*
X138401318Y-87745944D01*
X138567985Y-87512611D02*
X138567985Y-88112611D01*
X138567985Y-88112611D02*
X138534652Y-88179278D01*
X138534652Y-88179278D02*
X138467985Y-88212611D01*
X138467985Y-88212611D02*
X138401318Y-88212611D01*
X137901318Y-88179278D02*
X137967985Y-88212611D01*
X137967985Y-88212611D02*
X138101318Y-88212611D01*
X138101318Y-88212611D02*
X138167985Y-88179278D01*
X138167985Y-88179278D02*
X138201318Y-88112611D01*
X138201318Y-88112611D02*
X138201318Y-87845944D01*
X138201318Y-87845944D02*
X138167985Y-87779278D01*
X138167985Y-87779278D02*
X138101318Y-87745944D01*
X138101318Y-87745944D02*
X137967985Y-87745944D01*
X137967985Y-87745944D02*
X137901318Y-87779278D01*
X137901318Y-87779278D02*
X137867985Y-87845944D01*
X137867985Y-87845944D02*
X137867985Y-87912611D01*
X137867985Y-87912611D02*
X138201318Y-87979278D01*
X137601318Y-88179278D02*
X137534652Y-88212611D01*
X137534652Y-88212611D02*
X137401318Y-88212611D01*
X137401318Y-88212611D02*
X137334652Y-88179278D01*
X137334652Y-88179278D02*
X137301318Y-88112611D01*
X137301318Y-88112611D02*
X137301318Y-88079278D01*
X137301318Y-88079278D02*
X137334652Y-88012611D01*
X137334652Y-88012611D02*
X137401318Y-87979278D01*
X137401318Y-87979278D02*
X137501318Y-87979278D01*
X137501318Y-87979278D02*
X137567985Y-87945944D01*
X137567985Y-87945944D02*
X137601318Y-87879278D01*
X137601318Y-87879278D02*
X137601318Y-87845944D01*
X137601318Y-87845944D02*
X137567985Y-87779278D01*
X137567985Y-87779278D02*
X137501318Y-87745944D01*
X137501318Y-87745944D02*
X137401318Y-87745944D01*
X137401318Y-87745944D02*
X137334652Y-87779278D01*
X136334652Y-87512611D02*
X136267985Y-87512611D01*
X136267985Y-87512611D02*
X136201318Y-87545944D01*
X136201318Y-87545944D02*
X136167985Y-87579278D01*
X136167985Y-87579278D02*
X136134652Y-87645944D01*
X136134652Y-87645944D02*
X136101318Y-87779278D01*
X136101318Y-87779278D02*
X136101318Y-87945944D01*
X136101318Y-87945944D02*
X136134652Y-88079278D01*
X136134652Y-88079278D02*
X136167985Y-88145944D01*
X136167985Y-88145944D02*
X136201318Y-88179278D01*
X136201318Y-88179278D02*
X136267985Y-88212611D01*
X136267985Y-88212611D02*
X136334652Y-88212611D01*
X136334652Y-88212611D02*
X136401318Y-88179278D01*
X136401318Y-88179278D02*
X136434652Y-88145944D01*
X136434652Y-88145944D02*
X136467985Y-88079278D01*
X136467985Y-88079278D02*
X136501318Y-87945944D01*
X136501318Y-87945944D02*
X136501318Y-87779278D01*
X136501318Y-87779278D02*
X136467985Y-87645944D01*
X136467985Y-87645944D02*
X136434652Y-87579278D01*
X136434652Y-87579278D02*
X136401318Y-87545944D01*
X136401318Y-87545944D02*
X136334652Y-87512611D01*
X135801318Y-88145944D02*
X135767985Y-88179278D01*
X135767985Y-88179278D02*
X135801318Y-88212611D01*
X135801318Y-88212611D02*
X135834651Y-88179278D01*
X135834651Y-88179278D02*
X135801318Y-88145944D01*
X135801318Y-88145944D02*
X135801318Y-88212611D01*
X135367985Y-87812611D02*
X135434652Y-87779278D01*
X135434652Y-87779278D02*
X135467985Y-87745944D01*
X135467985Y-87745944D02*
X135501318Y-87679278D01*
X135501318Y-87679278D02*
X135501318Y-87645944D01*
X135501318Y-87645944D02*
X135467985Y-87579278D01*
X135467985Y-87579278D02*
X135434652Y-87545944D01*
X135434652Y-87545944D02*
X135367985Y-87512611D01*
X135367985Y-87512611D02*
X135234652Y-87512611D01*
X135234652Y-87512611D02*
X135167985Y-87545944D01*
X135167985Y-87545944D02*
X135134652Y-87579278D01*
X135134652Y-87579278D02*
X135101318Y-87645944D01*
X135101318Y-87645944D02*
X135101318Y-87679278D01*
X135101318Y-87679278D02*
X135134652Y-87745944D01*
X135134652Y-87745944D02*
X135167985Y-87779278D01*
X135167985Y-87779278D02*
X135234652Y-87812611D01*
X135234652Y-87812611D02*
X135367985Y-87812611D01*
X135367985Y-87812611D02*
X135434652Y-87845944D01*
X135434652Y-87845944D02*
X135467985Y-87879278D01*
X135467985Y-87879278D02*
X135501318Y-87945944D01*
X135501318Y-87945944D02*
X135501318Y-88079278D01*
X135501318Y-88079278D02*
X135467985Y-88145944D01*
X135467985Y-88145944D02*
X135434652Y-88179278D01*
X135434652Y-88179278D02*
X135367985Y-88212611D01*
X135367985Y-88212611D02*
X135234652Y-88212611D01*
X135234652Y-88212611D02*
X135167985Y-88179278D01*
X135167985Y-88179278D02*
X135134652Y-88145944D01*
X135134652Y-88145944D02*
X135101318Y-88079278D01*
X135101318Y-88079278D02*
X135101318Y-87945944D01*
X135101318Y-87945944D02*
X135134652Y-87879278D01*
X135134652Y-87879278D02*
X135167985Y-87845944D01*
X135167985Y-87845944D02*
X135234652Y-87812611D01*
X134901318Y-87512611D02*
X134667985Y-88212611D01*
X134667985Y-88212611D02*
X134434651Y-87512611D01*
X133767985Y-87745944D02*
X133501318Y-87745944D01*
X133667985Y-87512611D02*
X133667985Y-88112611D01*
X133667985Y-88112611D02*
X133634652Y-88179278D01*
X133634652Y-88179278D02*
X133567985Y-88212611D01*
X133567985Y-88212611D02*
X133501318Y-88212611D01*
X133167985Y-88212611D02*
X133234652Y-88179278D01*
X133234652Y-88179278D02*
X133267985Y-88145944D01*
X133267985Y-88145944D02*
X133301318Y-88079278D01*
X133301318Y-88079278D02*
X133301318Y-87879278D01*
X133301318Y-87879278D02*
X133267985Y-87812611D01*
X133267985Y-87812611D02*
X133234652Y-87779278D01*
X133234652Y-87779278D02*
X133167985Y-87745944D01*
X133167985Y-87745944D02*
X133067985Y-87745944D01*
X133067985Y-87745944D02*
X133001318Y-87779278D01*
X133001318Y-87779278D02*
X132967985Y-87812611D01*
X132967985Y-87812611D02*
X132934652Y-87879278D01*
X132934652Y-87879278D02*
X132934652Y-88079278D01*
X132934652Y-88079278D02*
X132967985Y-88145944D01*
X132967985Y-88145944D02*
X133001318Y-88179278D01*
X133001318Y-88179278D02*
X133067985Y-88212611D01*
X133067985Y-88212611D02*
X133167985Y-88212611D01*
X146934649Y-89072905D02*
X146401316Y-89072905D01*
X145534649Y-89339572D02*
X145534649Y-88639572D01*
X145534649Y-88906239D02*
X145467982Y-88872905D01*
X145467982Y-88872905D02*
X145334649Y-88872905D01*
X145334649Y-88872905D02*
X145267982Y-88906239D01*
X145267982Y-88906239D02*
X145234649Y-88939572D01*
X145234649Y-88939572D02*
X145201316Y-89006239D01*
X145201316Y-89006239D02*
X145201316Y-89206239D01*
X145201316Y-89206239D02*
X145234649Y-89272905D01*
X145234649Y-89272905D02*
X145267982Y-89306239D01*
X145267982Y-89306239D02*
X145334649Y-89339572D01*
X145334649Y-89339572D02*
X145467982Y-89339572D01*
X145467982Y-89339572D02*
X145534649Y-89306239D01*
X144901316Y-89339572D02*
X144901316Y-88872905D01*
X144901316Y-88639572D02*
X144934649Y-88672905D01*
X144934649Y-88672905D02*
X144901316Y-88706239D01*
X144901316Y-88706239D02*
X144867983Y-88672905D01*
X144867983Y-88672905D02*
X144901316Y-88639572D01*
X144901316Y-88639572D02*
X144901316Y-88706239D01*
X144267983Y-89339572D02*
X144267983Y-88972905D01*
X144267983Y-88972905D02*
X144301316Y-88906239D01*
X144301316Y-88906239D02*
X144367983Y-88872905D01*
X144367983Y-88872905D02*
X144501316Y-88872905D01*
X144501316Y-88872905D02*
X144567983Y-88906239D01*
X144267983Y-89306239D02*
X144334650Y-89339572D01*
X144334650Y-89339572D02*
X144501316Y-89339572D01*
X144501316Y-89339572D02*
X144567983Y-89306239D01*
X144567983Y-89306239D02*
X144601316Y-89239572D01*
X144601316Y-89239572D02*
X144601316Y-89172905D01*
X144601316Y-89172905D02*
X144567983Y-89106239D01*
X144567983Y-89106239D02*
X144501316Y-89072905D01*
X144501316Y-89072905D02*
X144334650Y-89072905D01*
X144334650Y-89072905D02*
X144267983Y-89039572D01*
X143967983Y-89306239D02*
X143901317Y-89339572D01*
X143901317Y-89339572D02*
X143767983Y-89339572D01*
X143767983Y-89339572D02*
X143701317Y-89306239D01*
X143701317Y-89306239D02*
X143667983Y-89239572D01*
X143667983Y-89239572D02*
X143667983Y-89206239D01*
X143667983Y-89206239D02*
X143701317Y-89139572D01*
X143701317Y-89139572D02*
X143767983Y-89106239D01*
X143767983Y-89106239D02*
X143867983Y-89106239D01*
X143867983Y-89106239D02*
X143934650Y-89072905D01*
X143934650Y-89072905D02*
X143967983Y-89006239D01*
X143967983Y-89006239D02*
X143967983Y-88972905D01*
X143967983Y-88972905D02*
X143934650Y-88906239D01*
X143934650Y-88906239D02*
X143867983Y-88872905D01*
X143867983Y-88872905D02*
X143767983Y-88872905D01*
X143767983Y-88872905D02*
X143701317Y-88906239D01*
X142934650Y-88872905D02*
X142667983Y-88872905D01*
X142834650Y-88639572D02*
X142834650Y-89239572D01*
X142834650Y-89239572D02*
X142801317Y-89306239D01*
X142801317Y-89306239D02*
X142734650Y-89339572D01*
X142734650Y-89339572D02*
X142667983Y-89339572D01*
X142434650Y-89339572D02*
X142434650Y-88639572D01*
X142134650Y-89339572D02*
X142134650Y-88972905D01*
X142134650Y-88972905D02*
X142167983Y-88906239D01*
X142167983Y-88906239D02*
X142234650Y-88872905D01*
X142234650Y-88872905D02*
X142334650Y-88872905D01*
X142334650Y-88872905D02*
X142401317Y-88906239D01*
X142401317Y-88906239D02*
X142434650Y-88939572D01*
X141534650Y-89306239D02*
X141601317Y-89339572D01*
X141601317Y-89339572D02*
X141734650Y-89339572D01*
X141734650Y-89339572D02*
X141801317Y-89306239D01*
X141801317Y-89306239D02*
X141834650Y-89239572D01*
X141834650Y-89239572D02*
X141834650Y-88972905D01*
X141834650Y-88972905D02*
X141801317Y-88906239D01*
X141801317Y-88906239D02*
X141734650Y-88872905D01*
X141734650Y-88872905D02*
X141601317Y-88872905D01*
X141601317Y-88872905D02*
X141534650Y-88906239D01*
X141534650Y-88906239D02*
X141501317Y-88972905D01*
X141501317Y-88972905D02*
X141501317Y-89039572D01*
X141501317Y-89039572D02*
X141834650Y-89106239D01*
X140767984Y-88872905D02*
X140501317Y-88872905D01*
X140667984Y-88639572D02*
X140667984Y-89239572D01*
X140667984Y-89239572D02*
X140634651Y-89306239D01*
X140634651Y-89306239D02*
X140567984Y-89339572D01*
X140567984Y-89339572D02*
X140501317Y-89339572D01*
X140267984Y-89339572D02*
X140267984Y-88872905D01*
X140267984Y-88639572D02*
X140301317Y-88672905D01*
X140301317Y-88672905D02*
X140267984Y-88706239D01*
X140267984Y-88706239D02*
X140234651Y-88672905D01*
X140234651Y-88672905D02*
X140267984Y-88639572D01*
X140267984Y-88639572D02*
X140267984Y-88706239D01*
X139967984Y-89306239D02*
X139901318Y-89339572D01*
X139901318Y-89339572D02*
X139767984Y-89339572D01*
X139767984Y-89339572D02*
X139701318Y-89306239D01*
X139701318Y-89306239D02*
X139667984Y-89239572D01*
X139667984Y-89239572D02*
X139667984Y-89206239D01*
X139667984Y-89206239D02*
X139701318Y-89139572D01*
X139701318Y-89139572D02*
X139767984Y-89106239D01*
X139767984Y-89106239D02*
X139867984Y-89106239D01*
X139867984Y-89106239D02*
X139934651Y-89072905D01*
X139934651Y-89072905D02*
X139967984Y-89006239D01*
X139967984Y-89006239D02*
X139967984Y-88972905D01*
X139967984Y-88972905D02*
X139934651Y-88906239D01*
X139934651Y-88906239D02*
X139867984Y-88872905D01*
X139867984Y-88872905D02*
X139767984Y-88872905D01*
X139767984Y-88872905D02*
X139701318Y-88906239D01*
X139401317Y-89306239D02*
X139334651Y-89339572D01*
X139334651Y-89339572D02*
X139201317Y-89339572D01*
X139201317Y-89339572D02*
X139134651Y-89306239D01*
X139134651Y-89306239D02*
X139101317Y-89239572D01*
X139101317Y-89239572D02*
X139101317Y-89206239D01*
X139101317Y-89206239D02*
X139134651Y-89139572D01*
X139134651Y-89139572D02*
X139201317Y-89106239D01*
X139201317Y-89106239D02*
X139301317Y-89106239D01*
X139301317Y-89106239D02*
X139367984Y-89072905D01*
X139367984Y-89072905D02*
X139401317Y-89006239D01*
X139401317Y-89006239D02*
X139401317Y-88972905D01*
X139401317Y-88972905D02*
X139367984Y-88906239D01*
X139367984Y-88906239D02*
X139301317Y-88872905D01*
X139301317Y-88872905D02*
X139201317Y-88872905D01*
X139201317Y-88872905D02*
X139134651Y-88906239D01*
X138501317Y-88872905D02*
X138501317Y-89339572D01*
X138801317Y-88872905D02*
X138801317Y-89239572D01*
X138801317Y-89239572D02*
X138767984Y-89306239D01*
X138767984Y-89306239D02*
X138701317Y-89339572D01*
X138701317Y-89339572D02*
X138601317Y-89339572D01*
X138601317Y-89339572D02*
X138534650Y-89306239D01*
X138534650Y-89306239D02*
X138501317Y-89272905D01*
X137901317Y-89306239D02*
X137967984Y-89339572D01*
X137967984Y-89339572D02*
X138101317Y-89339572D01*
X138101317Y-89339572D02*
X138167984Y-89306239D01*
X138167984Y-89306239D02*
X138201317Y-89239572D01*
X138201317Y-89239572D02*
X138201317Y-88972905D01*
X138201317Y-88972905D02*
X138167984Y-88906239D01*
X138167984Y-88906239D02*
X138101317Y-88872905D01*
X138101317Y-88872905D02*
X137967984Y-88872905D01*
X137967984Y-88872905D02*
X137901317Y-88906239D01*
X137901317Y-88906239D02*
X137867984Y-88972905D01*
X137867984Y-88972905D02*
X137867984Y-89039572D01*
X137867984Y-89039572D02*
X138201317Y-89106239D01*
X146934649Y-90199866D02*
X146401316Y-90199866D01*
X145567982Y-90433200D02*
X145501316Y-90466533D01*
X145501316Y-90466533D02*
X145367982Y-90466533D01*
X145367982Y-90466533D02*
X145301316Y-90433200D01*
X145301316Y-90433200D02*
X145267982Y-90366533D01*
X145267982Y-90366533D02*
X145267982Y-90333200D01*
X145267982Y-90333200D02*
X145301316Y-90266533D01*
X145301316Y-90266533D02*
X145367982Y-90233200D01*
X145367982Y-90233200D02*
X145467982Y-90233200D01*
X145467982Y-90233200D02*
X145534649Y-90199866D01*
X145534649Y-90199866D02*
X145567982Y-90133200D01*
X145567982Y-90133200D02*
X145567982Y-90099866D01*
X145567982Y-90099866D02*
X145534649Y-90033200D01*
X145534649Y-90033200D02*
X145467982Y-89999866D01*
X145467982Y-89999866D02*
X145367982Y-89999866D01*
X145367982Y-89999866D02*
X145301316Y-90033200D01*
X144667982Y-89999866D02*
X144667982Y-90466533D01*
X144967982Y-89999866D02*
X144967982Y-90366533D01*
X144967982Y-90366533D02*
X144934649Y-90433200D01*
X144934649Y-90433200D02*
X144867982Y-90466533D01*
X144867982Y-90466533D02*
X144767982Y-90466533D01*
X144767982Y-90466533D02*
X144701315Y-90433200D01*
X144701315Y-90433200D02*
X144667982Y-90399866D01*
X144334649Y-89999866D02*
X144334649Y-90699866D01*
X144334649Y-90033200D02*
X144267982Y-89999866D01*
X144267982Y-89999866D02*
X144134649Y-89999866D01*
X144134649Y-89999866D02*
X144067982Y-90033200D01*
X144067982Y-90033200D02*
X144034649Y-90066533D01*
X144034649Y-90066533D02*
X144001316Y-90133200D01*
X144001316Y-90133200D02*
X144001316Y-90333200D01*
X144001316Y-90333200D02*
X144034649Y-90399866D01*
X144034649Y-90399866D02*
X144067982Y-90433200D01*
X144067982Y-90433200D02*
X144134649Y-90466533D01*
X144134649Y-90466533D02*
X144267982Y-90466533D01*
X144267982Y-90466533D02*
X144334649Y-90433200D01*
X143701316Y-89999866D02*
X143701316Y-90699866D01*
X143701316Y-90033200D02*
X143634649Y-89999866D01*
X143634649Y-89999866D02*
X143501316Y-89999866D01*
X143501316Y-89999866D02*
X143434649Y-90033200D01*
X143434649Y-90033200D02*
X143401316Y-90066533D01*
X143401316Y-90066533D02*
X143367983Y-90133200D01*
X143367983Y-90133200D02*
X143367983Y-90333200D01*
X143367983Y-90333200D02*
X143401316Y-90399866D01*
X143401316Y-90399866D02*
X143434649Y-90433200D01*
X143434649Y-90433200D02*
X143501316Y-90466533D01*
X143501316Y-90466533D02*
X143634649Y-90466533D01*
X143634649Y-90466533D02*
X143701316Y-90433200D01*
X142967983Y-90466533D02*
X143034650Y-90433200D01*
X143034650Y-90433200D02*
X143067983Y-90366533D01*
X143067983Y-90366533D02*
X143067983Y-89766533D01*
X142767983Y-89999866D02*
X142601316Y-90466533D01*
X142434649Y-89999866D02*
X142601316Y-90466533D01*
X142601316Y-90466533D02*
X142667983Y-90633200D01*
X142667983Y-90633200D02*
X142701316Y-90666533D01*
X142701316Y-90666533D02*
X142767983Y-90699866D01*
X141734650Y-89999866D02*
X141467983Y-89999866D01*
X141634650Y-89766533D02*
X141634650Y-90366533D01*
X141634650Y-90366533D02*
X141601317Y-90433200D01*
X141601317Y-90433200D02*
X141534650Y-90466533D01*
X141534650Y-90466533D02*
X141467983Y-90466533D01*
X141234650Y-90466533D02*
X141234650Y-89766533D01*
X140934650Y-90466533D02*
X140934650Y-90099866D01*
X140934650Y-90099866D02*
X140967983Y-90033200D01*
X140967983Y-90033200D02*
X141034650Y-89999866D01*
X141034650Y-89999866D02*
X141134650Y-89999866D01*
X141134650Y-89999866D02*
X141201317Y-90033200D01*
X141201317Y-90033200D02*
X141234650Y-90066533D01*
X140334650Y-90433200D02*
X140401317Y-90466533D01*
X140401317Y-90466533D02*
X140534650Y-90466533D01*
X140534650Y-90466533D02*
X140601317Y-90433200D01*
X140601317Y-90433200D02*
X140634650Y-90366533D01*
X140634650Y-90366533D02*
X140634650Y-90099866D01*
X140634650Y-90099866D02*
X140601317Y-90033200D01*
X140601317Y-90033200D02*
X140534650Y-89999866D01*
X140534650Y-89999866D02*
X140401317Y-89999866D01*
X140401317Y-89999866D02*
X140334650Y-90033200D01*
X140334650Y-90033200D02*
X140301317Y-90099866D01*
X140301317Y-90099866D02*
X140301317Y-90166533D01*
X140301317Y-90166533D02*
X140634650Y-90233200D01*
X139467984Y-90466533D02*
X139467984Y-89766533D01*
X139467984Y-89766533D02*
X139234651Y-90266533D01*
X139234651Y-90266533D02*
X139001317Y-89766533D01*
X139001317Y-89766533D02*
X139001317Y-90466533D01*
X138267984Y-90399866D02*
X138301317Y-90433200D01*
X138301317Y-90433200D02*
X138401317Y-90466533D01*
X138401317Y-90466533D02*
X138467984Y-90466533D01*
X138467984Y-90466533D02*
X138567984Y-90433200D01*
X138567984Y-90433200D02*
X138634651Y-90366533D01*
X138634651Y-90366533D02*
X138667984Y-90299866D01*
X138667984Y-90299866D02*
X138701317Y-90166533D01*
X138701317Y-90166533D02*
X138701317Y-90066533D01*
X138701317Y-90066533D02*
X138667984Y-89933200D01*
X138667984Y-89933200D02*
X138634651Y-89866533D01*
X138634651Y-89866533D02*
X138567984Y-89799866D01*
X138567984Y-89799866D02*
X138467984Y-89766533D01*
X138467984Y-89766533D02*
X138401317Y-89766533D01*
X138401317Y-89766533D02*
X138301317Y-89799866D01*
X138301317Y-89799866D02*
X138267984Y-89833200D01*
X137967984Y-89766533D02*
X137967984Y-90333200D01*
X137967984Y-90333200D02*
X137934651Y-90399866D01*
X137934651Y-90399866D02*
X137901317Y-90433200D01*
X137901317Y-90433200D02*
X137834651Y-90466533D01*
X137834651Y-90466533D02*
X137701317Y-90466533D01*
X137701317Y-90466533D02*
X137634651Y-90433200D01*
X137634651Y-90433200D02*
X137601317Y-90399866D01*
X137601317Y-90399866D02*
X137567984Y-90333200D01*
X137567984Y-90333200D02*
X137567984Y-89766533D01*
D11*
G36*
X77415517Y-87298527D02*
G01*
X77077586Y-87298527D01*
X77077586Y-86960596D01*
X77415517Y-86960596D01*
X77415517Y-87298527D01*
G37*
G36*
X78091379Y-86960596D02*
G01*
X78767241Y-86960596D01*
X78767241Y-87636458D01*
X78429310Y-87636458D01*
X78429310Y-87974389D01*
X78429310Y-88312320D01*
X79105172Y-88312320D01*
X79105172Y-87974389D01*
X79781034Y-87974389D01*
X79781034Y-88312320D01*
X79781034Y-88650251D01*
X79443103Y-88650251D01*
X79443103Y-88988182D01*
X79105172Y-88988182D01*
X79105172Y-88650251D01*
X78767241Y-88650251D01*
X78767241Y-88988182D01*
X78429310Y-88988182D01*
X78429310Y-88650251D01*
X77753448Y-88650251D01*
X77753448Y-88988182D01*
X77415517Y-88988182D01*
X77415517Y-88650251D01*
X77077586Y-88650251D01*
X77077586Y-88988182D01*
X77077586Y-89326113D01*
X76401724Y-89326113D01*
X76401724Y-88988182D01*
X76063793Y-88988182D01*
X76063793Y-89326113D01*
X75725862Y-89326113D01*
X75725862Y-88988182D01*
X75725862Y-88650251D01*
X75387931Y-88650251D01*
X75387931Y-88312320D01*
X75725862Y-88312320D01*
X75725862Y-87974389D01*
X76063793Y-87974389D01*
X76063793Y-88312320D01*
X77415517Y-88312320D01*
X77415517Y-87974389D01*
X76063793Y-87974389D01*
X76063793Y-87636458D01*
X76063793Y-87298527D01*
X76401724Y-87298527D01*
X76401724Y-86960596D01*
X76063793Y-86960596D01*
X76063793Y-86622665D01*
X76401724Y-86622665D01*
X76739655Y-86622665D01*
X76739655Y-86960596D01*
X76739655Y-87298527D01*
X76739655Y-87636458D01*
X77753448Y-87636458D01*
X77753448Y-86960596D01*
X77753448Y-86622665D01*
X76739655Y-86622665D01*
X76401724Y-86622665D01*
X76401724Y-86284734D01*
X76063793Y-86284734D01*
X76063793Y-85946803D01*
X76401724Y-85946803D01*
X76401724Y-85608872D01*
X76401724Y-85270941D01*
X77415517Y-85270941D01*
X77415517Y-85608872D01*
X77077586Y-85608872D01*
X77077586Y-85946803D01*
X77753448Y-85946803D01*
X77753448Y-86284734D01*
X78429310Y-86284734D01*
X78429310Y-86622665D01*
X78091379Y-86622665D01*
X78091379Y-86960596D01*
G37*
G36*
X79105172Y-89326113D02*
G01*
X78767241Y-89326113D01*
X78767241Y-88988182D01*
X79105172Y-88988182D01*
X79105172Y-89326113D01*
G37*
G36*
X81132759Y-88650251D02*
G01*
X81470690Y-88650251D01*
X81470690Y-88988182D01*
X81132759Y-88988182D01*
X81132759Y-89326113D01*
X80794828Y-89326113D01*
X80794828Y-88988182D01*
X80794828Y-88650251D01*
X80456897Y-88650251D01*
X80456897Y-88312320D01*
X81132759Y-88312320D01*
X81132759Y-88650251D01*
G37*
G36*
X82146552Y-89326113D02*
G01*
X81808621Y-89326113D01*
X81808621Y-88650251D01*
X82146552Y-88650251D01*
X82146552Y-89326113D01*
G37*
G36*
X84174138Y-88650251D02*
G01*
X83160345Y-88650251D01*
X83160345Y-87636458D01*
X84174138Y-87636458D01*
X84174138Y-88650251D01*
G37*
G36*
X84850000Y-88988182D02*
G01*
X84850000Y-89326113D01*
X82484483Y-89326113D01*
X82484483Y-88988182D01*
X82484483Y-87298527D01*
X82822414Y-87298527D01*
X82822414Y-88988182D01*
X84512069Y-88988182D01*
X84512069Y-87298527D01*
X82822414Y-87298527D01*
X82484483Y-87298527D01*
X82484483Y-86960596D01*
X84850000Y-86960596D01*
X84850000Y-87298527D01*
X84850000Y-88988182D01*
G37*
G36*
X75387931Y-88988182D02*
G01*
X75050000Y-88988182D01*
X75050000Y-88650251D01*
X75387931Y-88650251D01*
X75387931Y-88988182D01*
G37*
G36*
X75725862Y-87636458D02*
G01*
X75725862Y-87974389D01*
X75387931Y-87974389D01*
X75387931Y-88312320D01*
X75050000Y-88312320D01*
X75050000Y-87974389D01*
X75050000Y-87636458D01*
X75387931Y-87636458D01*
X75387931Y-87298527D01*
X75725862Y-87298527D01*
X75725862Y-87636458D01*
G37*
G36*
X79781034Y-86960596D02*
G01*
X80118966Y-86960596D01*
X80118966Y-86622665D01*
X80794828Y-86622665D01*
X80794828Y-86960596D01*
X80456897Y-86960596D01*
X80456897Y-87298527D01*
X80794828Y-87298527D01*
X80794828Y-87636458D01*
X81132759Y-87636458D01*
X81132759Y-87974389D01*
X80118966Y-87974389D01*
X80118966Y-87636458D01*
X80118966Y-87298527D01*
X79781034Y-87298527D01*
X79781034Y-87636458D01*
X79443103Y-87636458D01*
X79443103Y-87298527D01*
X79443103Y-86960596D01*
X79443103Y-86284734D01*
X79781034Y-86284734D01*
X79781034Y-86960596D01*
G37*
G36*
X81808621Y-87974389D02*
G01*
X81470690Y-87974389D01*
X81470690Y-87636458D01*
X81808621Y-87636458D01*
X81808621Y-87974389D01*
G37*
G36*
X82822414Y-85946803D02*
G01*
X82146552Y-85946803D01*
X82146552Y-86284734D01*
X81808621Y-86284734D01*
X81808621Y-86622665D01*
X82146552Y-86622665D01*
X82146552Y-86960596D01*
X82146552Y-87636458D01*
X81808621Y-87636458D01*
X81808621Y-86960596D01*
X81470690Y-86960596D01*
X81470690Y-87636458D01*
X81132759Y-87636458D01*
X81132759Y-86960596D01*
X81132759Y-86622665D01*
X80794828Y-86622665D01*
X80794828Y-86284734D01*
X80794828Y-85946803D01*
X81132759Y-85946803D01*
X81132759Y-86284734D01*
X81470690Y-86284734D01*
X81470690Y-85946803D01*
X81470690Y-85608872D01*
X82822414Y-85608872D01*
X82822414Y-85946803D01*
G37*
G36*
X76063793Y-87298527D02*
G01*
X75725862Y-87298527D01*
X75725862Y-86960596D01*
X76063793Y-86960596D01*
X76063793Y-87298527D01*
G37*
G36*
X75725862Y-86960596D02*
G01*
X75387931Y-86960596D01*
X75387931Y-86622665D01*
X75725862Y-86622665D01*
X75725862Y-86960596D01*
G37*
G36*
X76063793Y-86622665D02*
G01*
X75725862Y-86622665D01*
X75725862Y-86284734D01*
X76063793Y-86284734D01*
X76063793Y-86622665D01*
G37*
G36*
X79105172Y-86622665D02*
G01*
X78767241Y-86622665D01*
X78767241Y-86284734D01*
X79105172Y-86284734D01*
X79105172Y-86622665D01*
G37*
G36*
X82822414Y-86622665D02*
G01*
X82146552Y-86622665D01*
X82146552Y-86284734D01*
X82822414Y-86284734D01*
X82822414Y-86622665D01*
G37*
G36*
X84174138Y-86622665D02*
G01*
X83836207Y-86622665D01*
X83836207Y-86284734D01*
X84174138Y-86284734D01*
X84174138Y-86622665D01*
G37*
G36*
X83836207Y-85270941D02*
G01*
X84174138Y-85270941D01*
X84174138Y-85608872D01*
X84512069Y-85608872D01*
X84512069Y-85270941D01*
X84850000Y-85270941D01*
X84850000Y-85608872D01*
X84850000Y-85946803D01*
X84850000Y-86622665D01*
X84512069Y-86622665D01*
X84512069Y-85946803D01*
X83498276Y-85946803D01*
X83498276Y-85608872D01*
X83498276Y-85270941D01*
X83160345Y-85270941D01*
X83160345Y-84933010D01*
X83836207Y-84933010D01*
X83836207Y-85270941D01*
G37*
G36*
X76401724Y-84933010D02*
G01*
X76063793Y-84933010D01*
X76063793Y-85270941D01*
X76063793Y-85608872D01*
X76063793Y-85946803D01*
X75725862Y-85946803D01*
X75725862Y-85608872D01*
X75387931Y-85608872D01*
X75387931Y-85946803D01*
X75725862Y-85946803D01*
X75725862Y-86284734D01*
X75050000Y-86284734D01*
X75050000Y-85946803D01*
X75050000Y-85608872D01*
X75050000Y-85270941D01*
X75725862Y-85270941D01*
X75725862Y-84933010D01*
X75387931Y-84933010D01*
X75387931Y-84595079D01*
X76401724Y-84595079D01*
X76401724Y-84933010D01*
G37*
G36*
X79781034Y-85608872D02*
G01*
X80794828Y-85608872D01*
X80794828Y-85946803D01*
X80118966Y-85946803D01*
X80118966Y-86284734D01*
X79781034Y-86284734D01*
X79781034Y-85946803D01*
X79443103Y-85946803D01*
X79443103Y-85608872D01*
X79443103Y-85270941D01*
X79781034Y-85270941D01*
X79781034Y-85608872D01*
G37*
G36*
X83160345Y-86284734D02*
G01*
X82822414Y-86284734D01*
X82822414Y-85946803D01*
X83160345Y-85946803D01*
X83160345Y-86284734D01*
G37*
G36*
X78429310Y-85270941D02*
G01*
X78767241Y-85270941D01*
X78767241Y-85608872D01*
X79105172Y-85608872D01*
X79105172Y-85946803D01*
X78091379Y-85946803D01*
X78091379Y-85608872D01*
X77753448Y-85608872D01*
X77753448Y-85270941D01*
X78091379Y-85270941D01*
X78091379Y-84595079D01*
X78429310Y-84595079D01*
X78429310Y-85270941D01*
G37*
G36*
X83160345Y-85608872D02*
G01*
X82822414Y-85608872D01*
X82822414Y-85270941D01*
X83160345Y-85270941D01*
X83160345Y-85608872D01*
G37*
G36*
X79105172Y-85270941D02*
G01*
X78767241Y-85270941D01*
X78767241Y-84933010D01*
X79105172Y-84933010D01*
X79105172Y-85270941D01*
G37*
G36*
X80118966Y-83581285D02*
G01*
X80456897Y-83581285D01*
X80456897Y-83919216D01*
X80794828Y-83919216D01*
X80794828Y-84257147D01*
X80456897Y-84257147D01*
X80456897Y-84595079D01*
X80794828Y-84595079D01*
X80794828Y-84933010D01*
X80794828Y-85270941D01*
X80456897Y-85270941D01*
X80456897Y-84933010D01*
X80118966Y-84933010D01*
X80118966Y-85270941D01*
X79781034Y-85270941D01*
X79781034Y-84933010D01*
X79443103Y-84933010D01*
X79443103Y-84595079D01*
X78429310Y-84595079D01*
X78429310Y-84257147D01*
X79781034Y-84257147D01*
X79781034Y-83919216D01*
X79781034Y-83581285D01*
X79443103Y-83581285D01*
X79443103Y-83919216D01*
X79105172Y-83919216D01*
X79105172Y-83581285D01*
X79105172Y-83243354D01*
X80118966Y-83243354D01*
X80118966Y-83581285D01*
G37*
G36*
X81470690Y-85270941D02*
G01*
X81132759Y-85270941D01*
X81132759Y-84933010D01*
X81470690Y-84933010D01*
X81470690Y-85270941D01*
G37*
G36*
X82146552Y-85270941D02*
G01*
X81808621Y-85270941D01*
X81808621Y-84933010D01*
X82146552Y-84933010D01*
X82146552Y-85270941D01*
G37*
G36*
X82822414Y-85270941D02*
G01*
X82484483Y-85270941D01*
X82484483Y-84933010D01*
X82822414Y-84933010D01*
X82822414Y-85270941D01*
G37*
G36*
X84512069Y-85270941D02*
G01*
X84174138Y-85270941D01*
X84174138Y-84933010D01*
X84512069Y-84933010D01*
X84512069Y-85270941D01*
G37*
G36*
X77753448Y-84933010D02*
G01*
X77415517Y-84933010D01*
X77415517Y-84257147D01*
X77753448Y-84257147D01*
X77753448Y-84933010D01*
G37*
G36*
X82484483Y-84933010D02*
G01*
X82146552Y-84933010D01*
X82146552Y-84595079D01*
X82484483Y-84595079D01*
X82484483Y-84933010D01*
G37*
G36*
X84174138Y-84933010D02*
G01*
X83836207Y-84933010D01*
X83836207Y-84595079D01*
X84174138Y-84595079D01*
X84174138Y-84933010D01*
G37*
G36*
X76063793Y-83243354D02*
G01*
X75725862Y-83243354D01*
X75725862Y-83581285D01*
X75387931Y-83581285D01*
X75387931Y-83919216D01*
X76063793Y-83919216D01*
X76063793Y-83243354D01*
X76401724Y-83243354D01*
X76401724Y-83919216D01*
X76739655Y-83919216D01*
X76739655Y-83243354D01*
X77077586Y-83243354D01*
X77077586Y-82905423D01*
X77415517Y-82905423D01*
X77415517Y-83243354D01*
X77415517Y-83919216D01*
X77415517Y-84257147D01*
X77077586Y-84257147D01*
X77077586Y-84595079D01*
X76401724Y-84595079D01*
X76401724Y-84257147D01*
X75050000Y-84257147D01*
X75050000Y-83919216D01*
X75050000Y-83581285D01*
X75050000Y-83243354D01*
X75387931Y-83243354D01*
X75387931Y-82905423D01*
X76063793Y-82905423D01*
X76063793Y-83243354D01*
G37*
G36*
X81132759Y-83243354D02*
G01*
X81470690Y-83243354D01*
X81470690Y-83581285D01*
X81808621Y-83581285D01*
X81808621Y-83919216D01*
X81470690Y-83919216D01*
X81470690Y-84257147D01*
X81808621Y-84257147D01*
X81808621Y-84595079D01*
X81132759Y-84595079D01*
X81132759Y-84257147D01*
X81132759Y-83919216D01*
X81132759Y-83581285D01*
X80794828Y-83581285D01*
X80794828Y-83243354D01*
X80456897Y-83243354D01*
X80456897Y-82905423D01*
X81132759Y-82905423D01*
X81132759Y-83243354D01*
G37*
G36*
X82822414Y-84595079D02*
G01*
X82484483Y-84595079D01*
X82484483Y-84257147D01*
X82822414Y-84257147D01*
X82822414Y-84595079D01*
G37*
G36*
X83498276Y-84257147D02*
G01*
X83836207Y-84257147D01*
X83836207Y-84595079D01*
X83160345Y-84595079D01*
X83160345Y-84257147D01*
X82822414Y-84257147D01*
X82822414Y-83919216D01*
X83498276Y-83919216D01*
X83498276Y-84257147D01*
G37*
G36*
X84512069Y-84257147D02*
G01*
X84850000Y-84257147D01*
X84850000Y-84595079D01*
X84174138Y-84595079D01*
X84174138Y-84257147D01*
X84174138Y-83919216D01*
X84512069Y-83919216D01*
X84512069Y-84257147D01*
G37*
G36*
X78429310Y-84257147D02*
G01*
X78091379Y-84257147D01*
X78091379Y-83919216D01*
X78429310Y-83919216D01*
X78429310Y-84257147D01*
G37*
G36*
X82146552Y-84257147D02*
G01*
X81808621Y-84257147D01*
X81808621Y-83919216D01*
X82146552Y-83919216D01*
X82146552Y-84257147D01*
G37*
G36*
X78091379Y-83243354D02*
G01*
X78429310Y-83243354D01*
X78429310Y-83581285D01*
X78091379Y-83581285D01*
X78091379Y-83919216D01*
X77753448Y-83919216D01*
X77753448Y-83581285D01*
X77753448Y-83243354D01*
X77753448Y-82905423D01*
X78091379Y-82905423D01*
X78091379Y-83243354D01*
G37*
G36*
X83160345Y-82567492D02*
G01*
X82484483Y-82567492D01*
X82484483Y-82905423D01*
X83498276Y-82905423D01*
X83498276Y-83243354D01*
X82484483Y-83243354D01*
X82484483Y-83581285D01*
X82822414Y-83581285D01*
X82822414Y-83919216D01*
X82146552Y-83919216D01*
X82146552Y-83581285D01*
X82146552Y-83243354D01*
X82146552Y-82905423D01*
X82146552Y-82567492D01*
X82146552Y-82229561D01*
X83160345Y-82229561D01*
X83160345Y-82567492D01*
G37*
G36*
X83836207Y-83919216D02*
G01*
X83498276Y-83919216D01*
X83498276Y-83581285D01*
X83836207Y-83581285D01*
X83836207Y-83919216D01*
G37*
G36*
X84850000Y-83919216D02*
G01*
X84512069Y-83919216D01*
X84512069Y-82905423D01*
X84850000Y-82905423D01*
X84850000Y-83919216D01*
G37*
G36*
X81808621Y-83243354D02*
G01*
X81470690Y-83243354D01*
X81470690Y-82905423D01*
X81808621Y-82905423D01*
X81808621Y-83243354D01*
G37*
G36*
X76739655Y-82905423D02*
G01*
X76063793Y-82905423D01*
X76063793Y-82229561D01*
X76739655Y-82229561D01*
X76739655Y-82905423D01*
G37*
G36*
X78767241Y-81891630D02*
G01*
X78767241Y-82229561D01*
X79105172Y-82229561D01*
X79105172Y-82905423D01*
X78091379Y-82905423D01*
X78091379Y-82229561D01*
X78091379Y-81891630D01*
X78429310Y-81891630D01*
X78429310Y-81553699D01*
X78767241Y-81553699D01*
X78767241Y-81891630D01*
G37*
G36*
X80118966Y-82567492D02*
G01*
X80118966Y-82905423D01*
X79781034Y-82905423D01*
X79781034Y-82567492D01*
X79443103Y-82567492D01*
X79443103Y-82229561D01*
X80118966Y-82229561D01*
X80118966Y-82567492D01*
G37*
G36*
X81808621Y-82229561D02*
G01*
X81808621Y-82567492D01*
X81470690Y-82567492D01*
X81470690Y-82905423D01*
X81132759Y-82905423D01*
X81132759Y-82567492D01*
X81132759Y-82229561D01*
X81470690Y-82229561D01*
X81470690Y-81891630D01*
X81808621Y-81891630D01*
X81808621Y-82229561D01*
G37*
G36*
X80794828Y-81891630D02*
G01*
X80794828Y-82229561D01*
X80794828Y-82567492D01*
X80456897Y-82567492D01*
X80456897Y-82229561D01*
X80118966Y-82229561D01*
X80118966Y-81891630D01*
X80456897Y-81891630D01*
X80456897Y-81553699D01*
X80794828Y-81553699D01*
X80794828Y-81891630D01*
G37*
G36*
X84850000Y-82567492D02*
G01*
X84174138Y-82567492D01*
X84174138Y-82229561D01*
X84850000Y-82229561D01*
X84850000Y-82567492D01*
G37*
G36*
X76739655Y-81215768D02*
G01*
X75725862Y-81215768D01*
X75725862Y-80201975D01*
X76739655Y-80201975D01*
X76739655Y-81215768D01*
G37*
G36*
X77415517Y-81553699D02*
G01*
X77415517Y-81891630D01*
X75050000Y-81891630D01*
X75050000Y-81553699D01*
X75050000Y-79864044D01*
X75387931Y-79864044D01*
X75387931Y-81553699D01*
X77077586Y-81553699D01*
X77077586Y-79864044D01*
X75387931Y-79864044D01*
X75050000Y-79864044D01*
X75050000Y-79526113D01*
X77415517Y-79526113D01*
X77415517Y-79864044D01*
X77415517Y-81553699D01*
G37*
G36*
X78091379Y-81891630D02*
G01*
X77753448Y-81891630D01*
X77753448Y-81553699D01*
X78091379Y-81553699D01*
X78091379Y-81891630D01*
G37*
G36*
X81808621Y-79864044D02*
G01*
X81132759Y-79864044D01*
X81132759Y-80201975D01*
X81808621Y-80201975D01*
X81808621Y-80539906D01*
X81470690Y-80539906D01*
X81470690Y-80877837D01*
X81470690Y-81215768D01*
X81808621Y-81215768D01*
X81808621Y-81553699D01*
X81470690Y-81553699D01*
X81470690Y-81891630D01*
X81132759Y-81891630D01*
X81132759Y-81553699D01*
X81132759Y-81215768D01*
X81132759Y-80877837D01*
X80794828Y-80877837D01*
X80794828Y-81215768D01*
X80456897Y-81215768D01*
X80456897Y-81553699D01*
X80118966Y-81553699D01*
X80118966Y-81891630D01*
X79781034Y-81891630D01*
X79781034Y-81553699D01*
X79781034Y-81215768D01*
X79443103Y-81215768D01*
X79443103Y-81553699D01*
X79443103Y-81891630D01*
X79105172Y-81891630D01*
X79105172Y-81553699D01*
X78767241Y-81553699D01*
X78767241Y-81215768D01*
X77753448Y-81215768D01*
X77753448Y-80877837D01*
X78767241Y-80877837D01*
X78767241Y-80539906D01*
X79105172Y-80539906D01*
X79105172Y-80877837D01*
X79105172Y-81215768D01*
X79443103Y-81215768D01*
X79443103Y-80877837D01*
X79443103Y-80539906D01*
X79781034Y-80539906D01*
X79781034Y-80201975D01*
X80118966Y-80201975D01*
X80118966Y-80539906D01*
X80118966Y-80877837D01*
X80794828Y-80877837D01*
X80794828Y-80539906D01*
X80794828Y-80201975D01*
X80456897Y-80201975D01*
X80456897Y-79864044D01*
X80794828Y-79864044D01*
X80794828Y-79526113D01*
X81808621Y-79526113D01*
X81808621Y-79864044D01*
G37*
G36*
X82146552Y-81891630D02*
G01*
X81808621Y-81891630D01*
X81808621Y-81553699D01*
X82146552Y-81553699D01*
X82146552Y-81891630D01*
G37*
G36*
X84174138Y-81215768D02*
G01*
X83160345Y-81215768D01*
X83160345Y-80201975D01*
X84174138Y-80201975D01*
X84174138Y-81215768D01*
G37*
G36*
X84850000Y-81553699D02*
G01*
X84850000Y-81891630D01*
X82484483Y-81891630D01*
X82484483Y-81553699D01*
X82484483Y-79864044D01*
X82822414Y-79864044D01*
X82822414Y-81553699D01*
X84512069Y-81553699D01*
X84512069Y-79864044D01*
X82822414Y-79864044D01*
X82484483Y-79864044D01*
X82484483Y-79526113D01*
X84850000Y-79526113D01*
X84850000Y-79864044D01*
X84850000Y-81553699D01*
G37*
G36*
X82146552Y-81215768D02*
G01*
X81808621Y-81215768D01*
X81808621Y-80539906D01*
X82146552Y-80539906D01*
X82146552Y-81215768D01*
G37*
G36*
X78091379Y-80539906D02*
G01*
X77753448Y-80539906D01*
X77753448Y-79864044D01*
X78091379Y-79864044D01*
X78091379Y-80539906D01*
G37*
G36*
X79443103Y-80539906D02*
G01*
X79105172Y-80539906D01*
X79105172Y-80201975D01*
X79443103Y-80201975D01*
X79443103Y-80539906D01*
G37*
G36*
X79105172Y-79864044D02*
G01*
X78767241Y-79864044D01*
X78767241Y-80201975D01*
X78429310Y-80201975D01*
X78429310Y-79864044D01*
X78429310Y-79526113D01*
X79105172Y-79526113D01*
X79105172Y-79864044D01*
G37*
G36*
X80456897Y-79864044D02*
G01*
X79781034Y-79864044D01*
X79781034Y-80201975D01*
X79443103Y-80201975D01*
X79443103Y-79864044D01*
X79443103Y-79526113D01*
X80456897Y-79526113D01*
X80456897Y-79864044D01*
G37*
G36*
X119352000Y-58975000D02*
G01*
X118952000Y-58975000D01*
X118952000Y-57775000D01*
X119352000Y-57775000D01*
X119352000Y-58975000D01*
G37*
G36*
X120552000Y-58975000D02*
G01*
X120152000Y-58975000D01*
X120152000Y-58575000D01*
X120552000Y-58575000D01*
X120552000Y-58975000D01*
G37*
G36*
X121752000Y-56575000D02*
G01*
X121352000Y-56575000D01*
X121352000Y-56175000D01*
X121752000Y-56175000D01*
X121752000Y-56575000D01*
G37*
G36*
X123352000Y-50175000D02*
G01*
X123752000Y-50175000D01*
X123752000Y-49375000D01*
X124152000Y-49375000D01*
X124152000Y-50175000D01*
X124552000Y-50175000D01*
X124552000Y-49775000D01*
X124552000Y-49375000D01*
X124552000Y-48975000D01*
X125352000Y-48975000D01*
X125352000Y-49375000D01*
X124952000Y-49375000D01*
X124952000Y-49775000D01*
X125352000Y-49775000D01*
X125352000Y-50175000D01*
X125752000Y-50175000D01*
X125752000Y-50975000D01*
X124952000Y-50975000D01*
X124952000Y-50175000D01*
X124552000Y-50175000D01*
X124552000Y-50575000D01*
X124552000Y-50975000D01*
X124152000Y-50975000D01*
X124152000Y-50575000D01*
X123752000Y-50575000D01*
X123752000Y-50975000D01*
X123752000Y-51375000D01*
X123352000Y-51375000D01*
X123352000Y-51775000D01*
X123352000Y-52175000D01*
X124552000Y-52175000D01*
X124552000Y-50975000D01*
X124952000Y-50975000D01*
X124952000Y-52175000D01*
X124952000Y-52575000D01*
X124552000Y-52575000D01*
X124552000Y-52975000D01*
X124152000Y-52975000D01*
X124152000Y-53775000D01*
X123752000Y-53775000D01*
X123752000Y-52975000D01*
X123352000Y-52975000D01*
X123352000Y-52575000D01*
X122952000Y-52575000D01*
X122952000Y-53375000D01*
X122952000Y-53775000D01*
X122552000Y-53775000D01*
X122552000Y-54175000D01*
X122152000Y-54175000D01*
X122152000Y-53775000D01*
X121752000Y-53775000D01*
X121752000Y-54175000D01*
X121352000Y-54175000D01*
X121352000Y-54575000D01*
X121752000Y-54575000D01*
X121752000Y-54175000D01*
X122152000Y-54175000D01*
X122152000Y-54575000D01*
X122152000Y-54975000D01*
X121752000Y-54975000D01*
X121752000Y-55375000D01*
X122152000Y-55375000D01*
X122152000Y-54975000D01*
X122552000Y-54975000D01*
X122552000Y-54575000D01*
X122552000Y-54175000D01*
X122952000Y-54175000D01*
X122952000Y-54575000D01*
X123352000Y-54575000D01*
X123352000Y-54975000D01*
X122952000Y-54975000D01*
X122952000Y-55375000D01*
X124152000Y-55375000D01*
X124152000Y-54975000D01*
X124552000Y-54975000D01*
X124552000Y-55375000D01*
X124552000Y-55775000D01*
X124952000Y-55775000D01*
X124952000Y-56175000D01*
X124552000Y-56175000D01*
X124552000Y-56575000D01*
X124152000Y-56575000D01*
X124152000Y-56975000D01*
X123752000Y-56975000D01*
X123752000Y-56575000D01*
X122952000Y-56575000D01*
X122952000Y-56975000D01*
X123752000Y-56975000D01*
X123752000Y-57375000D01*
X123352000Y-57375000D01*
X123352000Y-57775000D01*
X123352000Y-58175000D01*
X123352000Y-58575000D01*
X122552000Y-58575000D01*
X122552000Y-58975000D01*
X121352000Y-58975000D01*
X121352000Y-58575000D01*
X122152000Y-58575000D01*
X122152000Y-58175000D01*
X122952000Y-58175000D01*
X122952000Y-57775000D01*
X121352000Y-57775000D01*
X121352000Y-57375000D01*
X120552000Y-57375000D01*
X120552000Y-56975000D01*
X120952000Y-56975000D01*
X122152000Y-56975000D01*
X122152000Y-56575000D01*
X122552000Y-56575000D01*
X122952000Y-56575000D01*
X122952000Y-56175000D01*
X123352000Y-56175000D01*
X123352000Y-55775000D01*
X122552000Y-55775000D01*
X122552000Y-56575000D01*
X122152000Y-56575000D01*
X122152000Y-55775000D01*
X120952000Y-55775000D01*
X120952000Y-56975000D01*
X120552000Y-56975000D01*
X120552000Y-55775000D01*
X120552000Y-55375000D01*
X120952000Y-55375000D01*
X120952000Y-54975000D01*
X120552000Y-54975000D01*
X120552000Y-55375000D01*
X120152000Y-55375000D01*
X120152000Y-55775000D01*
X119752000Y-55775000D01*
X119752000Y-55375000D01*
X119752000Y-54975000D01*
X120152000Y-54975000D01*
X120152000Y-54575000D01*
X120952000Y-54575000D01*
X120952000Y-54175000D01*
X120952000Y-53775000D01*
X120952000Y-53375000D01*
X120552000Y-53375000D01*
X120552000Y-53775000D01*
X120152000Y-53775000D01*
X120152000Y-53375000D01*
X120152000Y-52975000D01*
X119752000Y-52975000D01*
X119752000Y-53375000D01*
X119352000Y-53375000D01*
X119352000Y-54175000D01*
X118952000Y-54175000D01*
X118952000Y-53375000D01*
X118952000Y-52975000D01*
X119352000Y-52975000D01*
X119352000Y-52575000D01*
X120152000Y-52575000D01*
X120152000Y-52175000D01*
X120952000Y-52175000D01*
X120952000Y-52575000D01*
X121352000Y-52575000D01*
X121352000Y-52975000D01*
X121352000Y-53375000D01*
X122552000Y-53375000D01*
X122552000Y-52575000D01*
X122552000Y-52175000D01*
X122552000Y-51775000D01*
X122952000Y-51775000D01*
X122952000Y-51375000D01*
X122952000Y-50975000D01*
X123352000Y-50975000D01*
X123352000Y-50575000D01*
X122552000Y-50575000D01*
X122552000Y-51775000D01*
X122152000Y-51775000D01*
X122152000Y-50575000D01*
X122152000Y-50175000D01*
X122152000Y-49375000D01*
X122552000Y-49375000D01*
X122552000Y-50175000D01*
X122952000Y-50175000D01*
X122952000Y-48975000D01*
X123352000Y-48975000D01*
X123352000Y-50175000D01*
G37*
G36*
X124952000Y-57375000D02*
G01*
X124952000Y-57775000D01*
X125352000Y-57775000D01*
X125352000Y-58175000D01*
X124952000Y-58175000D01*
X124952000Y-58575000D01*
X124952000Y-58975000D01*
X123752000Y-58975000D01*
X123752000Y-58575000D01*
X124552000Y-58575000D01*
X124552000Y-58175000D01*
X124552000Y-57775000D01*
X124152000Y-57775000D01*
X124152000Y-57375000D01*
X124552000Y-57375000D01*
X124552000Y-56975000D01*
X124952000Y-56975000D01*
X124952000Y-57375000D01*
G37*
G36*
X125752000Y-58975000D02*
G01*
X125352000Y-58975000D01*
X125352000Y-58175000D01*
X125752000Y-58175000D01*
X125752000Y-58975000D01*
G37*
G36*
X128152000Y-58175000D02*
G01*
X126952000Y-58175000D01*
X126952000Y-56975000D01*
X128152000Y-56975000D01*
X128152000Y-58175000D01*
G37*
G36*
X128952000Y-58575000D02*
G01*
X128952000Y-58975000D01*
X126152000Y-58975000D01*
X126152000Y-58575000D01*
X126152000Y-56575000D01*
X126552000Y-56575000D01*
X126552000Y-58575000D01*
X128552000Y-58575000D01*
X128552000Y-56575000D01*
X126552000Y-56575000D01*
X126152000Y-56575000D01*
X126152000Y-56175000D01*
X128952000Y-56175000D01*
X128952000Y-56575000D01*
X128952000Y-58575000D01*
G37*
G36*
X121352000Y-58575000D02*
G01*
X120552000Y-58575000D01*
X120552000Y-58175000D01*
X121352000Y-58175000D01*
X121352000Y-58575000D01*
G37*
G36*
X120552000Y-58175000D02*
G01*
X119752000Y-58175000D01*
X119752000Y-57775000D01*
X120552000Y-57775000D01*
X120552000Y-58175000D01*
G37*
G36*
X119352000Y-57375000D02*
G01*
X118952000Y-57375000D01*
X118952000Y-56175000D01*
X119352000Y-56175000D01*
X119352000Y-57375000D01*
G37*
G36*
X120152000Y-57375000D02*
G01*
X119752000Y-57375000D01*
X119752000Y-56975000D01*
X120152000Y-56975000D01*
X120152000Y-57375000D01*
G37*
G36*
X125752000Y-56175000D02*
G01*
X125752000Y-56975000D01*
X124952000Y-56975000D01*
X124952000Y-56175000D01*
X125352000Y-56175000D01*
X125352000Y-55775000D01*
X125752000Y-55775000D01*
X125752000Y-56175000D01*
G37*
G36*
X126152000Y-55375000D02*
G01*
X126552000Y-55375000D01*
X126552000Y-55775000D01*
X125752000Y-55775000D01*
X125752000Y-55375000D01*
X125352000Y-55375000D01*
X125352000Y-55775000D01*
X124952000Y-55775000D01*
X124952000Y-55375000D01*
X124952000Y-54975000D01*
X126152000Y-54975000D01*
X126152000Y-55375000D01*
G37*
G36*
X128552000Y-53775000D02*
G01*
X128952000Y-53775000D01*
X128952000Y-54175000D01*
X128952000Y-54575000D01*
X128952000Y-55775000D01*
X128552000Y-55775000D01*
X128552000Y-54575000D01*
X128152000Y-54575000D01*
X128152000Y-55775000D01*
X127752000Y-55775000D01*
X127752000Y-54575000D01*
X127752000Y-54175000D01*
X127352000Y-54175000D01*
X127352000Y-53775000D01*
X128152000Y-53775000D01*
X128152000Y-52975000D01*
X128552000Y-52975000D01*
X128552000Y-53775000D01*
G37*
G36*
X119752000Y-54575000D02*
G01*
X119752000Y-54975000D01*
X119352000Y-54975000D01*
X119352000Y-55375000D01*
X118952000Y-55375000D01*
X118952000Y-54975000D01*
X118952000Y-54575000D01*
X119352000Y-54575000D01*
X119352000Y-54175000D01*
X119752000Y-54175000D01*
X119752000Y-54575000D01*
G37*
G36*
X127352000Y-54975000D02*
G01*
X126952000Y-54975000D01*
X126952000Y-55375000D01*
X126552000Y-55375000D01*
X126552000Y-54975000D01*
X126152000Y-54975000D01*
X126152000Y-54575000D01*
X127352000Y-54575000D01*
X127352000Y-54975000D01*
G37*
G36*
X124952000Y-54975000D02*
G01*
X124552000Y-54975000D01*
X124552000Y-54575000D01*
X124952000Y-54575000D01*
X124952000Y-54975000D01*
G37*
G36*
X123752000Y-54575000D02*
G01*
X123352000Y-54575000D01*
X123352000Y-54175000D01*
X123752000Y-54175000D01*
X123752000Y-54575000D01*
G37*
G36*
X124552000Y-54575000D02*
G01*
X124152000Y-54575000D01*
X124152000Y-54175000D01*
X124552000Y-54175000D01*
X124552000Y-54575000D01*
G37*
G36*
X123352000Y-54175000D02*
G01*
X122952000Y-54175000D01*
X122952000Y-53775000D01*
X123352000Y-53775000D01*
X123352000Y-54175000D01*
G37*
G36*
X125352000Y-54175000D02*
G01*
X124552000Y-54175000D01*
X124552000Y-53775000D01*
X125352000Y-53775000D01*
X125352000Y-54175000D01*
G37*
G36*
X126552000Y-54175000D02*
G01*
X126152000Y-54175000D01*
X126152000Y-53775000D01*
X126552000Y-53775000D01*
X126552000Y-54175000D01*
G37*
G36*
X126152000Y-53775000D02*
G01*
X125752000Y-53775000D01*
X125752000Y-53375000D01*
X126152000Y-53375000D01*
X126152000Y-53775000D01*
G37*
G36*
X127352000Y-53775000D02*
G01*
X126552000Y-53775000D01*
X126552000Y-53375000D01*
X127352000Y-53375000D01*
X127352000Y-53775000D01*
G37*
G36*
X125752000Y-52975000D02*
G01*
X125752000Y-53375000D01*
X124952000Y-53375000D01*
X124952000Y-52975000D01*
X125352000Y-52975000D01*
X125352000Y-52575000D01*
X125752000Y-52575000D01*
X125752000Y-52975000D01*
G37*
G36*
X126552000Y-53375000D02*
G01*
X126152000Y-53375000D01*
X126152000Y-52975000D01*
X126552000Y-52975000D01*
X126552000Y-53375000D01*
G37*
G36*
X127752000Y-53375000D02*
G01*
X127352000Y-53375000D01*
X127352000Y-52975000D01*
X127752000Y-52975000D01*
X127752000Y-53375000D01*
G37*
G36*
X126952000Y-52575000D02*
G01*
X126952000Y-52975000D01*
X126552000Y-52975000D01*
X126552000Y-52575000D01*
X125752000Y-52575000D01*
X125752000Y-52175000D01*
X126952000Y-52175000D01*
X126952000Y-52575000D01*
G37*
G36*
X128952000Y-52575000D02*
G01*
X128152000Y-52575000D01*
X128152000Y-52175000D01*
X128952000Y-52175000D01*
X128952000Y-52575000D01*
G37*
G36*
X120952000Y-50975000D02*
G01*
X119752000Y-50975000D01*
X119752000Y-49775000D01*
X120952000Y-49775000D01*
X120952000Y-50975000D01*
G37*
G36*
X121752000Y-51375000D02*
G01*
X121752000Y-51775000D01*
X118952000Y-51775000D01*
X118952000Y-51375000D01*
X118952000Y-49375000D01*
X119352000Y-49375000D01*
X119352000Y-51375000D01*
X121352000Y-51375000D01*
X121352000Y-49375000D01*
X119352000Y-49375000D01*
X118952000Y-49375000D01*
X118952000Y-48975000D01*
X121752000Y-48975000D01*
X121752000Y-49375000D01*
X121752000Y-51375000D01*
G37*
G36*
X124152000Y-51775000D02*
G01*
X123752000Y-51775000D01*
X123752000Y-51375000D01*
X124152000Y-51375000D01*
X124152000Y-51775000D01*
G37*
G36*
X125752000Y-51775000D02*
G01*
X125352000Y-51775000D01*
X125352000Y-51375000D01*
X125752000Y-51375000D01*
X125752000Y-51775000D01*
G37*
G36*
X128152000Y-50975000D02*
G01*
X126952000Y-50975000D01*
X126952000Y-49775000D01*
X128152000Y-49775000D01*
X128152000Y-50975000D01*
G37*
G36*
X128952000Y-51375000D02*
G01*
X128952000Y-51775000D01*
X126152000Y-51775000D01*
X126152000Y-51375000D01*
X126152000Y-49375000D01*
X126552000Y-49375000D01*
X126552000Y-51375000D01*
X128552000Y-51375000D01*
X128552000Y-49375000D01*
X126552000Y-49375000D01*
X126152000Y-49375000D01*
X126152000Y-48975000D01*
X128952000Y-48975000D01*
X128952000Y-49375000D01*
X128952000Y-51375000D01*
G37*
G36*
X136504138Y-54784000D02*
G01*
X136159310Y-54784000D01*
X136159310Y-54439172D01*
X136504138Y-54439172D01*
X136504138Y-54784000D01*
G37*
G36*
X135124828Y-53749517D02*
G01*
X135814483Y-53749517D01*
X135814483Y-54094345D01*
X136159310Y-54094345D01*
X136159310Y-53749517D01*
X136848966Y-53749517D01*
X136848966Y-54094345D01*
X137193793Y-54094345D01*
X137193793Y-54439172D01*
X137193793Y-54784000D01*
X136848966Y-54784000D01*
X136848966Y-54439172D01*
X136504138Y-54439172D01*
X136504138Y-54094345D01*
X136159310Y-54094345D01*
X136159310Y-54439172D01*
X135469655Y-54439172D01*
X135469655Y-54094345D01*
X135124828Y-54094345D01*
X135124828Y-54439172D01*
X134780000Y-54439172D01*
X134780000Y-54094345D01*
X134780000Y-53749517D01*
X134780000Y-53059862D01*
X135124828Y-53059862D01*
X135124828Y-53749517D01*
G37*
G36*
X138228276Y-54784000D02*
G01*
X137538621Y-54784000D01*
X137538621Y-54439172D01*
X138228276Y-54439172D01*
X138228276Y-54784000D01*
G37*
G36*
X138917931Y-54784000D02*
G01*
X138573103Y-54784000D01*
X138573103Y-54439172D01*
X138917931Y-54439172D01*
X138917931Y-54784000D01*
G37*
G36*
X139952414Y-54784000D02*
G01*
X139262759Y-54784000D01*
X139262759Y-54439172D01*
X139952414Y-54439172D01*
X139952414Y-54784000D01*
G37*
G36*
X142021379Y-54439172D02*
G01*
X142021379Y-54784000D01*
X140986897Y-54784000D01*
X140986897Y-54439172D01*
X141676552Y-54439172D01*
X141676552Y-54094345D01*
X142021379Y-54094345D01*
X142021379Y-54439172D01*
G37*
G36*
X144090345Y-54094345D02*
G01*
X143055862Y-54094345D01*
X143055862Y-53059862D01*
X144090345Y-53059862D01*
X144090345Y-54094345D01*
G37*
G36*
X144780000Y-54439172D02*
G01*
X144780000Y-54784000D01*
X142366207Y-54784000D01*
X142366207Y-54439172D01*
X142366207Y-52715034D01*
X142711034Y-52715034D01*
X142711034Y-54439172D01*
X144435172Y-54439172D01*
X144435172Y-52715034D01*
X142711034Y-52715034D01*
X142366207Y-52715034D01*
X142366207Y-52370207D01*
X144780000Y-52370207D01*
X144780000Y-52715034D01*
X144780000Y-54439172D01*
G37*
G36*
X138917931Y-53059862D02*
G01*
X139607586Y-53059862D01*
X139607586Y-53404690D01*
X139262759Y-53404690D01*
X139262759Y-53749517D01*
X138573103Y-53749517D01*
X138573103Y-54439172D01*
X138228276Y-54439172D01*
X138228276Y-53749517D01*
X138228276Y-53404690D01*
X138573103Y-53404690D01*
X138573103Y-53059862D01*
X138573103Y-52715034D01*
X138917931Y-52715034D01*
X138917931Y-53059862D01*
G37*
G36*
X137193793Y-52715034D02*
G01*
X136848966Y-52715034D01*
X136848966Y-52370207D01*
X137193793Y-52370207D01*
X137193793Y-52715034D01*
G37*
G36*
X137883448Y-52370207D02*
G01*
X138228276Y-52370207D01*
X138228276Y-53059862D01*
X138228276Y-53404690D01*
X137538621Y-53404690D01*
X137538621Y-53749517D01*
X137883448Y-53749517D01*
X137883448Y-54094345D01*
X137193793Y-54094345D01*
X137193793Y-53749517D01*
X137193793Y-53404690D01*
X135814483Y-53404690D01*
X135814483Y-53059862D01*
X136159310Y-53059862D01*
X136159310Y-52715034D01*
X135814483Y-52715034D01*
X135814483Y-52025379D01*
X136504138Y-52025379D01*
X136504138Y-52715034D01*
X136504138Y-53059862D01*
X137538621Y-53059862D01*
X137538621Y-52370207D01*
X137538621Y-52025379D01*
X136504138Y-52025379D01*
X135814483Y-52025379D01*
X135124828Y-52025379D01*
X135124828Y-51680552D01*
X135469655Y-51680552D01*
X135469655Y-51335724D01*
X135814483Y-51335724D01*
X135814483Y-50990897D01*
X136159310Y-50990897D01*
X136159310Y-50646069D01*
X136504138Y-50646069D01*
X136504138Y-50990897D01*
X136504138Y-51335724D01*
X136159310Y-51335724D01*
X136159310Y-51680552D01*
X136848966Y-51680552D01*
X136848966Y-51335724D01*
X137193793Y-51335724D01*
X137193793Y-51680552D01*
X137883448Y-51680552D01*
X137883448Y-51335724D01*
X137883448Y-50990897D01*
X137883448Y-50646069D01*
X137193793Y-50646069D01*
X137193793Y-50301241D01*
X137883448Y-50301241D01*
X137883448Y-49956414D01*
X136848966Y-49956414D01*
X136848966Y-50301241D01*
X136159310Y-50301241D01*
X136159310Y-49956414D01*
X136504138Y-49956414D01*
X136848966Y-49956414D01*
X136848966Y-49611586D01*
X136504138Y-49611586D01*
X136504138Y-49956414D01*
X136159310Y-49956414D01*
X136159310Y-49611586D01*
X135814483Y-49611586D01*
X135814483Y-50301241D01*
X135469655Y-50301241D01*
X135469655Y-49611586D01*
X135124828Y-49611586D01*
X135124828Y-50301241D01*
X134780000Y-50301241D01*
X134780000Y-49611586D01*
X134780000Y-49266759D01*
X134780000Y-48577103D01*
X135124828Y-48577103D01*
X135124828Y-49266759D01*
X136504138Y-49266759D01*
X136504138Y-48921931D01*
X136504138Y-48577103D01*
X136159310Y-48577103D01*
X136159310Y-47887448D01*
X136848966Y-47887448D01*
X136848966Y-48577103D01*
X137883448Y-48577103D01*
X137883448Y-48921931D01*
X138228276Y-48921931D01*
X138228276Y-49266759D01*
X137538621Y-49266759D01*
X137538621Y-48921931D01*
X137193793Y-48921931D01*
X137193793Y-49266759D01*
X137193793Y-49611586D01*
X138228276Y-49611586D01*
X138228276Y-49956414D01*
X138573103Y-49956414D01*
X138573103Y-50301241D01*
X138228276Y-50301241D01*
X138228276Y-50646069D01*
X138573103Y-50646069D01*
X138573103Y-50990897D01*
X138228276Y-50990897D01*
X138228276Y-51335724D01*
X138573103Y-51335724D01*
X138573103Y-50990897D01*
X139262759Y-50990897D01*
X139262759Y-50646069D01*
X139607586Y-50646069D01*
X139607586Y-50990897D01*
X140642069Y-50990897D01*
X140642069Y-51335724D01*
X140297241Y-51335724D01*
X140297241Y-52025379D01*
X140642069Y-52025379D01*
X140642069Y-52370207D01*
X140297241Y-52370207D01*
X140297241Y-52715034D01*
X140642069Y-52715034D01*
X140642069Y-52370207D01*
X141676552Y-52370207D01*
X141676552Y-52715034D01*
X141331724Y-52715034D01*
X141331724Y-53404690D01*
X141676552Y-53404690D01*
X141676552Y-53059862D01*
X142021379Y-53059862D01*
X142021379Y-53404690D01*
X142021379Y-53749517D01*
X141676552Y-53749517D01*
X141676552Y-54094345D01*
X141331724Y-54094345D01*
X141331724Y-53749517D01*
X140986897Y-53749517D01*
X140986897Y-54094345D01*
X140986897Y-54439172D01*
X140642069Y-54439172D01*
X140642069Y-54094345D01*
X139952414Y-54094345D01*
X139952414Y-53749517D01*
X140297241Y-53749517D01*
X140986897Y-53749517D01*
X140986897Y-53404690D01*
X140297241Y-53404690D01*
X140297241Y-53749517D01*
X139952414Y-53749517D01*
X139607586Y-53749517D01*
X139607586Y-53404690D01*
X139952414Y-53404690D01*
X139952414Y-52715034D01*
X139952414Y-52370207D01*
X139952414Y-52025379D01*
X139952414Y-51335724D01*
X138573103Y-51335724D01*
X138573103Y-51680552D01*
X138917931Y-51680552D01*
X138917931Y-52370207D01*
X138228276Y-52370207D01*
X138228276Y-51680552D01*
X137883448Y-51680552D01*
X137883448Y-52025379D01*
X137883448Y-52370207D01*
G37*
G36*
X139607586Y-54094345D02*
G01*
X139262759Y-54094345D01*
X139262759Y-53749517D01*
X139607586Y-53749517D01*
X139607586Y-54094345D01*
G37*
G36*
X135469655Y-53059862D02*
G01*
X135124828Y-53059862D01*
X135124828Y-52715034D01*
X135469655Y-52715034D01*
X135469655Y-53059862D01*
G37*
G36*
X139607586Y-52715034D02*
G01*
X138917931Y-52715034D01*
X138917931Y-52370207D01*
X139607586Y-52370207D01*
X139607586Y-52715034D01*
G37*
G36*
X142021379Y-52370207D02*
G01*
X141676552Y-52370207D01*
X141676552Y-52025379D01*
X142021379Y-52025379D01*
X142021379Y-52370207D01*
G37*
G36*
X139607586Y-52025379D02*
G01*
X139262759Y-52025379D01*
X139262759Y-51680552D01*
X139607586Y-51680552D01*
X139607586Y-52025379D01*
G37*
G36*
X140986897Y-52025379D02*
G01*
X140642069Y-52025379D01*
X140642069Y-51335724D01*
X140986897Y-51335724D01*
X140986897Y-52025379D01*
G37*
G36*
X141676552Y-52025379D02*
G01*
X141331724Y-52025379D01*
X141331724Y-51680552D01*
X141676552Y-51680552D01*
X141676552Y-52025379D01*
G37*
G36*
X143055862Y-51680552D02*
G01*
X143055862Y-52025379D01*
X142021379Y-52025379D01*
X142021379Y-51680552D01*
X142711034Y-51680552D01*
X142711034Y-51335724D01*
X143055862Y-51335724D01*
X143055862Y-51680552D01*
G37*
G36*
X144780000Y-50301241D02*
G01*
X144780000Y-50646069D01*
X144780000Y-50990897D01*
X144780000Y-51335724D01*
X144780000Y-51680552D01*
X144780000Y-52025379D01*
X144090345Y-52025379D01*
X144090345Y-51680552D01*
X143745517Y-51680552D01*
X143745517Y-52025379D01*
X143400690Y-52025379D01*
X143400690Y-51680552D01*
X143400690Y-51335724D01*
X144090345Y-51335724D01*
X144090345Y-50990897D01*
X144435172Y-50990897D01*
X144435172Y-50646069D01*
X144090345Y-50646069D01*
X144090345Y-50990897D01*
X143745517Y-50990897D01*
X143745517Y-50646069D01*
X143745517Y-50301241D01*
X144435172Y-50301241D01*
X144435172Y-49956414D01*
X144780000Y-49956414D01*
X144780000Y-50301241D01*
G37*
G36*
X142711034Y-51335724D02*
G01*
X142021379Y-51335724D01*
X142021379Y-51680552D01*
X141676552Y-51680552D01*
X141676552Y-51335724D01*
X141331724Y-51335724D01*
X141331724Y-50990897D01*
X142711034Y-50990897D01*
X142711034Y-51335724D01*
G37*
G36*
X135124828Y-51335724D02*
G01*
X134780000Y-51335724D01*
X134780000Y-50990897D01*
X135124828Y-50990897D01*
X135124828Y-51335724D01*
G37*
G36*
X135814483Y-50990897D02*
G01*
X135124828Y-50990897D01*
X135124828Y-50646069D01*
X135814483Y-50646069D01*
X135814483Y-50990897D01*
G37*
G36*
X139262759Y-47542621D02*
G01*
X139952414Y-47542621D01*
X139952414Y-47197793D01*
X140297241Y-47197793D01*
X140297241Y-46852966D01*
X140642069Y-46852966D01*
X140642069Y-47197793D01*
X140642069Y-47542621D01*
X140642069Y-47887448D01*
X140297241Y-47887448D01*
X140297241Y-47542621D01*
X139952414Y-47542621D01*
X139952414Y-47887448D01*
X139607586Y-47887448D01*
X139607586Y-48232276D01*
X140642069Y-48232276D01*
X140642069Y-48577103D01*
X139952414Y-48577103D01*
X139952414Y-48921931D01*
X140297241Y-48921931D01*
X140297241Y-49266759D01*
X139952414Y-49266759D01*
X139952414Y-49611586D01*
X139952414Y-49956414D01*
X140642069Y-49956414D01*
X140642069Y-50301241D01*
X140986897Y-50301241D01*
X140986897Y-50646069D01*
X140986897Y-50990897D01*
X140642069Y-50990897D01*
X140642069Y-50646069D01*
X140297241Y-50646069D01*
X140297241Y-50301241D01*
X139607586Y-50301241D01*
X139607586Y-49956414D01*
X139262759Y-49956414D01*
X139262759Y-49611586D01*
X138917931Y-49611586D01*
X138917931Y-49266759D01*
X138917931Y-48921931D01*
X139607586Y-48921931D01*
X139607586Y-48577103D01*
X139262759Y-48577103D01*
X139262759Y-48232276D01*
X139262759Y-47887448D01*
X138573103Y-47887448D01*
X138573103Y-47542621D01*
X138917931Y-47542621D01*
X138917931Y-46852966D01*
X139262759Y-46852966D01*
X139262759Y-47542621D01*
G37*
G36*
X143055862Y-50301241D02*
G01*
X143400690Y-50301241D01*
X143400690Y-50646069D01*
X143400690Y-50990897D01*
X142711034Y-50990897D01*
X142711034Y-50646069D01*
X142021379Y-50646069D01*
X142021379Y-50301241D01*
X142711034Y-50301241D01*
X142711034Y-49956414D01*
X143055862Y-49956414D01*
X143055862Y-50301241D01*
G37*
G36*
X136159310Y-50646069D02*
G01*
X135814483Y-50646069D01*
X135814483Y-50301241D01*
X136159310Y-50301241D01*
X136159310Y-50646069D01*
G37*
G36*
X139262759Y-50301241D02*
G01*
X138917931Y-50301241D01*
X138917931Y-49956414D01*
X139262759Y-49956414D01*
X139262759Y-50301241D01*
G37*
G36*
X142021379Y-48921931D02*
G01*
X142711034Y-48921931D01*
X142711034Y-49266759D01*
X142021379Y-49266759D01*
X142021379Y-49611586D01*
X142711034Y-49611586D01*
X142711034Y-49956414D01*
X142021379Y-49956414D01*
X142021379Y-50301241D01*
X141676552Y-50301241D01*
X141676552Y-49956414D01*
X141676552Y-49611586D01*
X140986897Y-49611586D01*
X140986897Y-49266759D01*
X140986897Y-48921931D01*
X141676552Y-48921931D01*
X141676552Y-48577103D01*
X142021379Y-48577103D01*
X142021379Y-48921931D01*
G37*
G36*
X144090345Y-49611586D02*
G01*
X144090345Y-49956414D01*
X143745517Y-49956414D01*
X143745517Y-50301241D01*
X143400690Y-50301241D01*
X143400690Y-49956414D01*
X143055862Y-49956414D01*
X143055862Y-49611586D01*
X143745517Y-49611586D01*
X143745517Y-49266759D01*
X144090345Y-49266759D01*
X144090345Y-49611586D01*
G37*
G36*
X138917931Y-49956414D02*
G01*
X138573103Y-49956414D01*
X138573103Y-49611586D01*
X138917931Y-49611586D01*
X138917931Y-49956414D01*
G37*
G36*
X138573103Y-49611586D02*
G01*
X138228276Y-49611586D01*
X138228276Y-49266759D01*
X138573103Y-49266759D01*
X138573103Y-49611586D01*
G37*
G36*
X140642069Y-49611586D02*
G01*
X140297241Y-49611586D01*
X140297241Y-49266759D01*
X140642069Y-49266759D01*
X140642069Y-49611586D01*
G37*
G36*
X143745517Y-47887448D02*
G01*
X144090345Y-47887448D01*
X144090345Y-47542621D01*
X144780000Y-47542621D01*
X144780000Y-47887448D01*
X144780000Y-48232276D01*
X144780000Y-49266759D01*
X144780000Y-49611586D01*
X144435172Y-49611586D01*
X144435172Y-49266759D01*
X144090345Y-49266759D01*
X144090345Y-48232276D01*
X144435172Y-48232276D01*
X144435172Y-47887448D01*
X144090345Y-47887448D01*
X144090345Y-48232276D01*
X143400690Y-48232276D01*
X143400690Y-47887448D01*
X143055862Y-47887448D01*
X143055862Y-47542621D01*
X143745517Y-47542621D01*
X143745517Y-47887448D01*
G37*
G36*
X143745517Y-48921931D02*
G01*
X143400690Y-48921931D01*
X143400690Y-49266759D01*
X143055862Y-49266759D01*
X143055862Y-48921931D01*
X143055862Y-48577103D01*
X143745517Y-48577103D01*
X143745517Y-48921931D01*
G37*
G36*
X136159310Y-48921931D02*
G01*
X135814483Y-48921931D01*
X135814483Y-48577103D01*
X136159310Y-48577103D01*
X136159310Y-48921931D01*
G37*
G36*
X138917931Y-48921931D02*
G01*
X138228276Y-48921931D01*
X138228276Y-48232276D01*
X138917931Y-48232276D01*
X138917931Y-48921931D01*
G37*
G36*
X135814483Y-48232276D02*
G01*
X135814483Y-48577103D01*
X135469655Y-48577103D01*
X135469655Y-48232276D01*
X135124828Y-48232276D01*
X135124828Y-47887448D01*
X135814483Y-47887448D01*
X135814483Y-48232276D01*
G37*
G36*
X141676552Y-48577103D02*
G01*
X141331724Y-48577103D01*
X141331724Y-48232276D01*
X141676552Y-48232276D01*
X141676552Y-48577103D01*
G37*
G36*
X142711034Y-48577103D02*
G01*
X142021379Y-48577103D01*
X142021379Y-48232276D01*
X142711034Y-48232276D01*
X142711034Y-48577103D01*
G37*
G36*
X137538621Y-48232276D02*
G01*
X137193793Y-48232276D01*
X137193793Y-47887448D01*
X137538621Y-47887448D01*
X137538621Y-48232276D01*
G37*
G36*
X137883448Y-47542621D02*
G01*
X138228276Y-47542621D01*
X138228276Y-47887448D01*
X138228276Y-48232276D01*
X137883448Y-48232276D01*
X137883448Y-47887448D01*
X137538621Y-47887448D01*
X137538621Y-47542621D01*
X137538621Y-46508138D01*
X137883448Y-46508138D01*
X137883448Y-47542621D01*
G37*
G36*
X141331724Y-48232276D02*
G01*
X140986897Y-48232276D01*
X140986897Y-47887448D01*
X141331724Y-47887448D01*
X141331724Y-48232276D01*
G37*
G36*
X135124828Y-47887448D02*
G01*
X134780000Y-47887448D01*
X134780000Y-47542621D01*
X135124828Y-47542621D01*
X135124828Y-47887448D01*
G37*
G36*
X137193793Y-47887448D02*
G01*
X136848966Y-47887448D01*
X136848966Y-47542621D01*
X137193793Y-47542621D01*
X137193793Y-47887448D01*
G37*
G36*
X142021379Y-47197793D02*
G01*
X142021379Y-47542621D01*
X141676552Y-47542621D01*
X141676552Y-47887448D01*
X141331724Y-47887448D01*
X141331724Y-47542621D01*
X141331724Y-47197793D01*
X141676552Y-47197793D01*
X141676552Y-46852966D01*
X142021379Y-46852966D01*
X142021379Y-47197793D01*
G37*
G36*
X142711034Y-47887448D02*
G01*
X142366207Y-47887448D01*
X142366207Y-47542621D01*
X142711034Y-47542621D01*
X142711034Y-47887448D01*
G37*
G36*
X136504138Y-46508138D02*
G01*
X135469655Y-46508138D01*
X135469655Y-45473655D01*
X136504138Y-45473655D01*
X136504138Y-46508138D01*
G37*
G36*
X137193793Y-46852966D02*
G01*
X137193793Y-47197793D01*
X134780000Y-47197793D01*
X134780000Y-46852966D01*
X134780000Y-45128828D01*
X135124828Y-45128828D01*
X135124828Y-46852966D01*
X136848966Y-46852966D01*
X136848966Y-45128828D01*
X135124828Y-45128828D01*
X134780000Y-45128828D01*
X134780000Y-44784000D01*
X137193793Y-44784000D01*
X137193793Y-45128828D01*
X137193793Y-46852966D01*
G37*
G36*
X138573103Y-47197793D02*
G01*
X138228276Y-47197793D01*
X138228276Y-46852966D01*
X138573103Y-46852966D01*
X138573103Y-47197793D01*
G37*
G36*
X139952414Y-47197793D02*
G01*
X139607586Y-47197793D01*
X139607586Y-46852966D01*
X139952414Y-46852966D01*
X139952414Y-47197793D01*
G37*
G36*
X141331724Y-47197793D02*
G01*
X140986897Y-47197793D01*
X140986897Y-46852966D01*
X141331724Y-46852966D01*
X141331724Y-47197793D01*
G37*
G36*
X144090345Y-46508138D02*
G01*
X143055862Y-46508138D01*
X143055862Y-45473655D01*
X144090345Y-45473655D01*
X144090345Y-46508138D01*
G37*
G36*
X144780000Y-46852966D02*
G01*
X144780000Y-47197793D01*
X142366207Y-47197793D01*
X142366207Y-46852966D01*
X142366207Y-45128828D01*
X142711034Y-45128828D01*
X142711034Y-46852966D01*
X144435172Y-46852966D01*
X144435172Y-45128828D01*
X142711034Y-45128828D01*
X142366207Y-45128828D01*
X142366207Y-44784000D01*
X144780000Y-44784000D01*
X144780000Y-45128828D01*
X144780000Y-46852966D01*
G37*
G36*
X137883448Y-45128828D02*
G01*
X138228276Y-45128828D01*
X138228276Y-46163310D01*
X138573103Y-46163310D01*
X138573103Y-45818483D01*
X138917931Y-45818483D01*
X138917931Y-46163310D01*
X139262759Y-46163310D01*
X139262759Y-46508138D01*
X138917931Y-46508138D01*
X138917931Y-46852966D01*
X138573103Y-46852966D01*
X138573103Y-46508138D01*
X137883448Y-46508138D01*
X137883448Y-46163310D01*
X137538621Y-46163310D01*
X137538621Y-45128828D01*
X137538621Y-44784000D01*
X137883448Y-44784000D01*
X137883448Y-45128828D01*
G37*
G36*
X140986897Y-45818483D02*
G01*
X141331724Y-45818483D01*
X141331724Y-46163310D01*
X141331724Y-46508138D01*
X140986897Y-46508138D01*
X140986897Y-46852966D01*
X140642069Y-46852966D01*
X140642069Y-46508138D01*
X139607586Y-46508138D01*
X139607586Y-46163310D01*
X139952414Y-46163310D01*
X139952414Y-45818483D01*
X139607586Y-45818483D01*
X139607586Y-45473655D01*
X139952414Y-45473655D01*
X140297241Y-45473655D01*
X140297241Y-45818483D01*
X140297241Y-46163310D01*
X140642069Y-46163310D01*
X140642069Y-45818483D01*
X140642069Y-45473655D01*
X140297241Y-45473655D01*
X139952414Y-45473655D01*
X139952414Y-45128828D01*
X140642069Y-45128828D01*
X140642069Y-44784000D01*
X142021379Y-44784000D01*
X142021379Y-45128828D01*
X140986897Y-45128828D01*
X140986897Y-45473655D01*
X140986897Y-45818483D01*
G37*
G36*
X141676552Y-46852966D02*
G01*
X141331724Y-46852966D01*
X141331724Y-46508138D01*
X141676552Y-46508138D01*
X141676552Y-46852966D01*
G37*
G36*
X139262759Y-45818483D02*
G01*
X138917931Y-45818483D01*
X138917931Y-45473655D01*
X139262759Y-45473655D01*
X139262759Y-45818483D01*
G37*
G36*
X141676552Y-45818483D02*
G01*
X141331724Y-45818483D01*
X141331724Y-45473655D01*
X141676552Y-45473655D01*
X141676552Y-45818483D01*
G37*
G36*
X138573103Y-45128828D02*
G01*
X138228276Y-45128828D01*
X138228276Y-44784000D01*
X138573103Y-44784000D01*
X138573103Y-45128828D01*
G37*
G36*
X139952414Y-45128828D02*
G01*
X139607586Y-45128828D01*
X139607586Y-44784000D01*
X139952414Y-44784000D01*
X139952414Y-45128828D01*
G37*
D12*
X112555966Y-84822000D02*
X112589300Y-84922000D01*
X112589300Y-84922000D02*
X112622633Y-84955333D01*
X112622633Y-84955333D02*
X112689300Y-84988666D01*
X112689300Y-84988666D02*
X112789300Y-84988666D01*
X112789300Y-84988666D02*
X112855966Y-84955333D01*
X112855966Y-84955333D02*
X112889300Y-84922000D01*
X112889300Y-84922000D02*
X112922633Y-84855333D01*
X112922633Y-84855333D02*
X112922633Y-84588666D01*
X112922633Y-84588666D02*
X112222633Y-84588666D01*
X112222633Y-84588666D02*
X112222633Y-84822000D01*
X112222633Y-84822000D02*
X112255966Y-84888666D01*
X112255966Y-84888666D02*
X112289300Y-84922000D01*
X112289300Y-84922000D02*
X112355966Y-84955333D01*
X112355966Y-84955333D02*
X112422633Y-84955333D01*
X112422633Y-84955333D02*
X112489300Y-84922000D01*
X112489300Y-84922000D02*
X112522633Y-84888666D01*
X112522633Y-84888666D02*
X112555966Y-84822000D01*
X112555966Y-84822000D02*
X112555966Y-84588666D01*
X112222633Y-85188666D02*
X112222633Y-85588666D01*
X112922633Y-85388666D02*
X112222633Y-85388666D01*
X112922633Y-86188666D02*
X112922633Y-85788666D01*
X112922633Y-85988666D02*
X112222633Y-85988666D01*
X112222633Y-85988666D02*
X112322633Y-85921999D01*
X112322633Y-85921999D02*
X112389300Y-85855333D01*
X112389300Y-85855333D02*
X112422633Y-85788666D01*
D11*
%TO.C,G\u002A\u002A\u002A*%
G36*
X92457591Y-43716666D02*
G01*
X92891208Y-43716666D01*
X92891208Y-44533333D01*
X92891208Y-45350000D01*
X91431918Y-45350000D01*
X89972627Y-45350000D01*
X89972627Y-44983333D01*
X89972627Y-44616666D01*
X90998300Y-44616666D01*
X92023973Y-44616666D01*
X92023973Y-44166666D01*
X92023973Y-43716666D01*
X92457591Y-43716666D01*
G37*
G36*
X92023973Y-43350000D02*
G01*
X92023973Y-43716666D01*
X91090027Y-43716666D01*
X90156080Y-43716666D01*
X90156080Y-43350000D01*
X90156080Y-42983333D01*
X91090027Y-42983333D01*
X92023973Y-42983333D01*
X92023973Y-43350000D01*
G37*
G36*
X92891208Y-42166666D02*
G01*
X92891208Y-42983333D01*
X92457591Y-42983333D01*
X92023973Y-42983333D01*
X92023973Y-42533333D01*
X92023973Y-42083333D01*
X90998300Y-42083333D01*
X89972627Y-42083333D01*
X89972627Y-41716666D01*
X89972627Y-41350000D01*
X91431918Y-41350000D01*
X92891208Y-41350000D01*
X92891208Y-42166666D01*
G37*
G36*
X89222134Y-43349193D02*
G01*
X89222134Y-45350000D01*
X88788516Y-45350000D01*
X88354899Y-45350000D01*
X88354899Y-44534415D01*
X88354899Y-43718830D01*
X87725319Y-43712773D01*
X87645519Y-43711998D01*
X87497970Y-43710436D01*
X87377939Y-43708791D01*
X87281454Y-43706808D01*
X87204543Y-43704237D01*
X87143232Y-43700823D01*
X87093550Y-43696315D01*
X87051524Y-43690458D01*
X87013181Y-43683002D01*
X86974549Y-43673692D01*
X86931656Y-43662277D01*
X86926578Y-43660893D01*
X86725391Y-43591394D01*
X86548003Y-43500015D01*
X86395226Y-43387466D01*
X86267870Y-43254453D01*
X86166745Y-43101683D01*
X86092661Y-42929864D01*
X86091380Y-42926011D01*
X86073828Y-42870295D01*
X86061542Y-42821391D01*
X86053583Y-42771271D01*
X86049012Y-42711907D01*
X86046889Y-42635270D01*
X86046277Y-42533333D01*
X86046263Y-42521759D01*
X86046303Y-42511912D01*
X86891635Y-42511912D01*
X86900222Y-42613722D01*
X86936719Y-42711661D01*
X87002075Y-42800184D01*
X87004991Y-42803144D01*
X87080316Y-42865078D01*
X87170153Y-42911350D01*
X87280409Y-42944326D01*
X87416993Y-42966374D01*
X87438810Y-42968503D01*
X87510660Y-42973170D01*
X87605706Y-42977193D01*
X87716827Y-42980353D01*
X87836901Y-42982428D01*
X87958805Y-42983196D01*
X88354899Y-42983333D01*
X88354899Y-42531119D01*
X88354899Y-42078904D01*
X87867078Y-42088167D01*
X87794922Y-42089629D01*
X87642117Y-42093659D01*
X87516771Y-42098799D01*
X87414711Y-42105563D01*
X87331767Y-42114466D01*
X87263767Y-42126020D01*
X87206540Y-42140741D01*
X87155916Y-42159141D01*
X87107722Y-42181735D01*
X87023868Y-42238720D01*
X86954406Y-42318865D01*
X86910012Y-42411777D01*
X86891635Y-42511912D01*
X86046303Y-42511912D01*
X86046665Y-42423211D01*
X86048667Y-42349490D01*
X86053153Y-42292873D01*
X86061007Y-42245633D01*
X86073115Y-42200048D01*
X86090361Y-42148393D01*
X86104266Y-42110517D01*
X86185998Y-41937689D01*
X86290214Y-41788371D01*
X86418420Y-41661012D01*
X86572122Y-41554060D01*
X86752827Y-41465965D01*
X86774554Y-41457141D01*
X86822675Y-41438004D01*
X86867386Y-41421576D01*
X86911513Y-41407631D01*
X86957885Y-41395949D01*
X87009331Y-41386305D01*
X87068677Y-41378477D01*
X87138754Y-41372242D01*
X87222387Y-41367376D01*
X87322407Y-41363658D01*
X87441640Y-41360863D01*
X87582915Y-41358769D01*
X87749061Y-41357154D01*
X87942905Y-41355794D01*
X88167275Y-41354466D01*
X89222134Y-41348388D01*
X89222134Y-42531119D01*
X89222134Y-43349193D01*
G37*
G36*
X85482339Y-42162500D02*
G01*
X85478011Y-42975000D01*
X85048562Y-42979448D01*
X84619114Y-42983896D01*
X84619114Y-43349999D01*
X84619114Y-43716103D01*
X85048562Y-43720551D01*
X85478011Y-43725000D01*
X85482339Y-44537500D01*
X85486667Y-45350000D01*
X85052890Y-45350000D01*
X84619114Y-45350000D01*
X84619114Y-44533333D01*
X84619114Y-43716666D01*
X83676829Y-43716666D01*
X82734544Y-43716666D01*
X82734544Y-43350000D01*
X82734544Y-42983333D01*
X83677101Y-42983333D01*
X84619659Y-42983333D01*
X84615217Y-42537499D01*
X84610775Y-42091666D01*
X83589272Y-42087371D01*
X82567768Y-42083077D01*
X82567768Y-41716538D01*
X82567768Y-41350000D01*
X84027217Y-41350000D01*
X85486667Y-41350000D01*
X85482339Y-42162500D01*
G37*
G36*
X81934019Y-43350000D02*
G01*
X81934019Y-45350000D01*
X80491405Y-45350000D01*
X79048792Y-45350000D01*
X79048792Y-44983333D01*
X79048792Y-44616666D01*
X80057788Y-44616666D01*
X81066783Y-44616666D01*
X81066783Y-42983333D01*
X81066783Y-41350000D01*
X81500401Y-41350000D01*
X81934019Y-41350000D01*
X81934019Y-43350000D01*
G37*
%TO.C,REF\u002A\u002A*%
G36*
X90774323Y-51323061D02*
G01*
X90774310Y-53318557D01*
X90774307Y-53825834D01*
X90404874Y-54037501D01*
X90351178Y-54068269D01*
X90230116Y-54137680D01*
X90123917Y-54198648D01*
X90025584Y-54255205D01*
X89928120Y-54311383D01*
X89824528Y-54371212D01*
X89707812Y-54438724D01*
X89570974Y-54517950D01*
X89544363Y-54533356D01*
X89456404Y-54584208D01*
X89363191Y-54638023D01*
X89280912Y-54685452D01*
X89237037Y-54710719D01*
X89164704Y-54752382D01*
X89075316Y-54803874D01*
X88974349Y-54862040D01*
X88867281Y-54923725D01*
X88759585Y-54985775D01*
X88690871Y-55025335D01*
X88570552Y-55094504D01*
X88433756Y-55173051D01*
X88286904Y-55257293D01*
X88136414Y-55343549D01*
X87988707Y-55428136D01*
X87850203Y-55507372D01*
X87820620Y-55524291D01*
X87704120Y-55591036D01*
X87596680Y-55652771D01*
X87501330Y-55707742D01*
X87421100Y-55754196D01*
X87359021Y-55790379D01*
X87318124Y-55814538D01*
X87301437Y-55824919D01*
X87297003Y-55827899D01*
X87268973Y-55844984D01*
X87218729Y-55874816D01*
X87149699Y-55915382D01*
X87065312Y-55964672D01*
X86968997Y-56020674D01*
X86864184Y-56081377D01*
X86442610Y-56325069D01*
X86383164Y-56294742D01*
X86353662Y-56279131D01*
X86297136Y-56247694D01*
X86240294Y-56214692D01*
X86215779Y-56200176D01*
X86149627Y-56161464D01*
X86066811Y-56113413D01*
X85974417Y-56060116D01*
X85879530Y-56005665D01*
X85789236Y-55954155D01*
X85761779Y-55938423D01*
X85699692Y-55902334D01*
X85640285Y-55867274D01*
X85640110Y-55867170D01*
X85585251Y-55834844D01*
X85508494Y-55790169D01*
X85415200Y-55736243D01*
X85310732Y-55676166D01*
X85200449Y-55613035D01*
X85178892Y-55600648D01*
X85129030Y-55571823D01*
X85062325Y-55533145D01*
X84984817Y-55488118D01*
X84902548Y-55440246D01*
X84843011Y-55405589D01*
X84766272Y-55360971D01*
X84699851Y-55322411D01*
X84649339Y-55293153D01*
X84620326Y-55276442D01*
X84580703Y-55253766D01*
X84511781Y-55214180D01*
X84426397Y-55165041D01*
X84330457Y-55109755D01*
X84229866Y-55051729D01*
X84130528Y-54994370D01*
X84038350Y-54941085D01*
X83959236Y-54895280D01*
X83899091Y-54860361D01*
X83857695Y-54836292D01*
X83767945Y-54784218D01*
X83676308Y-54731165D01*
X83597270Y-54685526D01*
X83554125Y-54660658D01*
X83409697Y-54577349D01*
X83290029Y-54508208D01*
X83193189Y-54452115D01*
X83117245Y-54407952D01*
X83060264Y-54374599D01*
X83032503Y-54358330D01*
X82970019Y-54321922D01*
X82897321Y-54279744D01*
X82825079Y-54237996D01*
X82766964Y-54204358D01*
X82686233Y-54157419D01*
X82592894Y-54102996D01*
X82494354Y-54045409D01*
X82398021Y-53988977D01*
X82119914Y-53825834D01*
X82119719Y-53328025D01*
X82119766Y-53260546D01*
X82120209Y-53144579D01*
X82121065Y-53041342D01*
X82122276Y-52954563D01*
X82123785Y-52887965D01*
X82125533Y-52845275D01*
X82127462Y-52830217D01*
X82130811Y-52831303D01*
X82143191Y-52837299D01*
X82165590Y-52849203D01*
X82199324Y-52867770D01*
X82245711Y-52893752D01*
X82306069Y-52927905D01*
X82381713Y-52970980D01*
X82473962Y-53023732D01*
X82584132Y-53086915D01*
X82713541Y-53161282D01*
X82863506Y-53247586D01*
X83035343Y-53346582D01*
X83230371Y-53459022D01*
X83449905Y-53585661D01*
X83695264Y-53727253D01*
X83774516Y-53772990D01*
X83905079Y-53848324D01*
X84041159Y-53926827D01*
X84174588Y-54003788D01*
X84297198Y-54074493D01*
X84400820Y-54134232D01*
X84426909Y-54149272D01*
X84529450Y-54208423D01*
X84631926Y-54267591D01*
X84727560Y-54322858D01*
X84809574Y-54370310D01*
X84871190Y-54406029D01*
X84938826Y-54445251D01*
X85052379Y-54510861D01*
X85161731Y-54573767D01*
X85263610Y-54632105D01*
X85354740Y-54684014D01*
X85431848Y-54727629D01*
X85491658Y-54761090D01*
X85530898Y-54782532D01*
X85546292Y-54790093D01*
X85546634Y-54788322D01*
X85547567Y-54762907D01*
X85548376Y-54709011D01*
X85549058Y-54628786D01*
X85549608Y-54524382D01*
X85550021Y-54397952D01*
X85550294Y-54251645D01*
X85550421Y-54087614D01*
X85550398Y-53908010D01*
X85550221Y-53714983D01*
X85549886Y-53510686D01*
X85549387Y-53297269D01*
X85545424Y-51817726D01*
X87309278Y-51817726D01*
X87309438Y-53311749D01*
X87309451Y-53385705D01*
X87309537Y-53596320D01*
X87309695Y-53797073D01*
X87309917Y-53985816D01*
X87310199Y-54160398D01*
X87310534Y-54318670D01*
X87310918Y-54458481D01*
X87311343Y-54577684D01*
X87311806Y-54674127D01*
X87312299Y-54745661D01*
X87312818Y-54790136D01*
X87313357Y-54805403D01*
X87314419Y-54804888D01*
X87324937Y-54799032D01*
X87347442Y-54786211D01*
X87382879Y-54765878D01*
X87432196Y-54737485D01*
X87496339Y-54700484D01*
X87576254Y-54654328D01*
X87672887Y-54598469D01*
X87787186Y-54532360D01*
X87920096Y-54455453D01*
X88072564Y-54367200D01*
X88245536Y-54267054D01*
X88439959Y-54154467D01*
X88656779Y-54028892D01*
X88896943Y-53889781D01*
X89161398Y-53736586D01*
X89451088Y-53568760D01*
X89766962Y-53385755D01*
X89772490Y-53382536D01*
X89819285Y-53353819D01*
X89852394Y-53330924D01*
X89864956Y-53318557D01*
X89852804Y-53307774D01*
X89818381Y-53285108D01*
X89767065Y-53254050D01*
X89704246Y-53217972D01*
X89654936Y-53190156D01*
X89547568Y-53128882D01*
X89415206Y-53052598D01*
X89257373Y-52961027D01*
X89073592Y-52853892D01*
X88863387Y-52730919D01*
X88848781Y-52722371D01*
X88784183Y-52684789D01*
X88731165Y-52654305D01*
X88694874Y-52633858D01*
X88680455Y-52626389D01*
X88676221Y-52624486D01*
X88650658Y-52610391D01*
X88607543Y-52585559D01*
X88553134Y-52553571D01*
X88532750Y-52541506D01*
X88470225Y-52504731D01*
X88414423Y-52472220D01*
X88375449Y-52449871D01*
X88301210Y-52407932D01*
X88234739Y-52369963D01*
X88190707Y-52344255D01*
X88171622Y-52332253D01*
X88170578Y-52327581D01*
X88168263Y-52296636D01*
X88165739Y-52240057D01*
X88163125Y-52161654D01*
X88160542Y-52065237D01*
X88158108Y-51954617D01*
X88155943Y-51833603D01*
X88148104Y-51341286D01*
X87728691Y-51579506D01*
X87309278Y-51817726D01*
X85545424Y-51817726D01*
X85545388Y-51804445D01*
X85278845Y-51650836D01*
X85273361Y-51647676D01*
X85188678Y-51598949D01*
X85111365Y-51554591D01*
X85046367Y-51517428D01*
X84998631Y-51490290D01*
X84973104Y-51476004D01*
X84946861Y-51461448D01*
X84898934Y-51434461D01*
X84837394Y-51399578D01*
X84769277Y-51360777D01*
X84706638Y-51325043D01*
X84692287Y-51316869D01*
X88190648Y-51316869D01*
X88193932Y-51319809D01*
X88219009Y-51335925D01*
X88265550Y-51364046D01*
X88329798Y-51401943D01*
X88407997Y-51447389D01*
X88496389Y-51498157D01*
X88526893Y-51515597D01*
X88624393Y-51571548D01*
X88718287Y-51625714D01*
X88802663Y-51674666D01*
X88871604Y-51714979D01*
X88919198Y-51743222D01*
X88938390Y-51754740D01*
X88987043Y-51783432D01*
X89022027Y-51803310D01*
X89036791Y-51810619D01*
X89040705Y-51808613D01*
X89066795Y-51793850D01*
X89113905Y-51766700D01*
X89178033Y-51729506D01*
X89255179Y-51684607D01*
X89341340Y-51634347D01*
X89432517Y-51581064D01*
X89524708Y-51527101D01*
X89613911Y-51474799D01*
X89696126Y-51426499D01*
X89767351Y-51384541D01*
X89823586Y-51351267D01*
X89860829Y-51329018D01*
X89875079Y-51320134D01*
X89866620Y-51313355D01*
X89835747Y-51294245D01*
X89787384Y-51266075D01*
X89726893Y-51232032D01*
X89689558Y-51211202D01*
X89604856Y-51163278D01*
X89520253Y-51114678D01*
X89449462Y-51073250D01*
X89383670Y-51034241D01*
X89303572Y-50987069D01*
X89241126Y-50950856D01*
X89190808Y-50922453D01*
X89147099Y-50898711D01*
X89104475Y-50876479D01*
X89026031Y-50836247D01*
X88610586Y-51074517D01*
X88566999Y-51099524D01*
X88466900Y-51157018D01*
X88377291Y-51208578D01*
X88301518Y-51252273D01*
X88242924Y-51286173D01*
X88204853Y-51308348D01*
X88190648Y-51316869D01*
X84692287Y-51316869D01*
X84611399Y-51270796D01*
X84512798Y-51214706D01*
X84424338Y-51164459D01*
X84421634Y-51162925D01*
X84335646Y-51113976D01*
X84235235Y-51056591D01*
X84132665Y-50997791D01*
X84040203Y-50944596D01*
X83836375Y-50827044D01*
X83832239Y-50323779D01*
X83828102Y-49820513D01*
X83894955Y-49778198D01*
X83928164Y-49757827D01*
X83985544Y-49723729D01*
X84054482Y-49683519D01*
X84126437Y-49642217D01*
X84189387Y-49606401D01*
X84253803Y-49569749D01*
X84305858Y-49540128D01*
X84338104Y-49521777D01*
X84359431Y-49509562D01*
X84406985Y-49482166D01*
X84467884Y-49446973D01*
X84534091Y-49408624D01*
X84602488Y-49368971D01*
X84718594Y-49301692D01*
X84846478Y-49227621D01*
X84979658Y-49150511D01*
X85111648Y-49074115D01*
X85235964Y-49002188D01*
X85346121Y-48938482D01*
X85435635Y-48886752D01*
X85543080Y-48824697D01*
X85693107Y-48738062D01*
X85820468Y-48664538D01*
X85927909Y-48602540D01*
X86018181Y-48550483D01*
X86094032Y-48506783D01*
X86158210Y-48469854D01*
X86213463Y-48438111D01*
X86262541Y-48409971D01*
X86415251Y-48322501D01*
X86415412Y-47840371D01*
X86415382Y-47786408D01*
X86414985Y-47671352D01*
X86414176Y-47568726D01*
X86413014Y-47482317D01*
X86411557Y-47415910D01*
X86409863Y-47373289D01*
X86407992Y-47358241D01*
X86401743Y-47361081D01*
X86371968Y-47377108D01*
X86321300Y-47405361D01*
X86253611Y-47443659D01*
X86172771Y-47489819D01*
X86082652Y-47541658D01*
X85975097Y-47603743D01*
X85837101Y-47683406D01*
X85721377Y-47750224D01*
X85625008Y-47805885D01*
X85545079Y-47852073D01*
X85478675Y-47890477D01*
X85422880Y-47922781D01*
X85374779Y-47950672D01*
X85331457Y-47975838D01*
X85289998Y-47999963D01*
X85247487Y-48024734D01*
X85205229Y-48049330D01*
X85116504Y-48100792D01*
X85026579Y-48152763D01*
X84949585Y-48197068D01*
X84918425Y-48214966D01*
X84832531Y-48264491D01*
X84741177Y-48317365D01*
X84659524Y-48364820D01*
X84620963Y-48387272D01*
X84531675Y-48439130D01*
X84437645Y-48493611D01*
X84353783Y-48542071D01*
X84352679Y-48542707D01*
X84296441Y-48575167D01*
X84218541Y-48620166D01*
X84124322Y-48674614D01*
X84019126Y-48735424D01*
X83908297Y-48799509D01*
X83797178Y-48863779D01*
X83776282Y-48875864D01*
X83672263Y-48935964D01*
X83574967Y-48992081D01*
X83488475Y-49041868D01*
X83416869Y-49082978D01*
X83364233Y-49113063D01*
X83334647Y-49129775D01*
X83311846Y-49142623D01*
X83259180Y-49172965D01*
X83194483Y-49210753D01*
X83126900Y-49250669D01*
X82981869Y-49336848D01*
X82981869Y-49830889D01*
X82981849Y-49886898D01*
X82981561Y-50014572D01*
X82980816Y-50115051D01*
X82979469Y-50191358D01*
X82977376Y-50246512D01*
X82974392Y-50283535D01*
X82970373Y-50305446D01*
X82965174Y-50315268D01*
X82958651Y-50316020D01*
X82950240Y-50311915D01*
X82916670Y-50293713D01*
X82862502Y-50263429D01*
X82791858Y-50223392D01*
X82708861Y-50175930D01*
X82617632Y-50123372D01*
X82576171Y-50099415D01*
X82479808Y-50043835D01*
X82388731Y-49991434D01*
X82308403Y-49945348D01*
X82244285Y-49908712D01*
X82201838Y-49884663D01*
X82103845Y-49829691D01*
X82103873Y-49326960D01*
X82103901Y-48824229D01*
X82170508Y-48782525D01*
X82201643Y-48763657D01*
X82256578Y-48731226D01*
X82327754Y-48689721D01*
X82409420Y-48642495D01*
X82495820Y-48592902D01*
X82562743Y-48554587D01*
X82661527Y-48497883D01*
X82758117Y-48442287D01*
X82844162Y-48392607D01*
X82911314Y-48353649D01*
X82953537Y-48329091D01*
X83042271Y-48277647D01*
X83132209Y-48225679D01*
X83209215Y-48181363D01*
X83221292Y-48174432D01*
X83358321Y-48095634D01*
X83515323Y-48005088D01*
X83685843Y-47906530D01*
X83863424Y-47803694D01*
X84041611Y-47700316D01*
X84213948Y-47600129D01*
X84270167Y-47567449D01*
X84365958Y-47511946D01*
X84454817Y-47460671D01*
X84531709Y-47416521D01*
X84591596Y-47382393D01*
X84629442Y-47361183D01*
X84675575Y-47335604D01*
X84735694Y-47301721D01*
X84811985Y-47258270D01*
X84907176Y-47203692D01*
X85023996Y-47136428D01*
X85165172Y-47054918D01*
X85195779Y-47037232D01*
X85283582Y-46986511D01*
X85376581Y-46932806D01*
X85459153Y-46885139D01*
X85466625Y-46880826D01*
X85540637Y-46838073D01*
X85629910Y-46786459D01*
X85723868Y-46732101D01*
X85811931Y-46681117D01*
X85815902Y-46678817D01*
X85911349Y-46623553D01*
X86020218Y-46560545D01*
X86129401Y-46497379D01*
X86225790Y-46441639D01*
X86435822Y-46320222D01*
X86500173Y-46355460D01*
X86512301Y-46362168D01*
X86562471Y-46390555D01*
X86625270Y-46426702D01*
X86689956Y-46464441D01*
X86703507Y-46472380D01*
X86754436Y-46502021D01*
X86827419Y-46544330D01*
X86918811Y-46597201D01*
X87024963Y-46658524D01*
X87142229Y-46726193D01*
X87266961Y-46798101D01*
X87395511Y-46872139D01*
X87449856Y-46903434D01*
X87576491Y-46976439D01*
X87697335Y-47046214D01*
X87808821Y-47110692D01*
X87907383Y-47167808D01*
X87989454Y-47215496D01*
X88051470Y-47251692D01*
X88089864Y-47274328D01*
X88110006Y-47286287D01*
X88159592Y-47315046D01*
X88195818Y-47335057D01*
X88211959Y-47342562D01*
X88212514Y-47342739D01*
X88230786Y-47352341D01*
X88271454Y-47374903D01*
X88330380Y-47408059D01*
X88403428Y-47449444D01*
X88486461Y-47496694D01*
X88575341Y-47547442D01*
X88665931Y-47599324D01*
X88754095Y-47649974D01*
X88835694Y-47697027D01*
X88906593Y-47738118D01*
X88962654Y-47770881D01*
X88999739Y-47792951D01*
X89016850Y-47804337D01*
X89026196Y-47815624D01*
X89024356Y-47828622D01*
X89008621Y-47845579D01*
X88976283Y-47868739D01*
X88924634Y-47900349D01*
X88850965Y-47942653D01*
X88752569Y-47997896D01*
X88725057Y-48013452D01*
X88662994Y-48049225D01*
X88603619Y-48084147D01*
X88596967Y-48088106D01*
X88536193Y-48123913D01*
X88459360Y-48168729D01*
X88375085Y-48217572D01*
X88291986Y-48265461D01*
X88218679Y-48307414D01*
X88163783Y-48338447D01*
X88125586Y-48360015D01*
X88066510Y-48393811D01*
X88006993Y-48428226D01*
X87972903Y-48448025D01*
X87906505Y-48486473D01*
X87830705Y-48530267D01*
X87756128Y-48573265D01*
X87700932Y-48605070D01*
X87637079Y-48641918D01*
X87584961Y-48672053D01*
X87552301Y-48691014D01*
X87522933Y-48708132D01*
X87465416Y-48741591D01*
X87393876Y-48783160D01*
X87315812Y-48828484D01*
X87238721Y-48873205D01*
X87221155Y-48883356D01*
X87162532Y-48916954D01*
X87105449Y-48949361D01*
X87083740Y-48961656D01*
X87020699Y-48997706D01*
X86961185Y-49032122D01*
X86951857Y-49037555D01*
X86870864Y-49084431D01*
X86764657Y-49145486D01*
X86635079Y-49219660D01*
X86610215Y-49233983D01*
X86556193Y-49265480D01*
X86500984Y-49298016D01*
X86471035Y-49315686D01*
X86407753Y-49352604D01*
X86352033Y-49384648D01*
X86322131Y-49401703D01*
X86264949Y-49434441D01*
X86196396Y-49473782D01*
X86125511Y-49514542D01*
X86067434Y-49547926D01*
X85975300Y-49600765D01*
X85879157Y-49655794D01*
X85792332Y-49705380D01*
X85780799Y-49711985D01*
X85716357Y-49750007D01*
X85663986Y-49782763D01*
X85628808Y-49806948D01*
X85615943Y-49819253D01*
X85620209Y-49825104D01*
X85645864Y-49845055D01*
X85689549Y-49873858D01*
X85745295Y-49907441D01*
X85839813Y-49962204D01*
X85998115Y-50054124D01*
X86142277Y-50138134D01*
X86280800Y-50219184D01*
X86332340Y-50249250D01*
X86383237Y-50277663D01*
X86417293Y-50293448D01*
X86440346Y-50298549D01*
X86458232Y-50294912D01*
X86476788Y-50284481D01*
X86492872Y-50274671D01*
X86536506Y-50249054D01*
X86594457Y-50215720D01*
X86658598Y-50179368D01*
X86738093Y-50134504D01*
X86829655Y-50082403D01*
X86927183Y-50026409D01*
X87037684Y-49962497D01*
X87168166Y-49886641D01*
X87200634Y-49867744D01*
X87288289Y-49816812D01*
X87379212Y-49764074D01*
X87458227Y-49718336D01*
X87489487Y-49700247D01*
X87575360Y-49650407D01*
X87666673Y-49597251D01*
X87748289Y-49549585D01*
X87795119Y-49522237D01*
X87860352Y-49484342D01*
X87915512Y-49452527D01*
X87952116Y-49431696D01*
X87977283Y-49417479D01*
X88026968Y-49389107D01*
X88097979Y-49348340D01*
X88191476Y-49294509D01*
X88308617Y-49226947D01*
X88450563Y-49144985D01*
X88618474Y-49047955D01*
X88629166Y-49041777D01*
X88700669Y-49000537D01*
X88792695Y-48947553D01*
X88899617Y-48886060D01*
X89015805Y-48819293D01*
X89135634Y-48750489D01*
X89253474Y-48682883D01*
X89293775Y-48659772D01*
X89404426Y-48596317D01*
X89509805Y-48535880D01*
X89605527Y-48480979D01*
X89687206Y-48434128D01*
X89750454Y-48397844D01*
X89790886Y-48374643D01*
X89897125Y-48313656D01*
X90175022Y-48472778D01*
X90262784Y-48523124D01*
X90363945Y-48581351D01*
X90461359Y-48637603D01*
X90547197Y-48687358D01*
X90613628Y-48726094D01*
X90774338Y-48820288D01*
X90774323Y-51320134D01*
X90774323Y-51323061D01*
G37*
%TO.C,BT1*%
D13*
X111734000Y-85772000D02*
G75*
G02*
X104674000Y-85772000I-3530000J0D01*
G01*
X104674000Y-85772000D02*
G75*
G02*
X111734000Y-85772000I3530000J0D01*
G01*
%TD*%
M02*
