M48
; DRILL file KiCad 10.0.4-10.0.4~ubuntu22.04.1 date 2026-08-12T15:32:35
; FORMAT={-:-/ absolute / metric / decimal}
; #@! TF.CreationDate,2026-08-12T15:32:35+02:00
; #@! TF.GenerationSoftware,Kicad,Pcbnew,10.0.4-10.0.4~ubuntu22.04.1
; #@! TF.FileFunction,Plated,1,2,PTH
FMAT,2
METRIC
; #@! TA.AperFunction,Plated,PTH,ViaDrill
T1C0.300
; #@! TA.AperFunction,Plated,PTH,ComponentDrill
T2C0.500
; #@! TA.AperFunction,Plated,PTH,ComponentDrill
T3C0.700
; #@! TA.AperFunction,Plated,PTH,ComponentDrill
T4C1.000
; #@! TA.AperFunction,Plated,PTH,ComponentDrill
T5C4.400
%
G90
G05
T1
X81.102Y-62.916
X83.541Y-63.068
X91.4Y-90.11
X91.41Y-88.86
X91.44Y-80.99
X91.45Y-87.24
X93.115Y-79.33
X94.52Y-83.61
X94.83Y-84.73
X94.87Y-73.7
X95.683Y-78.877
X95.74Y-63.05
X95.81Y-56.896
X95.81Y-57.658
X95.81Y-83.6
X95.88Y-87.37
X95.959Y-80.779
X96.03Y-74.79
X96.34Y-85.72
X96.647Y-56.329
X97.007Y-74.592
X97.12Y-87.32
X97.206Y-66.777
X97.409Y-56.329
X97.79Y-68.656
X98.005Y-76.609
X98.24Y-80.13
X98.298Y-57.15
X98.58Y-69.32
X98.628Y-67.132
X98.869Y-57.722
X99.377Y-58.23
X99.441Y-67.945
X99.885Y-58.738
X100.337Y-59.302
X100.844Y-59.81
X100.99Y-71.298
X101.346Y-70.358
X101.352Y-60.319
X101.981Y-69.85
X103.124Y-60.833
X103.257Y-61.709
X103.46Y-75.91
X104.164Y-69.437
X104.258Y-65.755
X104.267Y-66.555
X105.753Y-60.462
X105.979Y-67.755
X106.08Y-63.12
X106.172Y-62.155
X106.172Y-64.28
X106.172Y-65.151
X106.172Y-66.675
X106.426Y-68.707
X106.553Y-79.248
X106.553Y-80.01
X106.553Y-80.772
X106.553Y-81.534
X106.639Y-67.755
X106.68Y-82.296
X107.14Y-59.36
X107.259Y-74.658
X107.27Y-73.61
X107.28Y-77.69
X107.442Y-82.296
X107.757Y-69.022
X107.82Y-68.068
X107.829Y-61.963
X107.829Y-62.979
X107.954Y-58.703
X108.312Y-76.276
X108.331Y-82.296
X108.337Y-62.471
X108.337Y-71.615
X108.337Y-75.667
X108.591Y-68.059
X108.757Y-59.858
X108.845Y-61.963
X108.845Y-62.979
X108.89Y-70.968
X109.353Y-62.471
X109.353Y-68.059
X109.353Y-73.647
X109.353Y-74.663
X109.353Y-76.695
X109.353Y-77.711
X109.861Y-61.963
X109.861Y-62.979
X109.957Y-59.812
X110.369Y-62.471
X110.369Y-71.361
X110.489Y-68.977
X110.623Y-67.805
X110.75Y-72.13
X110.76Y-58.711
X110.877Y-61.963
X110.877Y-62.979
X111.14Y-68.974
X111.385Y-45.453
X111.385Y-71.371
X111.941Y-69.054
X111.96Y-59.677
X112.114Y-44.658
X112.147Y-61.963
X112.349Y-71.371
X112.499Y-66.281
X112.499Y-67.507
X112.729Y-63.542
X112.729Y-64.503
X112.909Y-62.725
X113.003Y-43.769
X113.044Y-62.082
X113.055Y-70.714
X113.142Y-68.83
X113.258Y-66.717
X113.404Y-59.934
X113.417Y-59.169
X113.892Y-42.88
X114.317Y-69.28
X114.749Y-67.155
X114.781Y-41.991
X114.859Y-71.323
X114.864Y-64.528
X115.075Y-62.845
X115.189Y-61.963
X115.195Y-63.741
X115.48Y-59.77
X115.67Y-41.102
X115.799Y-70.587
X115.841Y-55.386
X116.699Y-65.278
X116.714Y-66.078
X116.719Y-61.963
X116.719Y-62.725
X116.719Y-63.715
X116.719Y-66.776
X116.992Y-69.627
X118.243Y-63.715
X118.279Y-65.278
X118.497Y-66.281
X120.846Y-78.206
X122.885Y-76.86
X128.11Y-82.51
T2
X102.108Y-39.497
X102.81Y-59.182
X103.108Y-39.497
X103.81Y-59.182
X104.108Y-39.497
X104.81Y-59.182
X105.108Y-39.497
X106.108Y-39.497
X107.108Y-39.497
X108.108Y-39.497
X109.108Y-39.497
X110.108Y-39.497
X111.108Y-39.497
X112.108Y-39.497
X113.108Y-39.497
X114.108Y-39.497
X115.108Y-39.497
X116.108Y-39.497
X117.108Y-39.497
T3
X96.774Y-60.198
X118.86Y-68.1
T4
X85.217Y-72.034
T5
X73.527Y-65.281
X142.24Y-65.462
M30
