%TF.GenerationSoftware,KiCad,Pcbnew,10.0.4-10.0.4~ubuntu22.04.1*%
%TF.CreationDate,2026-08-12T15:32:20+02:00*%
%TF.ProjectId,patch,70617463-682e-46b6-9963-61645f706362,rev?*%
%TF.SameCoordinates,Original*%
%TF.FileFunction,Soldermask,Top*%
%TF.FilePolarity,Negative*%
%FSLAX46Y46*%
G04 Gerber Fmt 4.6, Leading zero omitted, Abs format (unit mm)*
G04 Created by KiCad (PCBNEW 10.0.4-10.0.4~ubuntu22.04.1) date 2026-08-12 15:32:20*
%MOMM*%
%LPD*%
G01*
G04 APERTURE LIST*
G04 Aperture macros list*
%AMRoundRect*
0 Rectangle with rounded corners*
0 $1 Rounding radius*
0 $2 $3 $4 $5 $6 $7 $8 $9 X,Y pos of 4 corners*
0 Add a 4 corners polygon primitive as box body*
4,1,4,$2,$3,$4,$5,$6,$7,$8,$9,$2,$3,0*
0 Add four circle primitives for the rounded corners*
1,1,$1+$1,$2,$3*
1,1,$1+$1,$4,$5*
1,1,$1+$1,$6,$7*
1,1,$1+$1,$8,$9*
0 Add four rect primitives between the rounded corners*
20,1,$1+$1,$2,$3,$4,$5,0*
20,1,$1+$1,$4,$5,$6,$7,0*
20,1,$1+$1,$6,$7,$8,$9,0*
20,1,$1+$1,$8,$9,$2,$3,0*%
%AMRotRect*
0 Rectangle, with rotation*
0 The origin of the aperture is its center*
0 $1 length*
0 $2 width*
0 $3 Rotation angle, in degrees counterclockwise*
0 Add horizontal line*
21,1,$1,$2,0,0,$3*%
G04 Aperture macros list end*
%ADD10C,0.100000*%
%ADD11C,0.200000*%
%ADD12O,0.850000X0.850000*%
%ADD13R,0.850000X0.850000*%
%ADD14RoundRect,0.200000X0.335876X0.053033X0.053033X0.335876X-0.335876X-0.053033X-0.053033X-0.335876X0*%
%ADD15RoundRect,0.200000X0.053033X-0.335876X0.335876X-0.053033X-0.053033X0.335876X-0.335876X0.053033X0*%
%ADD16RoundRect,0.200000X-0.200000X-0.275000X0.200000X-0.275000X0.200000X0.275000X-0.200000X0.275000X0*%
%ADD17RoundRect,0.225000X-0.250000X0.225000X-0.250000X-0.225000X0.250000X-0.225000X0.250000X0.225000X0*%
%ADD18RoundRect,0.150000X0.150000X-0.650000X0.150000X0.650000X-0.150000X0.650000X-0.150000X-0.650000X0*%
%ADD19RoundRect,0.200000X0.200000X0.275000X-0.200000X0.275000X-0.200000X-0.275000X0.200000X-0.275000X0*%
%ADD20RotRect,0.550000X1.300000X145.000000*%
%ADD21RoundRect,0.225000X0.125926X0.311878X-0.296936X0.157969X-0.125926X-0.311878X0.296936X-0.157969X0*%
%ADD22C,6.000000*%
%ADD23C,1.100000*%
%ADD24RoundRect,0.200000X0.275000X-0.200000X0.275000X0.200000X-0.275000X0.200000X-0.275000X-0.200000X0*%
%ADD25RoundRect,0.100000X0.049303X0.563533X-0.563533X0.049303X-0.049303X-0.563533X0.563533X-0.049303X0*%
%ADD26RoundRect,0.105000X-0.317835X1.032185X-0.961312X0.492243X0.317835X-1.032185X0.961312X-0.492243X0*%
%ADD27RoundRect,0.062500X-0.350000X-0.062500X0.350000X-0.062500X0.350000X0.062500X-0.350000X0.062500X0*%
%ADD28RoundRect,0.062500X-0.062500X-0.350000X0.062500X-0.350000X0.062500X0.350000X-0.062500X0.350000X0*%
%ADD29R,3.400000X3.400000*%
%ADD30RoundRect,0.218750X-0.026517X0.335876X-0.335876X0.026517X0.026517X-0.335876X0.335876X-0.026517X0*%
%ADD31RoundRect,0.200000X-0.335876X-0.053033X-0.053033X-0.335876X0.335876X0.053033X0.053033X0.335876X0*%
%ADD32RoundRect,0.200000X-0.275000X0.200000X-0.275000X-0.200000X0.275000X-0.200000X0.275000X0.200000X0*%
%ADD33RoundRect,0.225000X0.250000X-0.225000X0.250000X0.225000X-0.250000X0.225000X-0.250000X-0.225000X0*%
%ADD34RoundRect,0.100000X0.650000X0.100000X-0.650000X0.100000X-0.650000X-0.100000X0.650000X-0.100000X0*%
%ADD35RoundRect,0.200000X-0.338157X0.035705X-0.138157X-0.310705X0.338157X-0.035705X0.138157X0.310705X0*%
%ADD36RoundRect,0.218750X-0.218750X-0.256250X0.218750X-0.256250X0.218750X0.256250X-0.218750X0.256250X0*%
%ADD37RoundRect,0.112500X-0.637500X0.112500X-0.637500X-0.112500X0.637500X-0.112500X0.637500X0.112500X0*%
%ADD38RoundRect,0.225000X0.225000X0.250000X-0.225000X0.250000X-0.225000X-0.250000X0.225000X-0.250000X0*%
%ADD39C,1.500000*%
G04 APERTURE END LIST*
D10*
X107930000Y-55395000D02*
X108250000Y-55395000D01*
X108250000Y-56565000D01*
X107930000Y-56565000D01*
X107930000Y-55395000D01*
G36*
X107930000Y-55395000D02*
G01*
X108250000Y-55395000D01*
X108250000Y-56565000D01*
X107930000Y-56565000D01*
X107930000Y-55395000D01*
G37*
X108800000Y-55395000D02*
X109120000Y-55395000D01*
X109120000Y-56565000D01*
X108800000Y-56565000D01*
X108800000Y-55395000D01*
G36*
X108800000Y-55395000D02*
G01*
X109120000Y-55395000D01*
X109120000Y-56565000D01*
X108800000Y-56565000D01*
X108800000Y-55395000D01*
G37*
X109590000Y-55395000D02*
X109910000Y-55395000D01*
X109910000Y-56565000D01*
X109590000Y-56565000D01*
X109590000Y-55395000D01*
G36*
X109590000Y-55395000D02*
G01*
X109910000Y-55395000D01*
X109910000Y-56565000D01*
X109590000Y-56565000D01*
X109590000Y-55395000D01*
G37*
X110460000Y-55395000D02*
X110780000Y-55395000D01*
X110780000Y-56565000D01*
X110460000Y-56565000D01*
X110460000Y-55395000D01*
G36*
X110460000Y-55395000D02*
G01*
X110780000Y-55395000D01*
X110780000Y-56565000D01*
X110460000Y-56565000D01*
X110460000Y-55395000D01*
G37*
X110000000Y-53935000D02*
X110320000Y-53935000D01*
X110320000Y-55105000D01*
X110000000Y-55105000D01*
X110000000Y-53935000D01*
G36*
X110000000Y-53935000D02*
G01*
X110320000Y-53935000D01*
X110320000Y-55105000D01*
X110000000Y-55105000D01*
X110000000Y-53935000D01*
G37*
X109170000Y-53935000D02*
X109490000Y-53935000D01*
X109490000Y-55105000D01*
X109170000Y-55105000D01*
X109170000Y-53935000D01*
G36*
X109170000Y-53935000D02*
G01*
X109490000Y-53935000D01*
X109490000Y-55105000D01*
X109170000Y-55105000D01*
X109170000Y-53935000D01*
G37*
X107520000Y-53935000D02*
X107840000Y-53935000D01*
X107840000Y-55105000D01*
X107520000Y-55105000D01*
X107520000Y-53935000D01*
G36*
X107520000Y-53935000D02*
G01*
X107840000Y-53935000D01*
X107840000Y-55105000D01*
X107520000Y-55105000D01*
X107520000Y-53935000D01*
G37*
X101504991Y-73575012D02*
X100915000Y-74165000D01*
X101990000Y-75230000D01*
X102580000Y-74640000D01*
X101505057Y-73574944D01*
X101504991Y-73575012D01*
G36*
X102580000Y-74640000D02*
G01*
X101990000Y-75230000D01*
X100915000Y-74165000D01*
X101504991Y-73575012D01*
X101505057Y-73574944D01*
X102580000Y-74640000D01*
G37*
D11*
X146897293Y-40491206D02*
X146897293Y-41761206D01*
X146897293Y-40491206D02*
G75*
G02*
X148040293Y-40491206I571500J0D01*
G01*
X147468793Y-40491206D02*
X148611793Y-40491206D01*
X147722793Y-40872206D02*
X148357793Y-40872206D01*
X147976793Y-41253206D02*
X148103793Y-41253206D01*
D12*
%TO.C,J1*%
X104810000Y-59182000D03*
X103810000Y-59182000D03*
D13*
X102810000Y-59182000D03*
%TD*%
D14*
%TO.C,R16*%
X98046133Y-74523363D03*
X96879407Y-73356637D03*
%TD*%
D15*
%TO.C,R15*%
X97416637Y-77293363D03*
X98583363Y-76126637D03*
%TD*%
%TO.C,R14*%
X98746637Y-79613363D03*
X99913363Y-78446637D03*
%TD*%
D16*
%TO.C,R13*%
X102555000Y-75800000D03*
X104205000Y-75800000D03*
%TD*%
D17*
%TO.C,C14*%
X91435000Y-82040000D03*
X91435000Y-83590000D03*
%TD*%
D18*
%TO.C,U2*%
X93115000Y-88960000D03*
X94385000Y-88960000D03*
X95655000Y-88960000D03*
X96925000Y-88960000D03*
X96925000Y-81760000D03*
X95655000Y-81760000D03*
X94385000Y-81760000D03*
X93115000Y-81760000D03*
%TD*%
D15*
%TO.C,R12*%
X95046637Y-79513363D03*
X96213363Y-78346637D03*
%TD*%
D19*
%TO.C,R11*%
X93955000Y-90910000D03*
X92305000Y-90910000D03*
%TD*%
D20*
%TO.C,SW1*%
X117285854Y-60904328D03*
X115074146Y-59355672D03*
%TD*%
D17*
%TO.C,Crect1*%
X120269000Y-77330000D03*
X120269000Y-78880000D03*
%TD*%
D21*
%TO.C,Ctune1*%
X125348262Y-75884934D03*
X123891738Y-76415066D03*
%TD*%
D22*
%TO.C,E2*%
X142240000Y-65462488D03*
%TD*%
D23*
%TO.C,J4*%
X96774000Y-60198000D03*
%TD*%
D24*
%TO.C,R4*%
X117602000Y-65214000D03*
X117602000Y-63564000D03*
%TD*%
D13*
%TO.C,J2*%
X102108000Y-39497000D03*
D12*
X103108000Y-39497000D03*
X104108000Y-39497000D03*
X105108000Y-39497000D03*
X106108000Y-39497000D03*
X107108000Y-39497000D03*
X108108000Y-39497000D03*
X109108000Y-39497000D03*
X110108000Y-39497000D03*
X111108000Y-39497000D03*
X112108000Y-39497000D03*
X113108000Y-39497000D03*
X114108000Y-39497000D03*
X115108000Y-39497000D03*
X116108000Y-39497000D03*
X117108000Y-39497000D03*
%TD*%
D24*
%TO.C,R2*%
X100959000Y-67362000D03*
X100959000Y-65712000D03*
%TD*%
D22*
%TO.C,E1*%
X73527422Y-65281000D03*
%TD*%
D24*
%TO.C,R8*%
X98933000Y-60896000D03*
X98933000Y-59246000D03*
%TD*%
D25*
%TO.C,J3*%
X97738181Y-58426066D03*
D26*
X95644084Y-58225112D03*
D25*
X95809819Y-56127934D03*
D26*
X97903916Y-56328888D03*
%TD*%
D27*
%TO.C,HEEPidermis1*%
X105169500Y-61655000D03*
X105169500Y-62155000D03*
X105169500Y-62655000D03*
X105169500Y-63155000D03*
X105169500Y-63655000D03*
X105169500Y-64155000D03*
X105169500Y-64655000D03*
X105169500Y-65155000D03*
X105169500Y-65655000D03*
X105169500Y-66155000D03*
X105169500Y-66655000D03*
X105169500Y-67155000D03*
X105169500Y-67655000D03*
X105169500Y-68155000D03*
X105169500Y-68655000D03*
X105169500Y-69155000D03*
D28*
X105857000Y-69842500D03*
X106357000Y-69842500D03*
X106857000Y-69842500D03*
X107357000Y-69842500D03*
X107857000Y-69842500D03*
X108357000Y-69842500D03*
X108857000Y-69842500D03*
X109357000Y-69842500D03*
X109857000Y-69842500D03*
X110357000Y-69842500D03*
X110857000Y-69842500D03*
X111357000Y-69842500D03*
X111857000Y-69842500D03*
X112357000Y-69842500D03*
X112857000Y-69842500D03*
X113357000Y-69842500D03*
D27*
X114044500Y-69155000D03*
X114044500Y-68655000D03*
X114044500Y-68155000D03*
X114044500Y-67655000D03*
X114044500Y-67155000D03*
X114044500Y-66655000D03*
X114044500Y-66155000D03*
X114044500Y-65655000D03*
X114044500Y-65155000D03*
X114044500Y-64655000D03*
X114044500Y-64155000D03*
X114044500Y-63655000D03*
X114044500Y-63155000D03*
X114044500Y-62655000D03*
X114044500Y-62155000D03*
X114044500Y-61655000D03*
D28*
X113357000Y-60967500D03*
X112857000Y-60967500D03*
X112357000Y-60967500D03*
X111857000Y-60967500D03*
X111357000Y-60967500D03*
X110857000Y-60967500D03*
X110357000Y-60967500D03*
X109857000Y-60967500D03*
X109357000Y-60967500D03*
X108857000Y-60967500D03*
X108357000Y-60967500D03*
X107857000Y-60967500D03*
X107357000Y-60967500D03*
X106857000Y-60967500D03*
X106357000Y-60967500D03*
X105857000Y-60967500D03*
D29*
X109607000Y-65405000D03*
%TD*%
D30*
%TO.C,D2*%
X91497847Y-74792153D03*
X90384153Y-75905847D03*
%TD*%
D23*
%TO.C,J6*%
X118860000Y-68100000D03*
%TD*%
D31*
%TO.C,R5*%
X115419274Y-53062274D03*
X116586000Y-54229000D03*
%TD*%
D32*
%TO.C,R3*%
X102449000Y-65672000D03*
X102449000Y-67322000D03*
%TD*%
D16*
%TO.C,Rchg1*%
X117793000Y-75692000D03*
X119443000Y-75692000D03*
%TD*%
D17*
%TO.C,C6*%
X117481000Y-66776000D03*
X117481000Y-68326000D03*
%TD*%
D33*
%TO.C,C1*%
X98806000Y-66053000D03*
X98806000Y-64503000D03*
%TD*%
D34*
%TO.C,U1*%
X103269000Y-70087000D03*
X103269000Y-69437000D03*
X103269000Y-68787000D03*
X100609000Y-68787000D03*
X100609000Y-70087000D03*
%TD*%
D35*
%TO.C,R10*%
X117957500Y-61385529D03*
X118782500Y-62814471D03*
%TD*%
D36*
%TO.C,D4*%
X121005500Y-75741671D03*
X122580500Y-75741671D03*
%TD*%
D33*
%TO.C,C5*%
X119005000Y-65265000D03*
X119005000Y-63715000D03*
%TD*%
D17*
%TO.C,C4*%
X116205000Y-66789000D03*
X116205000Y-68339000D03*
%TD*%
D37*
%TO.C,Q1*%
X100719000Y-62577000D03*
X100719000Y-63877000D03*
X103379000Y-63227000D03*
%TD*%
D24*
%TO.C,R1*%
X98933000Y-62738000D03*
X98933000Y-61088000D03*
%TD*%
D19*
%TO.C,R9*%
X98869000Y-61087000D03*
X97219000Y-61087000D03*
%TD*%
D33*
%TO.C,C3*%
X116205000Y-65164000D03*
X116205000Y-63614000D03*
%TD*%
D30*
%TO.C,D3*%
X93910847Y-77205153D03*
X92797153Y-78318847D03*
%TD*%
%TO.C,D1*%
X119428847Y-52910153D03*
X118315153Y-54023847D03*
%TD*%
D38*
%TO.C,C2*%
X101994000Y-60960000D03*
X100444000Y-60960000D03*
%TD*%
D39*
%TO.C,J5*%
X85217000Y-72034400D03*
%TD*%
D15*
%TO.C,R7*%
X94473274Y-75626726D03*
X95640000Y-74460000D03*
%TD*%
%TO.C,R6*%
X93278637Y-74535363D03*
X94445363Y-73368637D03*
%TD*%
M02*
